<?xml version="1.0" encoding="UTF-8"?>
<svg xmlns="http://www.w3.org/2000/svg" xmlns:xlink="http://www.w3.org/1999/xlink" viewBox="0 0 339.51 237.34">
  <defs>
    <style>
      .cls-1 {
        fill: #dba8a7;
      }

      .cls-2 {
        fill: #f37576;
      }

      .cls-3 {
        fill: none;
      }

      .cls-4 {
        fill: #b22b2b;
      }
    </style>
  </defs>
  <g id="Layer_1" data-name="Layer 1">
    <image width="2362" height="2362" transform="translate(97.13 27.94) scale(.09)" xlink:href="D:\USB DRIVE FOR SCH\Life In RP\Portfolio Development\my pic png circle.png"/>
  </g>
  <g id="Layer_2" data-name="Layer 2">
    <circle id="Ellipse_1" data-name="Ellipse 1" class="cls-4" cx="70.04" cy="140.85" r="70.04"/>
    <circle id="Ellipse_2" data-name="Ellipse 2" class="cls-1" cx="297.59" cy="41.92" r="41.92"/>
    <g id="Path_1" data-name="Path 1">
      <path class="cls-3" d="m235.95,222.5c-58.93,18.02-121.31-15.15-139.32-74.08-18.02-58.93,15.15-121.31,74.08-139.32,58.93-18.02,121.31,15.15,139.32,74.08,18.02,58.93-15.15,121.31-74.08,139.32Z"/>
      <path class="cls-2" d="m300.85,166.31c-1.28.39-2.7.33-4.01-.29-2.79-1.31-3.98-4.64-2.67-7.43,10.66-22.61,12.5-48.23,5.19-72.15C283.17,33.49,226.92,3.58,173.97,19.77c-9.42,2.88-18.31,7.08-26.42,12.49-2.56,1.71-6.03,1.02-7.74-1.55-1.71-2.56-1.02-6.03,1.55-7.74,4.71-3.14,9.7-5.95,14.96-8.38h0c.21-.1.42-.2.64-.29h0s.08-.04.12-.05h0s.08-.03.12-.05h0c.1-.04.19-.09.29-.13h0s.08-.03.11-.05h0c.1-.04.19-.09.29-.13h0s.08-.03.12-.05h0s.08-.03.11-.05h0s.08-.03.11-.05c0,0,0,0,0,0,.04-.02.08-.03.11-.05h0c.06-.03.12-.05.17-.08,0,0,0,0,0,0,.04-.02.08-.03.12-.05h0s.08-.03.12-.05h0s.08-.03.11-.05c0,0,0,0,0,0,.02,0,.04-.02.06-.02h0s.04-.02.06-.03h0s.04-.02.05-.02c0,0,0,0,0,0,.04-.02.07-.03.11-.05,0,0,0,0,0,0,.04-.02.08-.03.11-.05h0s.08-.03.11-.05c0,0,0,0,0,0,.04-.02.08-.03.11-.05h0s.04-.02.05-.03h0s.08-.03.12-.05c0,0,0,0,0,0,.04-.02.08-.03.11-.05h0s.08-.03.12-.05h0s.08-.03.12-.05h0c.06-.03.12-.05.17-.07,0,0,0,0,0,0,.04-.02.08-.03.11-.05,0,0,0,0,0,0,.04-.02.07-.03.11-.05h0s.07-.03.11-.05c0,0,0,0,0,0,.02,0,.04-.02.06-.02h0s.04-.02.06-.02h0s.03-.02.05-.02h0s.04-.02.06-.03h0s.03-.02.05-.02c0,0,0,0,0,0,.04-.01.07-.03.11-.05,0,0,0,0,0,0,.04-.01.07-.03.11-.05,0,0,0,0,0,0,.02,0,.04-.01.05-.02,0,0,0,0,0,0,.02,0,.04-.02.06-.02,0,0,0,0,0,0,.02,0,.04-.01.05-.02h0s.04-.02.06-.02h0s.03-.02.05-.02c0,0,0,0,0,0,.02,0,.04-.02.06-.02,0,0,0,0,0,0,.02,0,.04-.01.05-.02,0,0,0,0,0,0,.04-.01.07-.03.11-.04,0,0,0,0,0,0,.04-.01.07-.03.11-.04,0,0,0,0,0,0,.02,0,.03-.01.05-.02h0s.04-.02.06-.02c0,0,0,0,0,0,.02,0,.03-.01.05-.02,0,0,0,0,0,0,.02,0,.04-.01.06-.02h0s.04-.01.05-.02c0,0,0,0,0,0,.04-.01.07-.03.11-.04h0s.07-.03.11-.05c0,0,0,0,0,0,.02,0,.03-.01.05-.02,0,0,0,0,0,0,.02,0,.04-.01.06-.02,0,0,0,0,0,0,.02,0,.03-.01.05-.02h0s.04-.02.06-.02h0s.03-.02.05-.02c0,0,0,0,0,0,.02,0,.04-.01.06-.02,0,0,0,0,0,0,.02,0,.03-.01.05-.02,0,0,0,0,.01,0,.04-.01.07-.03.11-.04,0,0,0,0,.01,0,.02,0,.03-.01.05-.02,0,0,0,0,0,0,.02,0,.04-.01.05-.02,0,0,0,0,.01,0,.02,0,.03-.01.05-.02h0s.04-.02.05-.02c0,0,0,0,.01,0,.02,0,.03-.01.05-.02,0,0,0,0,0,0,.02,0,.04-.01.06-.02,0,0,0,0,0,0,.02,0,.03-.01.05-.02,0,0,0,0,.01,0,.02,0,.04-.01.05-.02h0s.03-.01.05-.02c0,0,0,0,.01,0,.02,0,.03-.01.05-.02h0s.04-.01.05-.02c0,0,0,0,.01,0,.02,0,.03-.01.05-.02,0,0,0,0,0,0,.02,0,.04-.01.05-.02,0,0,0,0,.01,0,.02,0,.03-.01.05-.02,0,0,0,0,.01,0,.02,0,.04-.01.05-.02h0s.03-.01.05-.02c0,0,0,0,.01,0,.02,0,.04-.01.05-.02,0,0,0,0,0,0,.02,0,.04-.01.05-.02,0,0,0,0,.01,0,.04-.01.07-.03.11-.04,0,0,0,0,.01,0,.02,0,.03-.01.05-.02,0,0,0,0,0,0,.02,0,.04-.01.05-.02,0,0,0,0,.01,0,.02,0,.03-.01.05-.02h0s.04-.02.05-.02c0,0,0,0,.01,0,.01,0,.03-.01.04-.02,0,0,0,0,.01,0,.02,0,.04-.01.05-.02,0,0,0,0,0,0,.02,0,.03-.01.05-.02,0,0,0,0,.01,0,.02,0,.04-.01.05-.02h0s.04-.01.05-.02c0,0,0,0,.01,0,.02,0,.04-.01.05-.02h0s.04-.01.06-.02c0,0,0,0,.01,0,.02,0,.03-.01.05-.02,0,0,0,0,.01,0,.02,0,.04-.01.05-.02,0,0,0,0,.01,0,.02,0,.03-.01.05-.02,0,0,0,0,.01,0,.02,0,.04-.01.06-.02h0s.03-.01.05-.02c0,0,0,0,.01,0,.02,0,.04-.01.06-.02,0,0,0,0,0,0,.02,0,.04-.01.05-.02,0,0,0,0,.01,0,.04-.01.07-.03.11-.04,0,0,0,0,.01,0,.02,0,.04-.01.05-.02,0,0,0,0,0,0,.02,0,.04-.01.06-.02,0,0,0,0,0,0,.02,0,.03-.01.05-.02h0s.04-.02.06-.02c0,0,0,0,0,0,.02,0,.03-.01.05-.02,0,0,0,0,0,0,.02,0,.04-.01.06-.02,0,0,0,0,0,0,.02,0,.03-.01.05-.02,0,0,0,0,.01,0,.02,0,.04-.01.06-.02h0s.04-.01.05-.02c0,0,0,0,.01,0,.02,0,.03-.01.05-.02,0,0,0,0,0,0,.02,0,.04-.01.06-.02,0,0,0,0,.01,0,.02,0,.03-.01.05-.02,0,0,0,0,0,0,.02,0,.04-.01.06-.02,0,0,0,0,.01,0,.02,0,.03-.01.05-.02,0,0,0,0,.01,0,.02,0,.04-.01.06-.02h0s.03-.01.05-.02c0,0,0,0,.01,0,.02,0,.04-.01.05-.02,0,0,0,0,0,0,.02,0,.03-.01.05-.02,0,0,0,0,.01,0,.02,0,.04-.01.05-.02h0s.04-.01.05-.02c0,0,.01,0,.01,0,.02,0,.03-.01.05-.02,0,0,0,0,0,0,.02,0,.04-.01.06-.02,0,0,0,0,.01,0,.02,0,.03-.01.05-.02,0,0,0,0,.01,0,.02,0,.04-.01.05-.02.02,0,.04-.01.06-.02,0,0,.01,0,.01,0,.02,0,.04-.01.05-.02,0,0,0,0,0,0,.02,0,.03-.01.05-.02,0,0,0,0,.01,0,.02,0,.04-.01.06-.02h0s.04-.01.05-.02c0,0,0,0,.01,0,.02,0,.03-.01.05-.02,0,0,0,0,0,0,.02,0,.04-.01.05-.02.02,0,.04-.01.06-.02,0,0,0,0,.01,0,.02,0,.04-.01.05-.02.02,0,.04-.01.06-.02,0,0,0,0,.01,0,.02,0,.04-.01.05-.02.02,0,.04-.01.06-.02,0,0,.01,0,.01,0,.02,0,.04-.01.06-.02.02,0,.04-.01.06-.02.02,0,.04-.01.05-.02h0s.05-.02.07-.02c.02,0,.04-.01.06-.02.02,0,.05-.02.07-.02.02,0,.04-.01.06-.02.02,0,.04-.01.06-.02h0s.04-.02.06-.02c.02,0,.04-.01.06-.02.02,0,.04-.01.06-.02.02,0,.04-.01.06-.02h0s.04-.01.07-.02c.02,0,.04-.01.06-.02.02,0,.05-.02.07-.02.02,0,.03-.01.06-.02.02,0,.05-.02.07-.02.02,0,.04-.01.06-.02.02,0,.04-.01.06-.02.02,0,.04-.01.06-.02.02,0,.04-.01.06-.02.02,0,.04-.01.06-.02.02,0,.03-.01.05-.02.02,0,.05-.02.07-.02.02,0,.04-.01.06-.02.02,0,.05-.02.07-.02.02,0,.04-.01.06-.02.03,0,.04-.01.07-.02.02,0,.04-.01.06-.02.02,0,.04-.01.06-.02.02,0,.04-.01.06-.02.02,0,.03-.01.05-.02h0s.04-.02.07-.02c.02,0,.04-.01.06-.02.02,0,.05-.01.07-.02.02,0,.04-.01.06-.02.02,0,.05-.01.07-.02.02,0,.04-.01.06-.02.02,0,.04-.01.07-.02.02,0,.04-.01.06-.02.02,0,.04-.01.06-.02h0s.04-.01.07-.02c.02,0,.04-.01.06-.02.02,0,.05-.01.07-.02.02,0,.04-.01.06-.02.02,0,.05-.01.07-.02.02,0,.04-.01.06-.02.03,0,.04-.01.07-.02.02,0,.04-.01.06-.02.02,0,.04-.01.06-.02.02,0,.04-.01.06-.02.02,0,.04-.01.06-.02,58.93-18.02,121.31,15.15,139.32,74.08,0,.01,0,.03.01.04h0s0,.03,0,.04c0,0,0,.01,0,.02,0,.01,0,.02,0,.03,0,0,0,.01,0,.02,0,.01,0,.01,0,.03,0,0,0,.01,0,.02,0,0,0,.02,0,.02,0,0,0,.01,0,.02,0,0,0,.02,0,.02,0,0,0,.01,0,.02,0,0,0,.02,0,.02,0,0,0,.01,0,.02,0,0,0,.02,0,.03,0,0,0,.01,0,.02,0,0,0,.02,0,.02,0,0,0,.01,0,.02,0,0,0,.02,0,.02,0,0,0,.01,0,.02,0,0,0,.02,0,.02,0,0,0,.01,0,.02,0,.01,0,.01,0,.02,0,0,0,.01,0,.02,0,.01,0,.02,0,.03,0,0,0,.01,0,.01,0,.01,0,.02,0,.03,0,0,0,0,0,0,0,.03.02.05.03.08,0,0,0,.01,0,.02,0,.01,0,.02,0,.03,0,0,0,.01,0,.01,0,.01,0,.02,0,.03,0,0,0,.01,0,.02,0,.01,0,.02,0,.03,0,0,0,0,0,.02,0,0,0,.02,0,.02,0,0,0,.01,0,.02,0,0,0,.02,0,.02,0,0,0,.01,0,.02,0,0,0,.02,0,.02,0,0,0,.01,0,.02,0,0,0,.02,0,.02,0,0,0,.01,0,.02,0,0,0,.01,0,.02,0,0,0,.01,0,.02,0,0,0,.02,0,.02,0,0,0,.01,0,.02,0,0,0,.02,0,.03,0,0,0,.01,0,.02,0,.01,0,.02,0,.03,0,0,0,0,0,.01,0,.01,0,.02,0,.03,0,0,0,0,0,.02.01.04.02.08.04.13,0,0,0,0,0,.01,0,.01,0,.02,0,.03,0,0,0,.01,0,.02,0,.01,0,.01,0,.02,0,0,0,.01,0,.02,0,.01,0,.01,0,.03,0,0,0,.01,0,.02,0,0,0,.02,0,.03,0,0,0,.01,0,.02,0,0,0,.02,0,.02,0,0,0,.01,0,.02,0,0,0,.02,0,.02,0,0,0,.01,0,.02,0,0,0,.02,0,.02,0,0,0,.01,0,.02,0,0,0,.02,0,.02,0,0,0,.01,0,.02,0,0,0,.02,0,.02,0,0,0,.01,0,.02,0,0,0,.02,0,.02,0,0,0,.01,0,.02,0,.01,0,.01,0,.02,0,0,0,.01,0,.02,0,.01,0,.02,0,.03,0,0,0,.01,0,.01,0,.01,0,.02,0,.03,0,0,0,0,0,.01,0,.01,0,.03.01.04h0s0,.03.01.04c0,0,0,.01,0,.02,0,0,0,.02,0,.02,0,0,0,.01,0,.02,0,0,0,.02,0,.02,0,0,0,.01,0,.02,0,0,0,.01,0,.02,0,0,0,.01,0,.02,0,0,0,.01,0,.02,0,0,0,.01,0,.02,0,0,0,.01,0,.02,0,0,0,.01,0,.02,0,0,0,.02,0,.02,0,0,0,.01,0,.02,0,0,0,.02,0,.03,0,0,0,.01,0,.02,0,0,0,.02,0,.02,0,0,0,.01,0,.02,0,0,0,.02,0,.02,0,0,0,.01,0,.02,0,0,0,.02,0,.02,0,0,0,.01,0,.02,0,.01,0,.01,0,.02,0,0,0,.01,0,.02,0,.01,0,.02,0,.03,0,0,0,0,0,.01,0,.03.02.06.02.08,0,0,0,0,0,0,0,.01,0,.02,0,.03,0,0,0,.01,0,.02,0,.01,0,.01,0,.02,0,0,0,.02,0,.02,0,0,0,.02,0,.02,0,0,0,.02,0,.02,0,0,0,.02,0,.02,0,0,0,.01,0,.02,0,0,0,.01,0,.02,0,0,0,.01,0,.02,0,0,0,.01,0,.02,0,0,0,.01,0,.02,0,0,0,.01,0,.02,0,0,0,.01,0,.02,0,0,0,.02,0,.02,0,0,0,.01,0,.02,0,0,0,.01,0,.02,0,0,0,.01,0,.02,0,0,0,.01,0,.02,0,0,0,.02,0,.02,0,0,0,.02,0,.02,0,0,0,.01,0,.02,0,0,0,.01,0,.02,0,0,0,.01,0,.02,0,0,0,.01,0,.02,0,0,0,.01,0,.02,0,.01,0,.02,0,.03,0,0,0,.01,0,.02,0,.01,0,.03.01.04,0,0,0,0,0,.01,0,.01,0,.02,0,.03,0,0,0,.01,0,.02,0,0,0,.02,0,.02,0,0,0,.01,0,.02,0,0,0,.01,0,.02,0,0,0,.01,0,.02,0,0,0,.01,0,.02,0,0,0,.01,0,.02,0,0,0,.01,0,.02,0,0,0,.02,0,.02,0,0,0,.01,0,.02,0,0,0,.01,0,.02,0,0,0,.01,0,.02,0,0,0,.01,0,.02,0,0,0,.02,0,.02,0,0,0,.01,0,.02,0,0,0,.01,0,.02,0,0,0,.01,0,.02,0,0,0,.01,0,.02,0,0,0,.02,0,.02,0,0,0,.02,0,.02,0,0,0,.01,0,.02,0,0,0,.01,0,.02,0,0,0,.01,0,.02,0,0,0,.01,0,.02,0,0,0,.01,0,.02,0,0,0,.02,0,.02,0,0,0,.01,0,.02,0,.01,0,.02.01.04,0,0,0,0,0,0,0,.01,0,.02.01.04,0,0,0,.01,0,.01,0,.01,0,.02,0,.03,0,0,0,.01,0,.02,0,.01,0,.01,0,.02,0,0,0,.01,0,.02,0,0,0,.02,0,.02,0,0,0,.01,0,.02,0,0,0,.01,0,.02,0,0,0,.01,0,.02,0,0,0,.01,0,.02,0,0,0,.02,0,.02,0,0,0,.01,0,.02,0,0,0,.01,0,.02,0,0,0,.01,0,.02,0,0,0,.01,0,.02,0,0,0,.01,0,.02,0,0,0,.01,0,.02,0,0,0,.01,0,.02,0,0,0,.02,0,.02,0,0,0,.01,0,.02,0,0,0,.01,0,.02,0,.01,0,.01,0,.02,0,0,0,.01,0,.02,0,.01,0,.01,0,.03,0,0,0,0,0,.02,0,.01,0,.02,0,.03,0,.01,0,.02,0,.03,0,.01,0,.02,0,.03,0,0,0,.01,0,.02,0,.01,0,.01,0,.03,0,0,0,.01,0,.02,0,0,0,.01,0,.02,0,0,0,.01,0,.02,0,0,0,.02,0,.02,0,0,0,.02,0,.02,0,0,0,.01,0,.02,0,0,0,.01,0,.02v.02s0,.01.01.02c0,0,0,.01,0,.02,0,0,0,.01,0,.02,0,0,0,.01,0,.02,0,0,0,.02,0,.02,0,0,0,.01,0,.02,0,0,0,.01,0,.02,0,0,0,.01,0,.02,0,0,0,.01,0,.02,0,0,0,.02,0,.02,0,0,0,.01,0,.02,0,.01,0,.01,0,.02,0,0,0,.01,0,.02,0,.01,0,.01,0,.03,0,0,0,.01,0,.02,0,.01,0,.01,0,.03,0,0,0,.01,0,.02,0,.01,0,.02,0,.04,0,0,0,.01,0,.02,0,.01,0,.02,0,.03,0,0,0,0,0,.01,0,.01,0,.02,0,.03,0,0,0,.01,0,.02,0,.01,0,.01,0,.02,0,0,0,.01,0,.02,0,0,0,.02,0,.02,0,0,0,.01,0,.02,0,0,0,.02,0,.02,0,0,0,.01,0,.02,0,0,0,.01,0,.02,0,0,0,.01,0,.02,0,0,0,.01,0,.02,0,0,0,.02,0,.02,0,0,0,.01,0,.02,0,0,0,.01,0,.02,0,0,0,.01,0,.02,0,0,0,.01,0,.02,0,0,0,.01,0,.02,0,0,0,.01,0,.02,0,0,0,.01,0,.02,0,0,0,.02,0,.02,0,0,0,.02,0,.02,0,0,0,.01,0,.02,0,0,0,.01,0,.02,0,0,0,.01,0,.02,0,0,0,.01,0,.02,0,0,0,.01,0,.02,0,.01,0,.03.01.04,0,0,0,0,0,0,0,.01,0,.02,0,.03,0,0,0,0,0,.01,0,.01,0,.02,0,.03,0,0,0,.01,0,.02,0,.01,0,.01,0,.02,0,0,0,.01,0,.02,0,0,0,.02,0,.02,0,0,0,.01,0,.02,0,0,0,.02,0,.02,0,0,0,.01,0,.02,0,0,0,.01,0,.02,0,0,0,.01,0,.02,0,0,0,.01,0,.02,0,0,0,.01,0,.02,0,0,0,.01,0,.02,0,0,0,.01,0,.02,0,0,0,.02,0,.02,0,0,0,.01,0,.02,0,0,0,.01,0,.02,0,0,0,.02,0,.02,0,0,0,.01,0,.02,0,0,0,.01,0,.02,0,.01,0,.01,0,.02,0,0,0,.01,0,.02,0,.01,0,.02,0,.03,0,0,0,0,0,.02,0,.01,0,.02,0,.03,0,0,0,0,0,.01,0,.01,0,.03.01.04,0,0,0,0,0,0,0,.01,0,.02,0,.04,0,0,0,0,0,0,0,.01,0,.02,0,.03,0,0,0,.01,0,.02,0,.01,0,.02,0,.03,0,0,0,.01,0,.02,0,0,0,.02,0,.02,0,0,0,.01,0,.02,0,0,0,.02,0,.03,0,0,0,.01,0,.02,0,0,0,.02,0,.02,0,0,0,.01,0,.02,0,0,0,.02,0,.02,0,0,0,.01,0,.02,0,0,0,.01,0,.02,0,0,0,.01,0,.02,0,0,0,.02,0,.02,0,0,0,.01,0,.02,0,0,0,.02,0,.02,0,0,0,.01,0,.02,0,0,0,.01,0,.02,0,0,0,.01,0,.02,0,0,0,.02,0,.02,0,0,0,.01,0,.02,0,.01,0,.02,0,.03,0,0,0,0,0,.02,0,.01,0,.02,0,.03,0,0,0,0,0,.01,0,.01,0,.03,0,.04,0,0,0,0,0,.01,0,.01,0,.02,0,.03,0,0,0,0,0,.01,0,.01,0,.02,0,.03,0,0,0,.01,0,.02,0,.01,0,.01,0,.02,0,0,0,.01,0,.02,0,0,0,.01,0,.02,0,0,0,.01,0,.02,0,0,0,.02,0,.02,0,0,0,.01,0,.02,0,0,0,.02,0,.02,0,0,0,.01,0,.02,0,0,0,.02,0,.03,0,0,0,.01,0,.02,0,0,0,.02,0,.02,0,0,0,.01,0,.02,0,0,0,.02,0,.03,0,0,0,.01,0,.02,0,0,0,.02,0,.02,0,0,0,.01,0,.02,0,.01,0,.01,0,.02,0,0,0,.01,0,.02,0,.01,0,.01,0,.02,0,0,0,.01,0,.02,0,.01,0,.01,0,.03,0,0,0,.01,0,.02,0,.01,0,.02,0,.04,0,0,0,0,0,0,0,.01,0,.03,0,.04,0,0,0,0,0,0,0,.01,0,.02,0,.04,0,0,0,0,0,.01,0,.01,0,.02,0,.03,0,0,0,0,0,.01,0,.01,0,.02,0,.03,0,0,0,.01,0,.02,0,0,0,.02,0,.02,0,0,0,.01,0,.02,0,0,0,.02,0,.02,0,0,0,.01,0,.02,0,0,0,.01,0,.02,0,0,0,.01,0,.02,0,0,0,.01,0,.02,0,0,0,.01,0,.02,0,0,0,.01,0,.02,0,0,0,.01,0,.02,0,0,0,.02,0,.02,0,0,0,.01,0,.02,0,0,0,.01,0,.02,0,0,0,.01,0,.02,0,0,0,.01,0,.02,0,0,0,.01,0,.02,0,0,0,.01,0,.02,0,0,0,.01,0,.02,0,0,0,.01,0,.02,0,0,0,.01,0,.02,0,0,0,0,0,0,0,.02,0,.03.01.04,0,.01,0,.02,0,.03,0,0,0,.01,0,.02,0,.01,0,.02,0,.03,0,0,0,.01,0,.02,0,.01,0,.01,0,.02,0,0,0,.01,0,.02,0,.01,0,.01,0,.02,0,0,0,.01,0,.02,0,0,0,.01,0,.02,0,0,0,.01,0,.02,0,0,0,.01,0,.02,0,0,0,.01,0,.02,0,0,0,.01,0,.02,0,0,0,.02,0,.02,0,0,0,.01,0,.02,0,0,0,.01,0,.02,0,0,0,.01,0,.02,0,0,0,.01,0,.02,0,0,0,.02,0,.02,0,0,0,.01,0,.02,0,0,0,.02,0,.02,0,0,0,.02,0,.02,0,0,0,.02,0,.02,0,0,0,.02,0,.02,0,0,0,.01,0,.02,0,0,0,.01,0,.02,0,0,0,.02,0,.02,0,0,0,.01,0,.02,0,0,0,0,0,.02,0,.02,0,.03,0,.05,0,0,0,.01,0,.02,0,0,0,0,0,.01,0,.01,0,.02,0,.03,0,0,0,0,0,.01,0,.01,0,.02,0,.03,0,0,0,.01,0,.02,0,0,0,.02,0,.02,0,0,0,.01,0,.02,0,0,0,.01,0,.02,0,0,0,.01,0,.02,0,0,0,.02,0,.02,0,0,0,.01,0,.02,0,0,0,.01,0,.02,0,0,0,.01,0,.02,0,0,0,.01,0,.02,0,0,0,.02,0,.02,0,0,0,.01,0,.02,0,0,0,.02,0,.02,0,0,0,.01,0,.02,0,0,0,.01,0,.02,0,0,0,.01,0,.02,0,0,0,.01,0,.02,0,0,0,.01,0,.02,0,0,0,.01,0,.02,0,.01,0,.01,0,.02,0,0,0,.01,0,.02,0,.01,0,.02,0,.03,0,0,0,.01,0,.02,0,.01,0,.03,0,.04,0,0,0,0,0,.01,0,.01,0,.02,0,.03,0,0,0,.01,0,.02,0,0,0,.02,0,.02,0,0,0,.01,0,.02,0,.01,0,.01,0,.02,0,0,0,.01,0,.02,0,0,0,.01,0,.02,0,0,0,.01,0,.02,0,0,0,.01,0,.02,0,0,0,.01,0,.02,0,0,0,.01,0,.02,0,0,0,.01,0,.02,0,0,0,.01,0,.02,0,0,0,.01,0,.02,0,0,0,.01,0,.02,0,0,0,.01,0,.02,0,0,0,.01,0,.02,0,0,0,.01,0,.02,0,0,0,.02,0,.02,0,0,0,.01,0,.02,0,0,0,.02,0,.02,0,0,0,.01,0,.02,0,.01,0,.01,0,.02,0,0,0,.01,0,.02,0,0,0,.02,0,.02,0,0,0,.01,0,.02,0,.01,0,.02,0,.03,0,0,0,0,0,.01,0,.01,0,.03,0,.04,0,0,0,0,0,0,0,.01,0,.02,0,.03,0,0,0,0,0,.01,0,.01,0,.02,0,.03,0,0,0,.01,0,.02,0,.01,0,.01,0,.02,0,0,0,.01,0,.02,0,0,0,.02,0,.02,0,0,0,.01,0,.02,0,0,0,.02,0,.02,0,0,0,.01,0,.02,0,0,0,.02,0,.02,0,0,0,.01,0,.02,0,0,0,.01,0,.02,0,0,0,.01,0,.02,0,0,0,.01,0,.02,0,0,0,.02,0,.02,0,0,0,.01,0,.02,0,0,0,.01,0,.02,0,0,0,.01,0,.02,0,0,0,.02,0,.02,0,0,0,.01,0,.02,0,0,0,.02,0,.02,0,0,0,.01,0,.02,0,.01,0,.02,0,.03,0,0,0,0,0,.01,0,.01,0,.02,0,.03,0,0,0,0,0,.02,0,.03.01.07.02.1,0,0,0,0,0,0,0,0,0,.01,0,.02,0,0,0,.01,0,.02,0,0,0,.02,0,.02,0,0,0,.02,0,.02,0,0,0,.02,0,.02,0,0,0,.01,0,.02,0,0,0,.02,0,.02,0,0,0,.01,0,.02,0,0,0,.01,0,.02,0,0,0,.01,0,.02,0,0,0,.02,0,.02,0,0,0,.01,0,.02,0,0,0,.02,0,.02,0,0,0,.01,0,.02,0,0,0,.01,0,.02,0,0,0,.01,0,.02,0,0,0,.01,0,.02,0,0,0,.01,0,.02,0,0,0,.02,0,.02,0,0,0,.01,0,.02,0,0,0,.02,0,.02,0,0,0,.01,0,.02,0,0,0,.02,0,.02,0,0,0,.01,0,.02,0,0,0,.02,0,.02,0,.01,0,.02,0,.03,0,0,0,0,0,.01,0,.01,0,.03,0,.04,0,0,0,.01,0,.02,0,0,0,.01,0,.02,0,0,0,.01,0,.02,0,.01,0,.01,0,.02,0,0,0,.01,0,.02,0,.01,0,.01,0,.02,0,0,0,.02,0,.02,0,0,0,.02,0,.02,0,0,0,.02,0,.02,0,0,0,.01,0,.02,0,0,0,.01,0,.02,0,0,0,.01,0,.02,0,0,0,.01,0,.02,0,0,0,.01,0,.02,0,0,0,.01,0,.02,0,0,0,.01,0,.02,0,0,0,.01,0,.02,0,0,0,.02,0,.02,0,0,0,.01,0,.02,0,0,0,.02,0,.02,0,0,0,.01,0,.02,0,0,0,.01,0,.02,0,0,0,.01,0,.02,0,0,0,.01,0,.02,0,0,0,.01,0,.02,0,.01,0,.01,0,.02,0,0,0,.01,0,.02,0,.01,0,.02,0,.03,0,0,0,.02,0,.02,0,.01,0,.02,0,.03,0,0,0,.01,0,.02,0,0,0,.01,0,.02,0,0,0,.01,0,.02,0,0,0,.01,0,.02,0,0,0,.01,0,.02,0,0,0,.01,0,.02,0,0,0,.01,0,.02,0,0,0,.01,0,.02,0,0,0,.01,0,.02,0,0,0,.01,0,.02,0,0,0,.02,0,.02,0,0,0,.01,0,.02,0,0,0,.02,0,.02,0,0,0,.01,0,.02,0,0,0,.02,0,.02,0,0,0,.01,0,.02,0,0,0,.01,0,.02,0,0,0,.01,0,.02,0,0,0,.01,0,.02,0,0,0,.01,0,.02,0,0,0,.01,0,.02,0,0,0,.02,0,.02,0,0,0,.02,0,.02,0,0,0,.01,0,.02,0,0,0,.01,0,.02,0,0,0,.01,0,.02,0,0,0,.01,0,.02,0,.01,0,.02,0,.03,0,0,0,0,0,0,0,.01,0,.03,0,.04,0,0,0,0,0,.01,0,.01,0,.02,0,.03,0,0,0,.01,0,.01,0,.01,0,.02,0,.03,0,0,0,.01,0,.02,0,0,0,.02,0,.02,0,0,0,.01,0,.02,0,0,0,.01,0,.02,0,0,0,.01,0,.02,0,0,0,.01,0,.02,0,0,0,.01,0,.02,0,0,0,.01,0,.02,0,0,0,.02,0,.02,0,0,0,.01,0,.02,0,0,0,.02,0,.02,0,0,0,.01,0,.02,0,0,0,.02,0,.02,0,0,0,.01,0,.02,0,0,0,.01,0,.02,0,0,0,.01,0,.02,0,0,0,.02,0,.02,0,0,0,.02,0,.02,0,0,0,.02,0,.02,0,0,0,.01,0,.02,0,0,0,.02,0,.02,0,0,0,0,0,.01,0,.01,0,.02,0,.03,0,0,0,0,0,0,0,.03.01.07.02.1,0,0,0,0,0,.01,0,0,0,.01,0,.02,0,0,0,.01,0,.02,0,0,0,.02,0,.02,0,0,0,.01,0,.02,0,0,0,.02,0,.03,0,0,0,.01,0,.01,0,0,0,.02,0,.03,0,0,0,.01,0,.02,0,0,0,.02,0,.03,0,0,0,.01,0,.02,0,0,0,.02,0,.02,0,0,0,0,0,.02,0,.01,0,.02,0,.03,0,0,0,.01,0,.01,0,0,0,.02,0,.03,0,0,0,.01,0,.02,0,0,0,.02,0,.02,0,0,0,.02,0,.02,0,0,0,.02,0,.02,0,0,0,.01,0,.02,0,0,0,.02,0,.03,0,0,0,.01,0,.01,0,0,0,.02,0,.03,0,0,0,0,0,.01,0,.05.02.09.02.14,0,0,0,0,0,.01,0,0,0,.02,0,.02,0,0,0,.01,0,.02,0,0,0,.02,0,.02,0,0,0,.01,0,.02,0,0,0,.02,0,.02,0,0,0,.01,0,.02,0,0,0,.02,0,.02,0,0,0,.01,0,.02,0,0,0,.02,0,.02,0,0,0,.01,0,.02,0,0,0,.02,0,.02,0,0,0,.01,0,.02,0,0,0,.02,0,.02,0,0,0,0,0,.02,0,0,0,.02,0,.03,0,0,0,.01,0,.02,0,0,0,.02,0,.03,0,0,0,.01,0,.02,0,0,0,.02,0,.03,0,0,0,.01,0,.01,0,.01,0,.02,0,.03,0,0,0,0,0,.01,0,.01,0,.02,0,.03h0s0,.03,0,.04h0s0,.05.01.07c0,0,0,0,0,.01,0,.01,0,.02,0,.03,0,0,0,0,0,.01,0,0,0,.02,0,.02,0,0,0,.01,0,.02,0,0,0,.02,0,.02,0,0,0,.01,0,.02,0,0,0,.02,0,.02,0,0,0,.01,0,.02,0,0,0,.02,0,.02,0,0,0,.01,0,.02,0,0,0,.01,0,.02,0,0,0,.01,0,.02,0,0,0,.02,0,.02,0,0,0,.01,0,.02,0,0,0,.02,0,.02,0,0,0,.01,0,.02,0,0,0,.02,0,.02,0,0,0,.01,0,.02,0,0,0,.02,0,.02,0,0,0,.01,0,.02,0,0,0,.02,0,.02,0,0,0,.01,0,.02,0,0,0,.02,0,.02,0,0,0,.01,0,.02,0,0,0,.02,0,.02,0,0,0,.01,0,.02,0,0,0,.02,0,.02,0,.01,0,.03,0,.04,0,0,0,0,0,.01,0,.01,0,.02,0,.03,0,0,0,.01,0,.02,0,.01,0,.01,0,.02,0,0,0,.01,0,.02,0,.01,0,.01,0,.02,0,0,0,.01,0,.02,0,0,0,.01,0,.02,0,0,0,.01,0,.02,0,0,0,.01,0,.02,0,0,0,.01,0,.02,0,0,0,.01,0,.02,0,0,0,.01,0,.02,0,0,0,.01,0,.02,0,0,0,.02,0,.02,0,0,0,.01,0,.02,0,0,0,.01,0,.02,0,0,0,.01,0,.02,0,0,0,.01,0,.02,0,0,0,.01,0,.02,0,0,0,.01,0,.02,0,0,0,.01,0,.02,0,.01,0,.02,0,.03,0,0,0,0,0,.01,0,.01,0,.02,0,.03,0,0,0,0,0,.01,0,.01,0,.02,0,.03,0,0,0,0,0,.01,0,.03.01.07.01.1,0,0,0,0,0,.01,0,0,0,.02,0,.03,0,0,0,0,0,.02,0,0,0,.02,0,.02,0,0,0,.01,0,.02,0,0,0,.02,0,.03,0,0,0,.01,0,.02,0,0,0,.02,0,.03,0,0,0,.01,0,.02,0,0,0,.02,0,.02,0,0,0,.01,0,.02,0,0,0,.02,0,.02,0,0,0,.01,0,.02,0,0,0,.02,0,.03,0,0,0,0,0,.01,0,.01,0,.02,0,.03,0,0,0,.01,0,.01,0,0,0,.02,0,.03,0,0,0,.01,0,.01,0,0,0,.02,0,.03,0,0,0,.01,0,.02,0,.01,0,.02,0,.03h0c0,.07.02.14.03.2,0,0,0,0,0,0,0,.01,0,.02,0,.03,0,0,0,0,0,.01,0,0,0,.02,0,.02,0,0,0,.02,0,.02,0,0,0,.02,0,.02,0,0,0,.01,0,.02,0,0,0,.02,0,.03,0,0,0,.01,0,.01,0,.01,0,.02,0,.03,0,0,0,0,0,.01,0,0,0,.02,0,.03,0,0,0,0,0,.01,0,.01,0,.02,0,.03,0,0,0,.01,0,.01,0,0,0,.02,0,.03,0,0,0,0,0,.01,0,0,0,.02,0,.03,0,0,0,0,0,.01,0,0,0,.02,0,.03,0,0,0,.01,0,.02,0,.01,0,.02,0,.03,0,0,0,0,0,.01,0,.01,0,.02,0,.03,0,0,0,0,0,0,0,.05.01.1.02.15,0,0,0,0,0,0,0,.01,0,.02,0,.03,0,0,0,0,0,.01,0,.01,0,.02,0,.03,0,0,0,.01,0,.02,0,0,0,.02,0,.03,0,0,0,.01,0,.01,0,0,0,.02,0,.03,0,0,0,.01,0,.01,0,.01,0,.02,0,.03,0,0,0,0,0,.01,0,.01,0,.02,0,.03,0,0,0,0,0,.01,0,.01,0,.02,0,.03,0,0,0,0,0,.01,0,0,0,.02,0,.03,0,0,0,.01,0,.01,0,0,0,.02,0,.03,0,0,0,.01,0,.01,0,0,0,.02,0,.03,0,0,0,.01,0,.02,0,.01,0,.02,0,.03,0,0,0,0,0,.01,0,.01,0,.02,0,.03,0,0,0,0,0,.01,0,.05.01.1.02.14,0,0,0,0,0,.01,0,.01,0,.02,0,.03,0,0,0,.01,0,.01,0,0,0,.02,0,.03,0,0,0,.01,0,.02,0,0,0,.02,0,.03,0,0,0,.01,0,.02,0,0,0,.02,0,.03,0,0,0,0,0,.02,0,0,0,.02,0,.03,0,0,0,0,0,.01,0,.01,0,.02,0,.03,0,0,0,0,0,.01,0,.01,0,.02,0,.03,0,0,0,0,0,.01,0,0,0,.02,0,.03,0,0,0,.01,0,.02,0,0,0,.02,0,.03,0,0,0,.01,0,.02,0,0,0,.02,0,.03,0,0,0,.01,0,.02,0,.01,0,.02,0,.03,0,0,0,0,0,.01,0,.01,0,.02,0,.03,0,0,0,0,0,.01,0,.05.01.1.02.14,0,0,0,0,0,.01,0,.01,0,.02,0,.03,0,0,0,.01,0,.01,0,0,0,.02,0,.02,0,0,0,.02,0,.02,0,0,0,.01,0,.02,0,0,0,.01,0,.02,0,0,0,.02,0,.02,0,0,0,.01,0,.02,0,0,0,.02,0,.02,0,0,0,0,0,.02,0,0,0,.02,0,.02,0,0,0,.01,0,.02,0,0,0,.02,0,.02,0,0,0,.01,0,.02,0,0,0,.02,0,.03,0,0,0,.01,0,.01,0,0,0,.02,0,.03,0,0,0,.01,0,.02,0,0,0,.02,0,.03,0,0,0,.01,0,.02,0,0,0,.02,0,.03h0s0,.03,0,.04c0,0,0,0,0,0,0,.05.01.1.02.16h0s0,.03,0,.04c0,0,0,0,0,.01,0,.01,0,.02,0,.03,0,0,0,.01,0,.02,0,0,0,.02,0,.03,0,0,0,.01,0,.01,0,0,0,.02,0,.03,0,0,0,.01,0,.02,0,0,0,.02,0,.03,0,0,0,0,0,.02,0,0,0,.02,0,.03,0,0,0,0,0,.02,0,0,0,.02,0,.03,0,0,0,.01,0,.02,0,0,0,.02,0,.03,0,0,0,.01,0,.01,0,0,0,.02,0,.03,0,0,0,0,0,.01,0,0,0,.02,0,.03,0,0,0,.01,0,.02,0,.01,0,.02,0,.03h0s0,.03,0,.04c0,0,0,0,0,0,0,.04,0,.07.01.11,0,0,0,0,0,0,0,.01,0,.02,0,.03,0,0,0,0,0,.01,0,.01,0,.02,0,.03,0,0,0,.01,0,.01,0,0,0,.02,0,.03,0,0,0,.01,0,.02,0,0,0,.01,0,.02,0,0,0,.01,0,.02,0,0,0,.02,0,.02,0,0,0,.01,0,.02,0,0,0,.02,0,.02,0,0,0,0,0,.02,0,0,0,.02,0,.02,0,0,0,.01,0,.02,0,0,0,.02,0,.02,0,0,0,.01,0,.02,0,0,0,.02,0,.03,0,0,0,.01,0,.02,0,0,0,.02,0,.03,0,0,0,.01,0,.01,0,0,0,.02,0,.03,0,0,0,.01,0,.01,0,.01,0,.02,0,.03,0,0,0,0,0,0,0,.05.01.1.02.15,0,0,0,0,0,0,0,.01,0,.02,0,.03,0,0,0,0,0,.01,0,.01,0,.02,0,.03,0,0,0,.01,0,.01,0,0,0,.02,0,.03,0,0,0,.01,0,.02,0,0,0,.02,0,.03,0,0,0,.01,0,.02,0,0,0,.02,0,.03,0,0,0,0,0,.02,0,.01,0,.02,0,.03t0,.01s0,.02,0,.03c0,0,0,0,0,.02,0,0,0,.02,0,.03,0,0,0,.01,0,.01,0,0,0,.02,0,.03,0,0,0,0,0,.01,0,.01,0,.02,0,.03,0,0,0,0,0,.01,0,.01,0,.02,0,.03,0,0,0,0,0,.01,0,.08.02.15.02.23h0s0,.03,0,.04c0,0,0,0,0,0,0,.01,0,.02,0,.03,0,0,0,0,0,.01,0,.01,0,.02,0,.03,0,0,0,0,0,.01,0,.01,0,.02,0,.03,0,0,0,0,0,.01,0,.01,0,.02,0,.03,0,0,0,0,0,.01,0,.01,0,.02,0,.03,0,0,0,0,0,.01,0,.01,0,.02,0,.03,0,0,0,0,0,0,0,.01,0,.02,0,.03,0,0,0,0,0,.01,0,.01,0,.02,0,.03,0,0,0,0,0,0,0,.01,0,.02,0,.03h0c0,.09.02.16.02.24h0s0,.03,0,.04h0s0,.03,0,.04c0,0,0,0,0,.01,0,.01,0,.02,0,.03,0,0,0,0,0,0,0,.01,0,.02,0,.03,0,0,0,0,0,0,0,.01,0,.02,0,.03h0s0,.03,0,.04c0,0,0,0,0,0,0,.01,0,.02,0,.03,0,0,0,0,0,0,0,.01,0,.02,0,.03,0,0,0,0,0,0,0,.01,0,.02,0,.03h0s0,.03,0,.04h0c0,.09.01.16.02.24h0s0,.03,0,.04c0,0,0,0,0,0,0,.01,0,.02,0,.03,0,0,0,.01,0,.01,0,0,0,.02,0,.03,0,0,0,.01,0,.01,0,.01,0,.02,0,.03,0,0,0,0,0,.01,0,.01,0,.02,0,.03,0,0,0,0,0,.01,0,.01,0,.02,0,.03,0,0,0,0,0,.01,0,.01,0,.02,0,.03,0,0,0,0,0,.01,0,.01,0,.02,0,.03,0,0,0,0,0,.01,0,.01,0,.02,0,.03,0,0,0,0,0,.01,0,.01,0,.02,0,.03h0c0,.09.01.16.02.24,0,0,0,0,0,0,0,.01,0,.02,0,.03,0,0,0,0,0,.01,0,0,0,.02,0,.03,0,0,0,.01,0,.02,0,0,0,.02,0,.03,0,0,0,.01,0,.01,0,.01,0,.02,0,.03,0,0,0,0,0,.01,0,.01,0,.02,0,.03,0,0,0,0,0,.01,0,.01,0,.02,0,.03,0,0,0,0,0,.01,0,.01,0,.02,0,.03,0,0,0,0,0,0,0,.01,0,.02,0,.03,0,0,0,0,0,0,0,.01,0,.02,0,.03h0s0,.03,0,.04h0c0,.08.01.16.02.24h0s0,.03,0,.04c0,0,0,0,0,.01,0,0,0,.02,0,.03,0,0,0,.01,0,.01,0,0,0,.02,0,.03,0,0,0,.01,0,.01,0,.01,0,.02,0,.03,0,0,0,0,0,.01,0,.01,0,.02,0,.03,0,0,0,0,0,.01,0,.01,0,.02,0,.03,0,0,0,0,0,.01,0,0,0,.02,0,.03,0,0,0,0,0,.01,0,.01,0,.02,0,.03,0,0,0,0,0,0,0,.01,0,.02,0,.03h0s0,.03,0,.04h0c0,.08.01.16.02.24h0s0,.03,0,.04c0,0,0,0,0,.01,0,0,0,.02,0,.03,0,0,0,.01,0,.01,0,.01,0,.02,0,.03,0,0,0,0,0,.01,0,.01,0,.02,0,.03,0,0,0,0,0,.01,0,.01,0,.02,0,.03,0,0,0,0,0,0,0,.01,0,.02,0,.03,0,0,0,0,0,.01,0,.01,0,.02,0,.03,0,0,0,0,0,0,0,.01,0,.02,0,.04h0c0,.1.01.19.02.28h0s0,.03,0,.04h0s0,.03,0,.04c0,0,0,0,0,0,0,.01,0,.02,0,.03,0,0,0,0,0,.01,0,.01,0,.02,0,.03,0,0,0,0,0,.01,0,.01,0,.02,0,.03,0,0,0,0,0,.01,0,.01,0,.02,0,.03,0,0,0,0,0,.01,0,.01,0,.02,0,.03,0,0,0,0,0,.01,0,.01,0,.02,0,.03,0,0,0,0,0,.01,0,.01,0,.02,0,.03,0,0,0,0,0,0,0,.01,0,.02,0,.03h0c0,.08.01.16.01.24h0s0,.03,0,.04h0s0,.03,0,.04c0,0,0,0,0,.01,0,0,0,.02,0,.03,0,0,0,0,0,.01,0,.01,0,.02,0,.03,0,0,0,0,0,0,0,.01,0,.02,0,.03,0,0,0,0,0,.01,0,.01,0,.02,0,.03,0,0,0,0,0,.01,0,.01,0,.02,0,.03,0,0,0,0,0,.01,0,.01,0,.02,0,.03,0,0,0,0,0,0,0,.01,0,.02,0,.03h0s0,.03,0,.04h0c0,.08,0,.16.01.24h0s0,.02,0,.04c0,0,0,0,0,0,0,.01,0,.02,0,.03,0,0,0,0,0,0,0,.01,0,.02,0,.03,0,0,0,0,0,.01,0,.01,0,.02,0,.03,0,0,0,0,0,0,0,.01,0,.02,0,.03h0s0,.03,0,.04c0,0,0,0,0,0,0,.01,0,.02,0,.03,0,0,0,0,0,0,0,.01,0,.02,0,.03,0,0,0,0,0,0,0,.12.01.24.02.36h0s0,.03,0,.04c0,0,0,0,0,0,0,.01,0,.02,0,.03,0,0,0,0,0,.01,0,.01,0,.02,0,.03,0,0,0,0,0,0,0,.01,0,.02,0,.03h0s0,.03,0,.04c0,0,0,0,0,0,0,.01,0,.02,0,.03,0,0,0,0,0,.01,0,.01,0,.02,0,.03,0,0,0,0,0,0,0,.01,0,.02,0,.04h0c0,.11,0,.21.01.32h0s0,.03,0,.04c0,0,0,0,0,0,0,.01,0,.02,0,.03,0,0,0,0,0,0,0,.01,0,.02,0,.03h0s0,.03,0,.04h0s0,.03,0,.04c0,0,0,0,0,0,0,.01,0,.02,0,.04,0,0,0,0,0,0,0,.01,0,.02,0,.04h0s0,.03,0,.04h0c0,.09,0,.19.01.28h0s0,.02,0,.04c0,0,0,0,0,0,0,.01,0,.02,0,.03,0,0,0,0,0,0,0,.01,0,.02,0,.03,0,0,0,0,0,.01,0,.01,0,.02,0,.03,0,0,0,0,0,0,0,.01,0,.02,0,.03,0,0,0,0,0,0,0,.01,0,.02,0,.03,0,0,0,0,0,0,0,.01,0,.02,0,.03,0,0,0,0,0,0,0,.13,0,.27.01.4h0s0,.03,0,.04c0,0,0,0,0,0,0,.01,0,.02,0,.03,0,0,0,0,0,0,0,.01,0,.02,0,.03h0s0,.03,0,.04h0s0,.03,0,.04c0,0,0,0,0,0,0,.01,0,.02,0,.03,0,0,0,0,0,0,0,.13,0,.27.01.4h0s0,.03,0,.04c0,0,0,0,0,0,0,.01,0,.02,0,.03,0,0,0,0,0,0,0,.01,0,.02,0,.03h0s0,.03,0,.04c0,0,0,0,0,0,0,.01,0,.02,0,.03,0,0,0,0,0,0,0,.01,0,.02,0,.03,0,0,0,0,0,0,0,.01,0,.02,0,.04h0c0,.12,0,.24,0,.36h0s0,.03,0,.04c0,0,0,0,0,0,0,.01,0,.03,0,.04h0s0,.03,0,.04h0s0,.03,0,.04h0s0,.03,0,.04c0,0,0,0,0,0,0,.01,0,.02,0,.04,0,0,0,0,0,0,0,.13,0,.27,0,.4h0s0,.03,0,.04c0,0,0,0,0,0,0,.01,0,.02,0,.03,0,0,0,0,0,0,0,.01,0,.02,0,.03h0s0,.03,0,.04c0,0,0,0,0,0,0,.01,0,.02,0,.03,0,0,0,0,0,0,0,.01,0,.02,0,.03,0,0,0,0,0,0,0,.1,0,.21,0,.31h0s0,.03,0,.04h0s0,.03,0,.04c0,0,0,0,0,0,0,.01,0,.02,0,.04,0,0,0,0,0,0,0,.01,0,.02,0,.03,0,0,0,0,0,0,0,.01,0,.02,0,.03h0s0,.03,0,.04h0s0,.03,0,.04c0,0,0,0,0,0,0,.01,0,.02,0,.04h0c0,.14,0,.27,0,.4,0,0,0,0,0,0,0,.01,0,.02,0,.04,0,0,0,0,0,0,0,.01,0,.02,0,.03,0,0,0,0,0,0,0,.01,0,.02,0,.03h0s0,.03,0,.04h0s0,.03,0,.04h0s0,.03,0,.04h0c0,.16,0,.32,0,.48h0c0,.19,0,.38,0,.56h0s0,.03,0,.04h0s0,.03,0,.04h0s0,.03,0,.04h0s0,.03,0,.04c0,0,0,0,0,0,0,.19,0,.37,0,.56h0c0,.18,0,.35,0,.52h0s0,.05,0,.08h0s0,.03,0,.04h0s0,.03,0,.04h0s0,.03,0,.04c0,0,0,0,0,0,0,.19,0,.37-.01.56h0s0,.03,0,.04h0s0,.03,0,.04c0,0,0,0,0,0,0,.16,0,.32-.01.48h0s0,.03,0,.04h0s0,.03,0,.04h0c0,.22-.01.43-.02.64h0c0,.21-.02.43-.03.64h0c-.02.43-.04.85-.06,1.28h0c-.02.43-.05.85-.08,1.28h0c-.26,3.8-.7,7.56-1.34,11.28h0c-.38,2.21-.82,4.41-1.33,6.58h0c-.05.21-.1.41-.15.61h0s0,.03,0,.04h0s0,.02,0,.04h0s0,.03,0,.04h0s0,.03,0,.04h0c-.04.15-.07.3-.11.46,0,0,0,0,0,0,0,.01,0,.02,0,.03h0s0,.03,0,.04h0s0,.03,0,.04h0s0,.02,0,.04c0,0,0,0,0,0-.04.15-.08.3-.11.45,0,0,0,0,0,0,0,.01,0,.02,0,.04h0s0,.03,0,.04h0s0,.03,0,.04h0s0,.02,0,.04c0,0,0,0,0,0,0,.01,0,.02,0,.04h0c-.04.14-.07.28-.11.42,0,0,0,0,0,0,0,.01,0,.02,0,.03h0s0,.03,0,.04h0s0,.03,0,.04h0s0,.03,0,.04c0,0,0,0,0,0,0,.01,0,.02,0,.03h0s0,.03,0,.04h0c-.03.1-.05.2-.08.3h0s0,.03,0,.04c0,0,0,0,0,0,0,.01,0,.02,0,.03,0,0,0,0,0,0,0,0,0,.02,0,.03h0s0,.03,0,.04h0s0,.03,0,.04c0,0,0,0,0,0,0,0,0,.02,0,.03,0,0,0,0,0,0,0,.01,0,.02,0,.03,0,0,0,0,0,0,0,.01,0,.02,0,.03h0c-.03.1-.05.2-.08.3,0,0,0,0,0,0,0,.01,0,.02,0,.03,0,0,0,0,0,0,0,0,0,.02,0,.03,0,0,0,0,0,.01,0,0,0,.02,0,.03,0,0,0,0,0,0,0,0,0,.02,0,.03h0s0,.03,0,.04c0,0,0,0,0,0,0,0,0,.02,0,.03,0,0,0,0,0,.01,0,.01,0,.02,0,.03,0,0,0,0,0,0,0,.01,0,.02,0,.03h0s0,.03,0,.04h0c-.02.09-.05.18-.07.26h0s0,.03,0,.04c0,0,0,0,0,0,0,.01,0,.02,0,.03,0,0,0,0,0,0,0,0,0,.02,0,.03,0,0,0,0,0,0,0,0,0,.02,0,.03h0s0,.03,0,.04c0,0,0,0,0,0,0,0,0,.02,0,.03,0,0,0,0,0,0,0,.01,0,.02,0,.03,0,0,0,0,0,0,0,.01,0,.02,0,.03h0c-.03.1-.06.2-.08.3h0s0,.03,0,.04c0,0,0,0,0,0,0,.01,0,.02,0,.03,0,0,0,0,0,.01,0,0,0,.02,0,.03,0,0,0,0,0,0,0,0,0,.02,0,.03,0,0,0,0,0,.01,0,0,0,.02,0,.03,0,0,0,0,0,0,0,0,0,.02,0,.03,0,0,0,0,0,0,0,.01,0,.02,0,.03,0,0,0,0,0,0,0,.01,0,.02,0,.03,0,0,0,0,0,0,0,.01,0,.02,0,.03h0s0,.03-.01.04h0c-.01.05-.03.1-.04.15h0s0,.02,0,.03h0s0,.02,0,.03c0,0,0,0,0,.01,0,0,0,.02,0,.03,0,0,0,0,0,.01,0,0,0,.02,0,.02,0,0,0,0,0,.01,0,0,0,.02,0,.03,0,0,0,0,0,.01,0,0,0,.02,0,.03,0,0,0,0,0,.01,0,0,0,.02,0,.03,0,0,0,0,0,.01,0,0,0,.02,0,.03,0,0,0,0,0,.01,0,0,0,.02,0,.03,0,0,0,0,0,0,0,.01,0,.02,0,.03,0,0,0,0,0,.01,0,0,0,.02,0,.03,0,0,0,0,0,0,0,0,0,.02,0,.03,0,0,0,0,0,0-.01.05-.03.09-.04.14h0s0,.03-.01.04h0s0,.02,0,.03c0,0,0,0,0,0,0,0,0,.02,0,.03,0,0,0,0,0,0,0,0,0,.02,0,.03,0,0,0,0,0,.01,0,0,0,.02,0,.03,0,0,0,0,0,.01,0,0,0,.02,0,.03,0,0,0,0,0,.01,0,0,0,.02,0,.03,0,0,0,0,0,.01,0,0,0,.02,0,.03,0,0,0,.01,0,.01,0,0,0,.02,0,.03,0,0,0,0,0,0,0,.01,0,.02,0,.03h0s0,.03,0,.04c0,0,0,0,0,0,0,.01,0,.02,0,.03,0,0,0,0,0,0-.01.03-.02.07-.03.1,0,0,0,0,0,0,0,0,0,.02,0,.03,0,0,0,0,0,.01,0,0,0,.02,0,.03h0s0,.03,0,.04c0,0,0,0,0,.01,0,0,0,.02,0,.03,0,0,0,0,0,.01,0,0,0,.02,0,.02,0,0,0,0,0,.01,0,0,0,.02,0,.02,0,0,0,0,0,.01,0,0,0,.02,0,.02,0,0,0,0,0,.01,0,0,0,.02,0,.02,0,0,0,.01,0,.01,0,0,0,.02,0,.02,0,0,0,.01,0,.01,0,0,0,.02,0,.02,0,0,0,.01,0,.01,0,0,0,.02,0,.02,0,0,0,0,0,.01,0,0,0,.02,0,.03,0,0,0,0,0,0,0,.01,0,.02,0,.03,0,0,0,0,0,0-.01.03-.02.07-.03.1,0,0,0,0,0,0,0,0,0,.02,0,.03,0,0,0,0,0,.01,0,0,0,.02,0,.03,0,0,0,0,0,0,0,0,0,.02,0,.03,0,0,0,0,0,.01,0,0,0,.02,0,.03,0,0,0,0,0,0,0,0,0,.02,0,.03,0,0,0,0,0,.01,0,0,0,.02,0,.03,0,0,0,0,0,.01,0,0,0,.02,0,.03,0,0,0,0,0,.01,0,0,0,.02,0,.03,0,0,0,0,0,.01,0,0,0,.02,0,.03,0,0,0,.01,0,.01,0,0,0,.02,0,.02,0,0,0,.01,0,.02,0,0,0,.02,0,.02,0,0,0,.01,0,.01,0,0,0,.02,0,.02,0,0,0,0,0,.01,0,.03-.02.06-.03.09,0,0,0,0,0,.01,0,0,0,.02,0,.03,0,0,0,0,0,.01,0,0,0,.02,0,.02,0,0,0,.01,0,.01,0,0,0,.02,0,.02,0,0,0,.01,0,.02,0,0,0,.01,0,.02,0,0,0,.01,0,.02,0,0,0,.02,0,.02,0,0,0,0,0,.02,0,0,0,.01,0,.02,0,0,0,.01,0,.02,0,0,0,.02,0,.02,0,0,0,0,0,.02,0,0,0,.01,0,.02,0,0,0,.01,0,.02,0,0,0,.01,0,.02,0,0,0,.01,0,.02,0,0,0,.01,0,.02,0,0,0,.01,0,.02,0,0,0,.01,0,.02,0,0,0,.01,0,.02,0,0,0,.01,0,.02,0,.01,0,.02,0,.03,0,0,0,.01,0,.01,0,.03-.02.05-.02.08,0,0,0,0,0,.01,0,.01,0,.02,0,.03,0,0,0,0,0,.01,0,.01,0,.01,0,.02,0,0,0,.01,0,.02,0,0,0,.01,0,.02,0,0,0,.01,0,.02,0,0,0,.01,0,.02,0,0,0,.01,0,.02,0,0,0,.01,0,.02,0,0,0,.01,0,.02,0,0,0,.01,0,.02,0,0,0,.01,0,.02,0,0,0,.01,0,.02,0,0,0,.01,0,.02v.02s-.01.01-.01.02c0,0,0,.01,0,.02,0,0,0,.01,0,.02,0,0,0,.01,0,.02,0,0,0,.01,0,.02,0,0,0,.02,0,.02,0,0,0,.01,0,.02,0,0,0,.01,0,.02,0,0,0,.01,0,.02,0,0,0,.02,0,.03,0,0,0,0,0,.01-.01.04-.02.08-.04.12,0,0,0,.01,0,.02,0,0,0,.02,0,.02,0,0,0,.01,0,.02,0,0,0,.01,0,.02,0,0,0,.01,0,.02,0,0,0,.01,0,.02,0,0,0,0,0,.02,0,0,0,.02,0,.02,0,0,0,.01,0,.02,0,0,0,.02,0,.02,0,0,0,.01,0,.02,0,0,0,.02,0,.02,0,0,0,0,0,.02,0,0,0,.02,0,.02,0,0,0,.01,0,.02,0,0,0,.01,0,.02,0,0,0,.01,0,.02,0,0,0,.01,0,.02,0,0,0,0,0,.02,0,0,0,.01,0,.02,0,0,0,.01,0,.02,0,0,0,.02,0,.03,0,0,0,0,0,.01,0,0,0,.02,0,.03,0,0,0,0,0,.01-.01.04-.03.08-.04.12,0,0,0,0,0,0,0,.01,0,.02-.01.03,0,0,0,0,0,.01,0,0,0,.02,0,.03,0,0,0,0,0,.01,0,0,0,.02,0,.03,0,0,0,0,0,.01,0,0,0,.02,0,.02,0,0,0,0,0,.01,0,0,0,.02,0,.02,0,0,0,.01,0,.01,0,0,0,.02,0,.03,0,0,0,0,0,.01,0,0,0,.02,0,.02,0,0,0,.01,0,.02,0,0,0,.02,0,.02,0,0,0,.01,0,.02,0,0,0,.01,0,.02,0,0,0,.01,0,.02,0,0,0,.02,0,.02,0,0,0,.01,0,.02,0,0,0,.02,0,.03,0,0,0,0,0,.01,0,.01,0,.02-.01.04h0s-.03.08-.04.12c0,0,0,0,0,0,0,0,0,.02-.01.03,0,0,0,0,0,0,0,0,0,.02,0,.03,0,0,0,0,0,.01,0,0,0,.02,0,.03,0,0,0,0,0,.01,0,0,0,.02,0,.03,0,0,0,0,0,.01,0,0,0,.02,0,.03,0,0,0,0,0,.01,0,0,0,.02,0,.03,0,0,0,0,0,.01,0,0,0,.02,0,.03,0,0,0,0,0,0,0,0,0,.02,0,.03,0,0,0,0,0,.01,0,0,0,.02,0,.03,0,0,0,0,0,0,0,0,0,.02,0,.03,0,0,0,0,0,.01,0,.01,0,.02-.01.03,0,0,0,0,0,0-.02.07-.04.13-.07.2,0,0,0,0,0,0,0,.01,0,.02-.01.03,0,0,0,0,0,0,0,.01,0,.02-.01.03,0,0,0,0,0,.01,0,0,0,.02,0,.03,0,0,0,0,0,0,0,0,0,.02-.01.03,0,0,0,0,0,0,0,0,0,.02-.01.03,0,0,0,0,0,0,0,0,0,.02,0,.03,0,0,0,0,0,.01,0,0,0,.02,0,.03,0,0,0,0,0,0,0,0,0,.02-.01.03,0,0,0,0,0,0,0,0,0,.02-.01.03,0,0,0,0,0,0,0,0,0,.02-.01.03,0,0,0,0,0,0-.02.05-.04.1-.05.16,0,0,0,0,0,0,0,.01,0,.02-.01.04,0,0,0,0,0,0,0,.01,0,.02-.01.03,0,0,0,0,0,0,0,0,0,.02-.01.03,0,0,0,0,0,0,0,0,0,.02-.01.03,0,0,0,0,0,.01,0,0,0,.02-.01.03,0,0,0,0,0,0,0,.01,0,.02-.01.03,0,0,0,0,0,0,0,.01,0,.02-.01.03,0,0,0,0,0,0,0,0,0,.02-.01.03,0,0,0,0,0,0,0,.01,0,.02-.01.04h0s0,.03-.01.04c0,0,0,0,0,0-.03.08-.06.16-.08.24h0s0,.03-.01.04h0s0,.02-.01.04c0,0,0,0,0,0,0,.01,0,.02-.01.03,0,0,0,0,0,0,0,.01,0,.02-.01.03,0,0,0,0,0,0,0,.01,0,.02-.01.03,0,0,0,0,0,0,0,.01,0,.02-.01.03,0,0,0,0,0,0,0,.01,0,.02-.01.03,0,0,0,0,0,0,0,.01,0,.02-.01.03,0,0,0,0,0,0-.03.09-.07.18-.1.27h0s0,.03-.01.04c0,0,0,0,0,0,0,.01,0,.02-.01.04h0s0,.03-.01.04c0,0,0,0,0,0,0,.01,0,.02-.01.04h0s0,.03-.01.04c0,0,0,0,0,0-.13.37-.27.73-.41,1.1h0c-1.07,2.86-2.27,5.68-3.57,8.44-.7,1.48-1.96,2.51-3.41,2.95Zm-64.9,56.19c-58.93,18.02-121.31-15.15-139.32-74.08,0-.02-.01-.03-.02-.05v-.02s-.01-.02-.02-.04c0,0,0-.01,0-.02,0-.01,0-.03-.01-.05h0s-.01-.04-.02-.06c0,0,0-.01,0-.02,0-.01,0-.03-.01-.04,0,0,0-.01,0-.02,0-.01,0-.03-.01-.04,0,0,0,0,0,0,0-.02-.01-.03-.02-.05,0,0,0-.01,0-.01,0-.01,0-.02-.01-.04,0,0,0-.01,0-.02,0-.01,0-.02-.01-.04,0,0,0,0,0-.01,0-.02,0-.03-.02-.05,0,0,0,0,0-.01,0-.01,0-.03-.01-.04,0,0,0,0,0-.02,0-.01,0-.03-.01-.04,0,0,0,0,0-.01,0-.02,0-.03-.02-.05,0,0,0,0,0-.01,0-.01,0-.03-.01-.04,0,0,0,0,0-.02,0-.01,0-.02-.01-.04,0,0,0-.01,0-.01,0-.02-.01-.03-.02-.05,0,0,0,0,0,0,0-.01,0-.03-.01-.04,0,0,0-.01,0-.02,0-.01,0-.02-.01-.04,0,0,0-.01,0-.01,0-.02-.01-.03-.01-.05,0,0,0,0,0,0,0-.01,0-.03-.01-.05,0,0,0-.01,0-.02,0-.01,0-.02-.01-.04,0,0,0-.01,0-.02,0-.01,0-.03-.01-.04,0,0,0,0,0,0,0-.02,0-.03-.01-.05,0,0,0-.01,0-.02,0-.01,0-.02-.01-.04,0,0,0-.01,0-.02,0-.01,0-.03-.01-.05,0,0,0,0,0,0,0-.02-.01-.03-.02-.05,0,0,0-.01,0-.01,0-.01,0-.02-.01-.04,0,0,0,0,0-.02,0-.01,0-.03-.01-.04,0,0,0,0,0-.01,0-.02,0-.03-.01-.05,0,0,0,0,0-.01,0-.01,0-.02-.01-.04,0,0,0-.01,0-.02,0-.01,0-.03-.01-.04,0,0,0,0,0-.02,0-.02,0-.03-.01-.05,0,0,0,0,0-.01,0-.01,0-.02-.01-.04,0,0,0-.01,0-.02,0-.01,0-.02-.01-.04,0,0,0,0,0-.02,0-.02,0-.03-.01-.05,0,0,0,0,0,0,0-.01,0-.03-.01-.04,0,0,0-.01,0-.02,0-.01,0-.02-.01-.04,0,0,0-.01,0-.01,0-.02-.01-.04-.01-.05h0s0-.03-.01-.05c0,0,0-.01,0-.02,0-.01,0-.02-.01-.04,0,0,0-.01,0-.02,0-.02,0-.03-.01-.05h0s0-.04-.01-.05c0,0,0-.01,0-.02,0-.01,0-.02-.01-.04,0,0,0-.01,0-.02,0-.01,0-.03-.01-.04,0,0,0,0,0,0,0-.02,0-.03-.01-.05,0,0,0-.01,0-.01,0-.01,0-.02-.01-.04,0,0,0,0,0-.02,0-.01,0-.03-.01-.04,0,0,0,0,0,0,0-.02,0-.03-.01-.05,0,0,0,0,0-.01,0-.01,0-.02-.01-.04,0,0,0,0,0-.02,0-.01,0-.02-.01-.04,0,0,0,0,0-.01,0-.02,0-.03-.01-.05,0,0,0,0,0-.01,0-.01,0-.03-.01-.04,0,0,0,0,0-.02,0-.01,0-.02-.01-.04,0,0,0,0,0-.01,0-.02,0-.03-.01-.05,0,0,0,0,0,0,0-.01,0-.03-.01-.04,0,0,0,0,0-.02,0-.01,0-.02,0-.04,0,0,0-.01,0-.02,0-.02,0-.03-.01-.05,0,0,0,0,0,0,0-.01,0-.03-.01-.04,0,0,0-.01,0-.02,0-.01,0-.02,0-.04,0,0,0-.01,0-.02,0-.02,0-.03-.01-.05h0s0-.04-.01-.05c0,0,0-.01,0-.02,0-.01,0-.02-.01-.04,0,0,0-.01,0-.02,0-.01,0-.03-.01-.04,0,0,0,0,0,0,0-.02,0-.03-.01-.05,0,0,0-.01,0-.02,0-.01,0-.02,0-.04,0,0,0,0,0-.02,0-.01,0-.03-.01-.04,0,0,0,0,0,0,0-.02,0-.03-.01-.05,0,0,0,0,0-.01,0-.01,0-.03-.01-.04,0,0,0-.01,0-.02,0-.01,0-.02-.01-.04,0,0,0,0,0-.01,0-.02,0-.03-.01-.05,0,0,0,0,0-.01,0-.01,0-.03-.01-.04,0,0,0,0,0-.02,0-.01,0-.02-.01-.04,0,0,0,0,0-.01,0-.02,0-.04-.01-.05,0,0,0,0,0,0,0-.01,0-.03-.01-.04,0,0,0,0,0-.02,0-.01,0-.02-.01-.04,0,0,0-.01,0-.01,0-.02,0-.03-.01-.05,0,0,0,0,0,0,0-.01,0-.03-.01-.04,0,0,0-.01,0-.02,0-.01,0-.02,0-.04,0,0,0-.01,0-.02,0-.02,0-.03-.01-.05h0s0-.03-.01-.05c0,0,0-.01,0-.02,0-.01,0-.02,0-.04,0,0,0-.01,0-.01,0-.02,0-.03-.01-.05h0s0-.04-.01-.05c0,0,0,0,0-.01,0-.01,0-.03-.01-.04,0,0,0-.01,0-.02,0-.01,0-.03-.01-.05,0,0,0,0,0,0,0-.02,0-.04-.01-.05,0,0,0,0,0-.01,0-.01,0-.03-.01-.04,0,0,0,0,0-.02,0-.01,0-.03-.01-.04,0,0,0,0,0-.01,0-.02,0-.03-.01-.05,0,0,0,0,0-.01,0-.01,0-.03-.01-.04,0,0,0,0,0-.02,0-.01,0-.03-.01-.04h0s0-.04-.01-.06c0,0,0,0,0-.01,0-.01,0-.03-.01-.04,0,0,0,0,0-.02,0-.01,0-.02,0-.04,0,0,0,0,0-.01,0-.02,0-.04-.01-.05,0,0,0,0,0,0,0-.01,0-.03-.01-.04,0,0,0-.01,0-.02,0-.01,0-.02,0-.04,0,0,0,0,0-.01,0-.02,0-.04-.01-.05h0s0-.04-.01-.05c0,0,0-.01,0-.01,0-.01,0-.02,0-.04,0,0,0-.01,0-.02,0-.02,0-.03-.01-.05h0s0-.04-.01-.05c0,0,0-.01,0-.01,0-.01,0-.02,0-.04,0,0,0-.01,0-.02,0-.01,0-.03-.01-.04,0,0,0,0,0,0,0-.02,0-.03-.01-.05,0,0,0-.01,0-.01,0-.01,0-.02,0-.04,0,0,0,0,0-.02,0-.01,0-.03,0-.04,0,0,0,0,0-.01,0-.02,0-.03-.01-.05,0,0,0,0,0-.02,0-.01,0-.03,0-.04,0,0,0,0,0-.02,0-.01,0-.02,0-.04,0,0,0,0,0-.01,0-.02,0-.03-.01-.05,0,0,0,0,0-.02,0-.01,0-.02,0-.04,0,0,0-.01,0-.02,0-.01,0-.02,0-.03,0,0,0-.01,0-.02,0-.02,0-.03-.01-.05,0,0,0,0,0-.02,0-.01,0-.02,0-.04,0,0,0-.01,0-.02,0-.01,0-.02,0-.03,0,0,0-.01,0-.02,0-.02,0-.03-.01-.05,0,0,0,0,0,0,0-.01,0-.03,0-.04,0,0,0-.02,0-.02,0,0,0-.02,0-.03,0,0,0-.01,0-.02,0-.01,0-.03,0-.04,0,0,0,0,0-.02,0-.01,0-.03-.01-.04,0,0,0-.01,0-.02,0,0,0-.03,0-.04,0,0,0-.01,0-.02,0-.01,0-.03,0-.04,0,0,0,0,0-.01,0-.02,0-.03-.01-.05,0,0,0-.01,0-.02,0-.01,0-.02,0-.03,0,0,0-.01,0-.02,0-.01,0-.02,0-.04,0,0,0,0,0-.01,0-.02,0-.03-.01-.05,0,0,0-.01,0-.02,0,0,0-.02,0-.03,0,0,0-.01,0-.02,0,0,0-.02,0-.03,0,0,0-.01,0-.02,0-.01,0-.03-.01-.05,0,0,0-.01,0-.02,0-.01,0-.02,0-.03,0,0,0-.01,0-.02,0-.01,0-.02,0-.03,0,0,0-.01,0-.02,0-.02,0-.03-.01-.05,0,0,0,0,0-.01,0-.01,0-.02,0-.04,0,0,0-.01,0-.02,0-.01,0-.02,0-.04,0,0,0-.01,0-.02,0-.01,0-.03-.01-.05,0,0,0-.01,0-.02,0-.01,0-.03,0-.04,0,0,0-.01,0-.02,0,0,0-.02,0-.03,0,0,0-.02,0-.02,0-.01,0-.03-.01-.05,0,0,0,0,0-.01,0-.01,0-.03,0-.04,0,0,0-.01,0-.02,0-.01,0-.02,0-.04,0,0,0-.01,0-.02,0-.01,0-.03-.01-.04,0,0,0,0,0,0,0-.02,0-.03-.01-.05,0,0,0-.01,0-.02,0,0,0-.02,0-.03,0,0,0-.01,0-.02,0-.01,0-.03,0-.04,0,0,0,0,0-.01,0-.02,0-.03-.01-.05,0,0,0-.01,0-.01,0-.01,0-.02,0-.04,0,0,0-.01,0-.02,0-.01,0-.02,0-.04,0,0,0,0,0-.01,0-.02,0-.03-.01-.05,0,0,0,0,0-.01,0-.01,0-.02,0-.04,0,0,0,0,0-.02,0-.01,0-.02,0-.04,0,0,0,0,0-.01,0-.02,0-.03-.01-.05,0,0,0,0,0-.01,0-.01,0-.02,0-.04,0,0,0-.01,0-.02,0-.01,0-.02,0-.04,0,0,0-.01,0-.02,0-.02,0-.03-.01-.05,0,0,0,0,0,0,0-.01,0-.03,0-.04,0,0,0-.01,0-.02,0-.01,0-.02,0-.04,0,0,0-.01,0-.02,0-.02,0-.03-.01-.05,0,0,0,0,0,0,0-.01,0-.03,0-.04,0,0,0-.02,0-.02,0,0,0-.02,0-.03,0,0,0-.01,0-.02,0-.01,0-.03,0-.04,0,0,0,0,0,0,0-.02,0-.03-.01-.05,0,0,0-.01,0-.02,0-.01,0-.02,0-.04,0,0,0-.01,0-.02,0-.01,0-.03,0-.04,0,0,0,0,0,0,0-.02,0-.03-.01-.05,0,0,0-.01,0-.02,0-.01,0-.02,0-.04,0,0,0-.01,0-.02,0-.01,0-.02,0-.04,0,0,0,0,0-.01,0-.02,0-.03-.01-.05,0,0,0,0,0-.02,0-.01,0-.03,0-.04,0,0,0,0,0-.02,0-.01,0-.03,0-.04,0,0,0,0,0-.01,0-.02,0-.03-.01-.05,0,0,0,0,0-.01,0-.01,0-.03,0-.04,0,0,0-.01,0-.02,0-.01,0-.02,0-.04,0,0,0-.01,0-.01,0-.02,0-.03-.01-.05,0,0,0,0,0-.01,0-.01,0-.02,0-.04,0,0,0-.01,0-.02,0,0,0-.02,0-.03,0,0,0-.01,0-.02,0-.02,0-.03-.01-.05,0,0,0,0,0,0,0-.01,0-.03,0-.04,0,0,0-.01,0-.02,0,0,0-.03,0-.04,0,0,0-.01,0-.02,0-.01,0-.03,0-.05h0s0-.04-.01-.06c0,0,0-.01,0-.02,0-.01,0-.02,0-.04,0,0,0-.01,0-.02,0-.01,0-.03,0-.04,0,0,0,0,0,0,0-.02,0-.03-.01-.05,0,0,0-.01,0-.02,0-.01,0-.02,0-.03,0,0,0-.01,0-.02,0-.01,0-.03,0-.04,0,0,0,0,0-.01,0-.02,0-.03-.01-.05,0,0,0,0,0-.01,0-.01,0-.02,0-.04,0,0,0-.01,0-.02,0-.01,0-.02,0-.04,0,0,0,0,0-.01,0-.02,0-.03-.01-.05,0,0,0,0,0-.01,0-.01,0-.02,0-.04,0,0,0-.01,0-.02,0-.01,0-.02,0-.04,0,0,0-.01,0-.02,0-.02,0-.03,0-.05,0,0,0,0,0-.01,0-.01,0-.03,0-.04,0,0,0,0,0-.02,0-.01,0-.02,0-.04,0,0,0-.01,0-.01,0-.02,0-.03-.01-.05,0,0,0,0,0,0,0-.01,0-.03,0-.04,0,0,0-.01,0-.02,0-.01,0-.02,0-.04,0,0,0-.01,0-.02,0-.02,0-.03,0-.05h0s0-.04,0-.05c0,0,0-.01,0-.02,0-.01,0-.02,0-.04,0,0,0-.01,0-.02,0-.01,0-.03,0-.04,0,0,0,0,0,0,0-.02,0-.03,0-.05,0,0,0-.01,0-.02,0-.01,0-.02,0-.04,0,0,0-.01,0-.02,0-.01,0-.03,0-.04,0,0,0,0,0-.01,0-.02,0-.03,0-.05,0,0,0,0,0-.02,0-.01,0-.03,0-.04,0,0,0-.01,0-.02,0-.01,0-.02,0-.04,0,0,0,0,0-.02,0-.01,0-.03,0-.05,0,0,0,0,0-.02,0-.01,0-.02,0-.04,0,0,0-.01,0-.02,0-.01,0-.02,0-.03,0,0,0-.01,0-.02,0-.02,0-.03,0-.05,0,0,0,0,0-.02,0-.01,0-.02,0-.04,0,0,0-.01,0-.02,0-.01,0-.02,0-.03,0,0,0-.01,0-.02,0-.02,0-.03,0-.05,0,0,0,0,0-.01,0-.01,0-.03,0-.04,0,0,0-.01,0-.02,0,0,0-.02,0-.03,0,0,0-.01,0-.02,0-.01,0-.03,0-.05,0,0,0,0,0-.01,0-.01,0-.03,0-.04,0,0,0-.01,0-.02,0-.01,0-.02,0-.03,0,0,0-.02,0-.02,0-.01,0-.03,0-.04,0,0,0,0,0-.01,0-.02,0-.03,0-.05,0,0,0-.02,0-.02,0,0,0-.02,0-.03,0,0,0-.01,0-.02,0-.01,0-.02,0-.03,0,0,0-.01,0-.02,0-.02,0-.03,0-.05,0,0,0-.01,0-.02,0,0,0-.02,0-.03,0,0,0-.01,0-.02,0-.01,0-.02,0-.03,0,0,0-.01,0-.02,0-.01,0-.03,0-.05,0,0,0-.01,0-.02,0-.01,0-.02,0-.03,0,0,0-.01,0-.02,0-.01,0-.02,0-.04,0,0,0,0,0-.01,0-.02,0-.03,0-.05,0,0,0,0,0-.01,0-.01,0-.02,0-.04,0,0,0-.01,0-.02,0,0,0-.02,0-.03,0,0,0-.01,0-.02,0-.02,0-.03,0-.05,0,0,0,0,0-.01,0-.01,0-.03,0-.04,0,0,0-.01,0-.02,0,0,0-.02,0-.03,0,0,0-.02,0-.02,0-.02,0-.03,0-.05,0,0,0,0,0,0,0-.01,0-.03,0-.04,0,0,0-.01,0-.02,0,0,0-.02,0-.03,0,0,0-.02,0-.02,0-.01,0-.03,0-.04,0,0,0,0,0-.02,0-.01,0-.03,0-.04,0,0,0-.02,0-.02,0,0,0-.02,0-.03,0,0,0-.01,0-.02,0-.01,0-.03,0-.04,0,0,0,0,0,0,0-.02,0-.03,0-.05,0,0,0-.01,0-.02,0,0,0-.02,0-.03,0,0,0-.01,0-.02,0-.01,0-.02,0-.03,0,0,0,0,0-.02,0-.02,0-.03,0-.05,0,0,0-.01,0-.02,0,0,0-.02,0-.03,0,0,0-.01,0-.02,0-.01,0-.02,0-.03,0,0,0,0,0-.02,0-.01,0-.04,0-.05,0,0,0,0,0-.02,0-.01,0-.02,0-.04,0,0,0-.01,0-.02,0-.01,0-.02,0-.03,0,0,0-.01,0-.02,0-.02,0-.03,0-.05,0,0,0-.01,0-.01,0-.01,0-.02,0-.04,0,0,0-.01,0-.02,0,0,0-.02,0-.03,0,0,0-.01,0-.02,0-.01,0-.03,0-.04,0-.01,0-.01,0-.02,0-.01,0-.02,0-.03,0,0,0-.01,0-.02,0,0,0-.02,0-.03,0,0,0-.02,0-.02,0-.01,0-.03,0-.04,0,0,0-.02,0-.03,0-.01,0-.02,0-.04,0,0,0-.01,0-.02,0,0,0-.02,0-.03,0,0,0-.01,0-.02,0-.01,0-.03,0-.04,0,0,0-.01,0-.02,0-.01,0-.03,0-.05,0,0,0-.01,0-.02,0,0,0-.02,0-.03,0,0,0-.02,0-.02,0-.01,0-.02,0-.03,0,0,0,0,0-.02,0-.02,0-.03,0-.05,0,0,0-.01,0-.02,0,0,0-.02,0-.03,0,0,0-.01,0-.02,0-.01,0-.02,0-.03,0,0,0-.01,0-.02,0-.01,0-.03,0-.05,0,0,0-.01,0-.02,0,0,0-.02,0-.03,0,0,0-.02,0-.02,0,0,0-.02,0-.03,0,0,0-.01,0-.02,0-.01,0-.03,0-.05,0,0,0-.01,0-.02,0-.01,0-.02,0-.03,0,0,0-.01,0-.02,0,0,0-.02,0-.03,0,0,0-.01,0-.02,0-.02,0-.03,0-.05,0,0,0-.01,0-.02,0-.01,0-.02,0-.03,0,0,0-.02,0-.02,0,0,0-.02,0-.03,0,0,0-.01,0-.02,0-.01,0-.02,0-.04,0,0,0-.02,0-.02,0-.01,0-.03,0-.04,0,0,0-.01,0-.02,0,0,0-.02,0-.03,0,0,0-.01,0-.02,0-.01,0-.02,0-.03,0,0,0-.02,0-.02,0-.01,0-.03,0-.04,0,0,0-.01,0-.02,0,0,0-.02,0-.03,0,0,0-.01,0-.02,0-.01,0-.02,0-.03,0,0,0,0,0-.02,0-.02,0-.03,0-.05,0,0,0-.01,0-.02,0,0,0-.02,0-.03,0,0,0-.01,0-.02,0-.01,0-.02,0-.03,0,0,0-.01,0-.02,0-.01,0-.03,0-.05,0,0,0-.01,0-.02,0-.01,0-.02,0-.03,0,0,0-.01,0-.02,0-.01,0-.02,0-.03,0,0,0-.01,0-.02,0-.02,0-.03,0-.05,0,0,0,0,0-.02,0-.01,0-.02,0-.04,0,0,0-.01,0-.02,0-.01,0-.02,0-.03,0,0,0-.01,0-.02,0-.02,0-.03,0-.05,0,0,0,0,0-.02,0-.01,0-.02,0-.04,0,0,0-.01,0-.02,0,0,0-.02,0-.03,0,0,0-.01,0-.02,0-.01,0-.03,0-.04,0,0,0-.01,0-.02,0-.01,0-.03,0-.04,0,0,0-.01,0-.02,0,0,0-.02,0-.03,0,0,0-.02,0-.02,0-.01,0-.03,0-.04,0,0,0-.01,0-.02,0-.01,0-.03,0-.04,0,0,0-.02,0-.02,0,0,0-.02,0-.03,0,0,0-.01,0-.02,0-.01,0-.02,0-.03,0,0,0,0,0-.02,0-.02,0-.03,0-.05,0,0,0-.01,0-.02,0,0,0-.02,0-.03,0,0,0-.01,0-.02,0-.01,0-.02,0-.03,0,0,0-.01,0-.02,0-.01,0-.03,0-.05,0,0,0-.01,0-.02,0,0,0-.02,0-.03,0,0,0-.01,0-.02,0-.01,0-.02,0-.03,0,0,0-.01,0-.02,0-.01,0-.03,0-.05,0,0,0,0,0-.02,0-.01,0-.02,0-.03,0,0,0-.01,0-.02,0,0,0-.02,0-.03,0,0,0-.01,0-.02,0-.02,0-.03,0-.05,0,0,0-.01,0-.02,0-.01,0-.02,0-.03,0,0,0-.02,0-.02,0,0,0-.02,0-.03,0,0,0-.01,0-.02,0-.02,0-.03,0-.05,0,0,0,0,0-.01,0-.01,0-.03,0-.04,0,0,0-.01,0-.02,0,0,0-.02,0-.03,0,0,0-.01,0-.02,0-.01,0-.03,0-.04,0,0,0-.02,0-.02,0-.01,0-.02,0-.04,0-.01,0-.01,0-.02,0,0,0-.02,0-.03,0,0,0-.02,0-.02,0-.01,0-.02,0-.03,0,0,0-.01,0-.02,0-.01,0-.03,0-.05,0,0,0-.01,0-.02,0,0,0-.02,0-.03,0,0,0-.02,0-.02,0-.01,0-.02,0-.03,0,0,0-.01,0-.02,0-.01,0-.03,0-.05,0,0,0-.02,0-.02,0,0,0-.02,0-.03,0,0,0-.02,0-.02,0,0,0-.02,0-.03,0,0,0-.01,0-.02,0-.01,0-.03,0-.05,0,0,0-.01,0-.02,0,0,0-.02,0-.03,0,0,0-.02,0-.02,0,0,0-.02,0-.03,0,0,0-.01,0-.02,0-.01,0-.03,0-.05,0,0,0-.01,0-.02,0-.01,0-.02,0-.03,0,0,0-.01,0-.02,0,0,0-.02,0-.03,0,0,0-.01,0-.02,0-.01,0-.03,0-.04,0,0,0-.02,0-.02,0-.01,0-.02,0-.03,0,0,0-.02,0-.02,0,0,0-.02,0-.03,0,0,0-.01,0-.02,0-.01,0-.03,0-.04,0,0,0-.02,0-.02,0-.01,0-.03,0-.04,0,0,0-.01,0-.02,0,0,0-.02,0-.03,0,0,0-.01,0-.02,0-.01,0-.02,0-.04,0,0,0-.01,0-.01,0-.01,0-.03,0-.05,0,0,0-.01,0-.02,0,0,0-.02,0-.03,0,0,0-.01,0-.02,0-.01,0-.02,0-.03,0,0,0-.02,0-.02,0-.01,0-.03,0-.04,0,0,0-.01,0-.02,0,0,0-.02,0-.03,0,0,0-.01,0-.02,0-.01,0-.02,0-.03,0,0,0-.01,0-.02,0-.01,0-.03,0-.05,0,0,0-.01,0-.02,0,0,0-.02,0-.03,0,0,0-.01,0-.02,0-.01,0-.02,0-.03,0,0,0-.01,0-.02,0-.01,0-.03,0-.05,0,0,0-.01,0-.02,0,0,0-.02,0-.03,0,0,0-.02,0-.02,0,0,0-.02,0-.03,0,0,0-.02,0-.02,0-.01,0-.03,0-.04,0,0,0-.02,0-.02,0-.01,0-.02,0-.03,0,0,0-.02,0-.02,0,0,0-.02,0-.03,0-.01,0-.01,0-.02,0-.01,0-.03,0-.04,0,0,0-.02,0-.03,0-.01,0-.02,0-.03,0,0,0-.02,0-.02,0,0,0-.02,0-.03,0,0,0-.01,0-.02,0-.01,0-.02,0-.03,0-.01,0-.02,0-.03,0-.01,0-.02,0-.03,0-.01,0-.01,0-.02,0,0,0-.02,0-.03,0,0,0-.02,0-.02,0-.01,0-.02,0-.03,0,0,0-.01,0-.02,0-.02,0-.03,0-.05,0,0,0-.01,0-.02,0,0,0-.02,0-.03,0,0,0-.01,0-.02,0-.01,0-.02,0-.03,0,0,0-.01,0-.02,0-.01,0-.03,0-.05,0,0,0-.01,0-.02,0,0,0-.02,0-.03,0,0,0-.02,0-.02,0,0,0-.02,0-.03,0,0,0-.01,0-.02,0-.01,0-.03,0-.05,0,0,0-.01,0-.02,0-.01,0-.02,0-.03,0,0,0-.02,0-.02,0,0,0-.02,0-.03,0,0,0-.01,0-.02,0-.02,0-.03,0-.05,0,0,0-.01,0-.02,0-.01,0-.02,0-.03,0,0,0-.01,0-.02,0,0,0-.02,0-.03,0,0,0-.01,0-.02,0-.01,0-.02,0-.04,0-.01,0-.02,0-.03,0-.01,0-.02,0-.03,0,0,0-.01,0-.02,0,0,0-.02,0-.03,0,0,0-.02,0-.02,0-.01,0-.02,0-.04,0,0,0-.02,0-.02,0-.01,0-.03,0-.04,0-.01,0-.01,0-.02,0,0,0-.02,0-.03,0,0,0-.02,0-.02,0-.01,0-.02,0-.03,0-.01,0-.02,0-.03,0-.01,0-.03,0-.04,0,0,0-.01,0-.02,0,0,0-.02,0-.03,0,0,0-.02,0-.03,0,0,0-.02,0-.03,0,0,0-.01,0-.02,0-.01,0-.03,0-.05,0,0,0-.01,0-.02,0,0,0-.02,0-.03,0,0,0-.02,0-.02,0-.01,0-.02,0-.03,0,0,0-.01,0-.02,0-.01,0-.03,0-.05,0,0,0-.01,0-.02,0,0,0-.02,0-.03,0,0,0-.02,0-.02,0,0,0-.02,0-.03,0,0,0-.02,0-.02,0-.01,0-.03,0-.05,0,0,0-.02,0-.02,0,0,0-.02,0-.03,0,0,0-.02,0-.03,0,0,0-.02,0-.03,0-.01,0-.01,0-.02,0-.02,0-.03,0-.05,0,0,0-.01,0-.02,0-.01,0-.02,0-.03,0,0,0-.02,0-.02,0,0,0-.02,0-.03,0-.01,0-.01,0-.02,0-.01,0-.02,0-.03,0-.01,0-.02,0-.04,0,0,0-.02,0-.03,0-.01,0-.02,0-.03,0,0,0-.01,0-.02,0-.01,0-.02,0-.03,0,0,0-.02,0-.03,0-.01,0-.02,0-.03,0-.01,0-.02,0-.04,0-.01,0-.01,0-.02,0,0,0-.02,0-.03,0,0,0-.02,0-.03,0,0,0-.02,0-.03,0-.01,0-.02,0-.03,0-.01,0-.03,0-.04,0-.01,0-.01,0-.03,0,0,0-.02,0-.03,0,0,0-.02,0-.03,0,0,0-.02,0-.03,0,0,0-.02,0-.02,0-.01,0-.03,0-.04,0-.01,0-.02,0-.03,0,0,0-.02,0-.02,0,0,0-.02,0-.03,0,0,0-.02,0-.03,0,0,0-.02,0-.02,0-.01,0-.03,0-.04,0,0,0-.02,0-.03,0,0,0-.02,0-.03,0,0,0-.02,0-.03,0,0,0-.02,0-.03,0,0,0-.02,0-.02,0-.01,0-.02,0-.04,0-.01,0-.02,0-.04,0,0,0-.02,0-.03,0,0,0-.02,0-.03,0,0,0-.02,0-.02,0-.01,0-.02,0-.03,0,0,0-.02,0-.03,0-.01,0-.03,0-.04,0,0,0-.02,0-.03,0-.01,0-.02,0-.03,0,0,0-.02,0-.02,0-.01,0-.01,0-.03,0,0,0-.02,0-.03,0-.01,0-.03,0-.04,0,0,0-.02,0-.03,0-.01,0-.02,0-.03,0,0,0-.02,0-.02,0,0,0-.02,0-.03,0,0,0-.02,0-.02,0-.01,0-.03,0-.05,0,0,0-.01,0-.02,0-.01,0-.02,0-.03,0,0,0-.02,0-.02,0,0,0-.02,0-.03,0,0,0-.02,0-.03,0,0,0-.02,0-.03,0-.01,0-.03,0-.04,0,0,0-.02,0-.03,0,0,0-.02,0-.02,0,0,0-.02,0-.03,0,0,0-.02,0-.02,0,0,0-.02,0-.03,0-.01,0-.03,0-.04,0,0,0-.02,0-.03,0,0,0-.02,0-.02,0,0,0-.02,0-.03,0,0,0-.02,0-.02,0-.01,0-.02,0-.03,0,0,0-.01,0-.02,0-.01,0-.04,0-.05,0,0,0-.02,0-.02,0,0,0-.02,0-.03,0,0,0-.01,0-.02,0-.01,0-.01,0-.03,0,0,0-.02,0-.03,0-.01,0-.03,0-.04,0,0,0-.02,0-.03,0,0,0-.02,0-.02,0,0,0-.02,0-.03,0-.01,0-.01,0-.02,0-.01,0-.02,0-.03,0-.01,0-.02,0-.04,0,0,0-.02,0-.03,0-.01,0-.02,0-.03,0,0,0-.02,0-.02,0-.01,0-.02,0-.03,0,0,0-.02,0-.02,0-.01,0-.03,0-.05,0,0,0-.02,0-.02,0-.01,0-.02,0-.03,0,0,0-.02,0-.02,0-.01,0-.02,0-.03,0,0,0-.01,0-.02,0-.02,0-.04,0-.06,0,0,0,0,0-.01,0-.01,0-.02,0-.03,0,0,0-.01,0-.02,0,0,0-.02,0-.03,0,0,0-.01,0-.02,0-.04,0-.07,0-.1,0,0,0-.02,0-.02,0,0,0-.02,0-.03,0,0,0-.02,0-.02,0-.01,0-.02,0-.03,0,0,0-.01,0-.02,0-.01,0-.04,0-.05,0,0,0-.02,0-.02,0,0,0-.02,0-.03,0,0,0-.02,0-.02,0-.01,0-.02,0-.03,0,0,0-.02,0-.02,0-.01,0-.03,0-.05,0,0,0-.02,0-.02,0-.01,0-.02,0-.03,0,0,0-.01,0-.02,0-.01,0-.02,0-.03,0,0,0-.01,0-.02,0-.01,0-.03,0-.05,0,0,0-.01,0-.02,0-.01,0-.02,0-.03,0,0,0-.01,0-.02,0-.01,0-.02,0-.03,0,0,0-.02,0-.02,0-.01,0-.03,0-.04,0,0,0-.02,0-.03,0-.01,0-.02,0-.03,0,0,0-.02,0-.02,0,0,0-.02,0-.03,0,0,0-.01,0-.02,0-.02,0-.03,0-.06,0,0,0,0,0-.02,0-.01,0-.02,0-.03,0,0,0-.01,0-.02,0,0,0-.02,0-.03,0,0,0-.02,0-.02,0-.01,0-.02,0-.03,0-.01,0-.03,0-.04,0-.01,0-.02,0-.03,0,0,0-.02,0-.02,0,0,0-.02,0-.03,0,0,0-.02,0-.02,0-.01,0-.02,0-.03,0-.01,0-.03,0-.04,0,0,0-.02,0-.03,0,0,0-.02,0-.02,0,0,0-.02,0-.03,0,0,0-.02,0-.02,0-.01,0-.02,0-.03,0-.01,0-.02,0-.03,0-.01,0-.03,0-.04,0,0,0-.02,0-.02,0-.01,0-.02,0-.03,0,0,0-.01,0-.02,0-.01,0-.02,0-.03,0,0,0-.02,0-.02,0-.01,0-.03,0-.04,0,0,0-.01,0-.02,0-.01,0-.02,0-.03,0,0,0-.01,0-.02,0-.01,0-.02,0-.03,0,0,0-.01,0-.02,0-.02,0-.03,0-.06,0,0,0,0,0-.02,0-.01,0-.02,0-.03,0,0,0-.01,0-.02,0-.01,0-.02,0-.03,0,0,0-.01,0-.02,0-.01,0-.03,0-.05,0,0,0-.01,0-.02,0-.01,0-.02,0-.03,0,0,0-.01,0-.02,0,0,0-.02,0-.03,0,0,0-.02,0-.02,0,0,0-.02,0-.03,0-.01,0-.03,0-.04,0-.01,0-.02,0-.03,0,0,0-.01,0-.02,0,0,0-.02,0-.03,0,0,0-.01,0-.02,0-.01,0-.02,0-.03,0,0,0-.02,0-.03,0-.02,0-.03,0-.05,0,0,0-.01,0-.02,0,0,0-.02,0-.03,0,0,0-.01,0-.02,0-.01,0-.02,0-.03,0,0,0-.01,0-.02,0-.02,0-.03,0-.05,0,0,0-.01,0-.02,0-.01,0-.02,0-.03,0,0,0-.01,0-.02,0-.01,0-.02,0-.03,0,0,0,0,0-.02,0-.02,0-.04,0-.06,0,0,0-.01,0-.02,0-.01,0-.02,0-.03,0,0,0-.02,0-.02,0-.01,0-.02,0-.03,0,0,0-.01,0-.02,0-.02,0-.04,0-.05,0,0,0-.01,0-.02,0-.01,0-.02,0-.03,0,0,0-.01,0-.02,0-.01,0-.02,0-.03,0,0,0-.01,0-.02,0-.02,0-.04,0-.06,0,0,0-.01,0-.02,0-.01,0-.02,0-.03,0,0,0-.01,0-.02,0-.01,0-.02,0-.03,0,0,0-.01,0-.02,0-.02,0-.04,0-.06,0,0,0,0,0-.01,0-.01,0-.02,0-.03,0,0,0-.01,0-.02,0,0,0-.02,0-.03,0,0,0-.01,0-.02,0-.04,0-.07,0-.11,0,0,0-.01,0-.02,0-.01,0-.02,0-.03,0,0,0-.01,0-.02,0-.01,0-.02,0-.03,0,0,0,0,0,0,0-.03,0-.05,0-.08,0,0,0,0,0,0,0-.01,0-.02,0-.03,0,0,0,0,0-.01,0-.01,0-.02,0-.03h0s0-.05,0-.08c0,0,0,0,0-.01,0-.01,0-.02,0-.03,0,0,0-.01,0-.02,0-.01,0-.02,0-.03,0,0,0-.01,0-.02,0-.02,0-.04,0-.06,0,0,0,0,0-.01,0-.01,0-.02,0-.03,0,0,0-.01,0-.02,0-.01,0-.02,0-.03,0,0,0,0,0-.01,0-.02,0-.04,0-.06,0,0,0,0,0-.02,0-.01,0-.02,0-.03,0,0,0-.01,0-.02,0-.01,0-.02,0-.03,0,0,0-.01,0-.02,0-.02,0-.05,0-.07,0,0,0,0,0,0,0-.01,0-.02,0-.03,0,0,0-.01,0-.02,0-.01,0-.02,0-.03,0,0,0-.01,0-.02,0-.04,0-.07,0-.11,0,0,0-.01,0-.02,0,0,0-.02,0-.03,0,0,0-.01,0-.02,0-.01,0-.02,0-.03,0,0,0,0,0,0,0-.02,0-.04,0-.06,0,0,0-.01,0-.02,0-.01,0-.02,0-.03,0,0,0-.01,0-.02,0-.01,0-.02,0-.03,0,0,0-.01,0-.02,0-.01,0-.03,0-.05,0,0,0-.02,0-.02,0,0,0-.02,0-.03,0,0,0-.01,0-.02,0-.01,0-.02,0-.03,0,0,0,0,0-.02,0-.02,0-.04,0-.06,0,0,0-.01,0-.02,0-.01,0-.02,0-.03,0,0,0-.01,0-.02,0-.01,0-.02,0-.03,0,0,0,0,0-.01,0-.02,0-.04,0-.06,0,0,0,0,0-.01,0-.01,0-.02,0-.03,0,0,0-.01,0-.02,0-.01,0-.02,0-.03,0,0,0,0,0-.01,0-.04,0-.07,0-.11,0,0,0,0,0-.02,0-.01,0-.02,0-.03,0,0,0-.01,0-.02,0-.03,0-.05,0-.07,0,0,0,0,0,0,0-.01,0-.02,0-.03,0,0,0,0,0-.02,0,0,0-.02,0-.03,0,0,0,0,0-.02,0-.04,0-.07,0-.11,0,0,0-.01,0-.02,0-.01,0-.02,0-.03,0,0,0,0,0-.02,0-.04,0-.07,0-.11,0,0,0,0,0-.01,0-.01,0-.02,0-.03,0,0,0-.01,0-.02,0-.01,0-.02,0-.03,0,0,0,0,0-.01,0-.02,0-.04,0-.07,0,0,0,0,0-.01,0-.01,0-.02,0-.03,0,0,0-.01,0-.02,0-.01,0-.02,0-.03,0,0,0-.01,0-.02,0-.02,0-.04,0-.07,0,0,0,0,0,0,0-.01,0-.02,0-.03,0,0,0-.01,0-.01,0-.01,0-.02,0-.03,0,0,0,0,0-.01,0-.02,0-.05,0-.07,0,0,0,0,0,0,0-.01,0-.02,0-.03,0,0,0-.01,0-.02,0-.01,0-.02,0-.03,0,0,0-.01,0-.02,0-.03,0-.04,0-.07,0,0,0,0,0,0,0-.01,0-.02,0-.03,0,0,0-.01,0-.02,0-.01,0-.02,0-.03,0,0,0,0,0-.01,0-.04,0-.07,0-.11,0,0,0,0,0-.01,0-.01,0-.02,0-.03,0,0,0,0,0-.02,0-.01,0-.02,0-.03,0,0,0,0,0,0,0-.03,0-.05,0-.07,0,0,0,0,0-.01,0-.01,0-.02,0-.03,0,0,0,0,0-.01,0-.01,0-.02,0-.03h0s0-.05,0-.08c0,0,0,0,0,0,0-.01,0-.03,0-.04,0,0,0,0,0-.01,0-.01,0-.02,0-.03,0,0,0,0,0-.01,0-.02,0-.05,0-.07,0,0,0,0,0-.01,0-.01,0-.02,0-.03,0,0,0-.01,0-.02,0-.01,0-.02,0-.03,0,0,0-.01,0-.02,0-.02,0-.04,0-.06,0,0,0-.01,0-.02,0-.01,0-.02,0-.03,0,0,0-.01,0-.02,0,0,0-.02,0-.03,0,0,0-.01,0-.02,0-.02,0-.04,0-.06,0,0,0,0,0-.01,0-.01,0-.02,0-.03,0,0,0-.01,0-.02,0,0,0-.02,0-.03,0,0,0-.01,0-.02,0-.04,0-.07,0-.1,0,0,0-.01,0-.02,0,0,0-.02,0-.03,0,0,0-.01,0-.02,0-.01,0-.02,0-.03h0s0-.05,0-.08c0,0,0,0,0-.01,0-.01,0-.02,0-.03,0,0,0-.01,0-.02,0-.01,0-.02,0-.03,0,0,0,0,0,0,0-.02,0-.04,0-.07,0,0,0-.01,0-.02,0-.01,0-.02,0-.03,0,0,0-.01,0-.02,0-.01,0-.02,0-.03,0,0,0-.01,0-.01,0-.02,0-.04,0-.06,0,0,0-.01,0-.02,0-.01,0-.02,0-.03,0,0,0-.01,0-.02,0-.01,0-.02,0-.03,0,0,0,0,0-.01,0-.02,0-.05,0-.07,0,0,0,0,0,0,0-.01,0-.02,0-.03,0,0,0-.01,0-.02,0-.01,0-.02,0-.03,0,0,0-.01,0-.02,0-.04,0-.07,0-.11,0,0,0,0,0-.02,0-.01,0-.02,0-.03,0,0,0,0,0-.01,0-.04,0-.07,0-.11,0,0,0-.01,0-.02,0-.01,0-.02,0-.03,0,0,0,0,0-.01,0-.04,0-.07,0-.11,0,0,0,0,0-.01,0-.01,0-.02,0-.03,0,0,0,0,0-.01,0-.04,0-.07,0-.11,0,0,0-.01,0-.02,0-.01,0-.02,0-.03,0,0,0,0,0-.01,0-.01,0-.02,0-.03h0s0-.05,0-.08c0,0,0-.01,0-.01,0-.01,0-.02,0-.03,0,0,0-.01,0-.02,0-.01,0-.02,0-.03,0,0,0,0,0-.01,0-.02,0-.04,0-.06,0,0,0-.01,0-.01,0-.01,0-.02,0-.03,0,0,0-.01,0-.02,0-.01,0-.02,0-.03,0,0,0,0,0-.01,0-.02,0-.05,0-.07,0,0,0,0,0,0,0-.01,0-.02,0-.04,0,0,0,0,0-.01,0-.01,0-.02,0-.04,0,0,0,0,0-.01,0-.04,0-.07,0-.11,0,0,0,0,0-.01,0-.01,0-.02,0-.03,0,0,0,0,0-.01,0-.04,0-.07,0-.11,0,0,0,0,0-.01,0-.01,0-.02,0-.03,0,0,0,0,0-.01,0-.04,0-.07,0-.11,0,0,0,0,0-.01,0-.01,0-.02,0-.03,0,0,0-.01,0-.02,0-.01,0-.02,0-.03h0s0-.05,0-.08c0,0,0,0,0,0,0-.01,0-.02,0-.04,0,0,0,0,0-.01,0-.01,0-.02,0-.04h0s0-.06,0-.08h0s0-.03,0-.04c0,0,0,0,0-.01,0-.01,0-.02,0-.04,0,0,0,0,0,0,0-.04,0-.08,0-.12,0,0,0,0,0-.01,0-.01,0-.02,0-.04,0,0,0,0,0,0,0-.04,0-.08,0-.11,0,0,0-.01,0-.01,0-.01,0-.02,0-.04,0,0,0,0,0,0,0-.04,0-.08,0-.11,0,0,0,0,0-.01,0-.01,0-.02,0-.03,0,0,0-.01,0-.01,0-.04,0-.08,0-.11,0,0,0,0,0-.01,0-.01,0-.02,0-.04,0,0,0,0,0-.01,0-.01,0-.02,0-.04,0,0,0,0,0,0,0-.02,0-.05,0-.07,0,0,0,0,0,0,0-.01,0-.02,0-.04h0s0-.04,0-.05c0,0,0,0,0,0,0-.03,0-.05,0-.08,0,0,0,0,0,0,0-.01,0-.03,0-.04,0,0,0,0,0-.01,0-.01,0-.02,0-.04,0,0,0,0,0,0,0-.04,0-.08,0-.11,0,0,0,0,0-.01,0-.01,0-.02,0-.03,0,0,0,0,0-.01,0-.04,0-.08,0-.11,0,0,0,0,0,0,0-.01,0-.02,0-.04,0,0,0,0,0,0,0-.04,0-.08,0-.11,0,0,0,0,0-.01,0-.01,0-.02,0-.03,0,0,0,0,0-.01,0-.04,0-.08,0-.11,0,0,0,0,0,0,0-.01,0-.02,0-.04,0,0,0,0,0-.01,0-.04,0-.08,0-.11,0,0,0,0,0,0,0-.01,0-.02,0-.03,0,0,0,0,0-.01,0-.01,0-.02,0-.03h0s0-.05,0-.08c0,0,0,0,0,0,0-.01,0-.02,0-.03,0,0,0-.01,0-.02,0-.01,0-.02,0-.03,0,0,0,0,0-.01,0-.02,0-.05,0-.07h0s0-.03,0-.04c0,0,0-.01,0-.02,0-.01,0-.02,0-.03,0,0,0,0,0-.01,0-.02,0-.05,0-.07,0,0,0,0,0,0,0-.01,0-.02,0-.03,0,0,0,0,0-.01,0-.01,0-.02,0-.03,0,0,0,0,0-.01,0-.04,0-.08,0-.11,0,0,0,0,0-.01,0-.01,0-.02,0-.03,0,0,0,0,0-.01,0-.04,0-.08,0-.11,0,0,0,0,0-.01,0-.01,0-.02,0-.03,0,0,0,0,0-.01,0-.04,0-.08,0-.11,0,0,0,0,0-.01,0-.01,0-.02,0-.03,0,0,0,0,0-.01,0-.04,0-.08,0-.12,0,0,0,0,0,0,0-.01,0-.02,0-.04,0,0,0,0,0,0,0-.01,0-.02,0-.04h0s0-.05,0-.08h0s0-.03,0-.04c0,0,0,0,0,0,0-.01,0-.02,0-.04,0,0,0,0,0,0,0-.04,0-.08,0-.12,0,0,0,0,0,0,0-.01,0-.02,0-.04,0,0,0,0,0,0,0-.04,0-.08,0-.12,0,0,0,0,0-.01,0-.01,0-.02,0-.04,0,0,0,0,0,0,0-.04,0-.08,0-.11,0,0,0,0,0-.01,0-.01,0-.02,0-.03,0,0,0,0,0-.01,0-.04,0-.08,0-.12,0,0,0,0,0,0,0-.01,0-.02,0-.04,0,0,0,0,0,0,0-.04,0-.08,0-.12h0s0-.03,0-.04c0,0,0,0,0,0,0-.04,0-.08,0-.12h0s0-.02,0-.04c0,0,0,0,0,0,0-.01,0-.02,0-.04h0s0-.08,0-.12c0,0,0,0,0,0,0-.01,0-.02,0-.04,0,0,0,0,0,0,0-.04,0-.08,0-.12,0,0,0,0,0,0,0-.01,0-.02,0-.04,0,0,0,0,0,0,0-.04,0-.08,0-.12,0,0,0,0,0,0,0-.01,0-.02,0-.04,0,0,0,0,0,0,0-.04,0-.08,0-.12,0,0,0,0,0,0,0-.01,0-.02,0-.04,0,0,0,0,0,0,0-.04,0-.08,0-.12h0s0-.03,0-.04c0,0,0,0,0,0,0-.06,0-.11.01-.16,0,0,0,0,0,0,0-.06,0-.11.01-.16,0,0,0,0,0,0,0-.01,0-.02,0-.04,0,0,0,0,0,0,0-.04,0-.08,0-.12,0,0,0,0,0,0,0-.01,0-.02,0-.04,0,0,0,0,0,0,0-.04,0-.08.01-.12,0,0,0,0,0,0,0-.01,0-.02,0-.04,0,0,0,0,0,0,0-.04,0-.08.01-.12,0,0,0,0,0,0,0-.01,0-.02,0-.04,0,0,0,0,0,0,0-.04,0-.08.01-.12,0,0,0,0,0,0,0-.01,0-.02,0-.04,0,0,0,0,0,0,0-.05,0-.11.01-.16,0,0,0,0,0,0,0-.06,0-.1.02-.16,0,0,0,0,0,0,0-.06.01-.11.02-.16,0,0,0,0,0,0,0-.01,0-.02,0-.04h0s0-.08.01-.12c0,0,0,0,0,0,0-.01,0-.02,0-.04h0s0-.08.01-.13h0s0-.03,0-.04h0s0-.08.01-.12c0,0,0,0,0,0,0-.01,0-.03,0-.04,0,0,0,0,0,0,0-.04,0-.08.01-.12,0,0,0,0,0,0,0-.01,0-.02,0-.04,0,0,0,0,0,0,0-.04,0-.08.01-.12,0,0,0,0,0,0,0-.01,0-.03,0-.04,0,0,0,0,0-.01,0-.01,0-.02,0-.04,0,0,0,0,0,0,0-.04,0-.08.01-.12,0,0,0,0,0,0,0-.01,0-.03,0-.04,0,0,0,0,0,0,0-.04,0-.08.01-.12,0,0,0,0,0,0,0-.01,0-.03,0-.04h0s0-.08.01-.13h0s0-.03,0-.04c0,0,0,0,0,0,0-.04,0-.08.01-.12h0s0-.03,0-.04c0,0,0,0,0,0,0-.06.01-.11.02-.16,0,0,0,0,0,0,0-.06.01-.11.02-.16h0c0-.06.01-.11.02-.17,0,0,0,0,0,0,0-.06.01-.11.02-.16h0c0-.06.01-.11.02-.17h0s0-.03,0-.04h0s0-.08.01-.13h0s0-.03,0-.04c0,0,0,0,0,0,0-.06.01-.11.02-.17,0,0,0,0,0,0,.01-.11.03-.22.04-.33h0c0-.06.01-.11.02-.17,0,0,0,0,0,0,0-.01,0-.03,0-.04h0s.01-.08.02-.12h0s0-.03,0-.04h0c0-.06.01-.11.02-.17h0c0-.06.01-.11.02-.17,0,0,0,0,0,0,0-.06.01-.11.02-.17h0c0-.06.01-.11.02-.17,0,0,0,0,0,0,0-.06.01-.11.02-.16,0,0,0,0,0,0,0-.06.01-.11.02-.16,0,0,0,0,0,0,0-.01,0-.03,0-.04h0s.01-.08.02-.13h0c0-.06.02-.11.02-.16,0,0,0,0,0,0,0-.01,0-.03,0-.04,0,0,0,0,0,0,0-.06.02-.11.02-.17h0c0-.06.02-.11.02-.17h0c.03-.24.07-.47.11-.71h0c0-.06.02-.11.03-.17,0,0,0,0,0,0,0-.06.02-.11.03-.16h0c0-.06.02-.11.03-.17h0c.11-.7.22-1.39.35-2.08h0c0-.06.02-.11.03-.17h0c0-.06.02-.11.03-.17,0,0,0,0,0,0,2.85-15.96,9.15-31.08,18.34-44.28,0,0,0,0,0,0,.37-.53.74-1.05,1.11-1.57h0c.1-.14.2-.27.29-.41h0s.07-.09.1-.13h0s.02-.02.02-.03h0c.21-.28.41-.56.62-.84h0s.07-.09.1-.13c0,0,0,0,0,0,.03-.04.07-.09.1-.13h0s.07-.09.1-.13h0s.07-.09.1-.13c0,0,0,0,0,0,.03-.04.07-.09.1-.13h0c.14-.19.29-.38.43-.57h0s.07-.09.1-.13c0,0,0,0,0,0,.03-.04.07-.09.1-.13,0,0,0,0,0,0,.03-.04.07-.09.1-.13h0s.02-.02.03-.03h0s.05-.07.08-.1h0s.02-.02.02-.03c0,0,0,0,0,0,.03-.04.07-.08.1-.13,0,0,0,0,0,0,.03-.04.07-.09.1-.13h0s.07-.09.1-.13h0s.07-.09.1-.13c0,0,0,0,0,0,.03-.04.07-.09.1-.13h0s.07-.09.1-.13h0s.02-.02.03-.03h0s.07-.09.1-.13c0,0,0,0,0,0,.03-.04.07-.08.1-.13,0,0,0,0,0,0,.03-.04.07-.08.1-.13,0,0,0,0,0,0,.03-.04.07-.08.1-.13,0,0,0,0,0,0,0-.01.02-.02.02-.03,0,0,0,0,0,0,.03-.03.05-.06.07-.09,0,0,0,0,0,0,0-.01.01-.02.02-.03,0,0,0,0,0,0,.02-.03.05-.06.07-.09h0s.01-.02.02-.03c0,0,0,0,0,0,.02-.03.05-.06.07-.09,0,0,0,0,0,0,0-.01.01-.02.02-.03,0,0,0,0,0,0,.02-.03.05-.06.07-.09,0,0,0,0,0,0,0-.01.01-.02.02-.03,0,0,0,0,0,0,.04-.04.07-.08.1-.12,0,0,0,0,0,0,.03-.04.07-.08.1-.12,0,0,0,0,0,0,0-.01.01-.02.02-.03,0,0,0,0,0,0,.03-.03.05-.06.08-.09,0,0,0,0,0,0,0-.01.02-.02.02-.03h0s.05-.06.07-.09c0,0,0,0,0,0,0-.01.01-.02.02-.03,0,0,0,0,0,0,.02-.03.05-.06.07-.09,0,0,0,0,0,0,0-.01.01-.02.02-.03,0,0,0,0,0,0,.02-.03.05-.06.07-.09,0,0,0,0,0,0,0-.01.01-.02.02-.03,0,0,0,0,0,0,.03-.03.05-.06.08-.09h0s.02-.02.02-.03c0,0,0,0,0,0,0-.01.02-.02.02-.03h0s.05-.06.08-.09c0,0,0,0,0,0,.04-.04.07-.08.1-.13,0,0,0,0,0,0,0-.01.02-.02.03-.03h0s.05-.06.08-.09c0,0,0,0,0,0,0-.01.02-.02.03-.03h0s.07-.09.11-.13h0s.05-.06.08-.1h0s.02-.02.03-.03c0,0,0,0,0,0,.04-.04.07-.08.1-.12,0,0,0,0,0,0,.03-.03.05-.06.08-.09h0s.02-.02.02-.03c0,0,0,0,0,0,0-.01.01-.02.02-.03h0s.05-.06.08-.09c0,0,0,0,0,0,0-.01.02-.02.02-.03,0,0,0,0,0,0,.03-.03.05-.06.08-.09h0s.02-.02.03-.03h0s.05-.06.08-.09c0,0,0,0,0,0,0-.01.01-.02.02-.03,0,0,0,0,0,0,.02-.03.05-.06.07-.09,0,0,0,0,0,0,0-.01.01-.02.02-.03,0,0,0,0,0,0,.03-.03.05-.06.08-.09h0s.02-.02.03-.03c0,0,0,0,0,0,.04-.04.07-.08.11-.12h0s.07-.08.11-.13c0,0,0,0,0,0,0-.01.01-.02.02-.03,0,0,0,0,0,0,.03-.03.05-.06.08-.09,0,0,0,0,0,0,0-.01.02-.02.02-.03,0,0,0,0,0,0,.03-.03.05-.06.08-.09,0,0,0,0,0,0,0-.01.01-.02.02-.03,0,0,0,0,0,0,.03-.03.05-.06.08-.09,0,0,0,0,0,0,0-.01.01-.02.02-.03,0,0,0,0,0,0,.03-.03.05-.06.08-.09,0,0,0,0,0,0,0-.01.01-.02.02-.03,0,0,0,0,0,0,.03-.04.07-.08.1-.12,0,0,0,0,0,0,.03-.04.07-.08.1-.12,0,0,0,0,0,0,.04-.04.07-.08.11-.12,0,0,0,0,0,0,0-.01.02-.02.03-.03h0s.05-.06.08-.09c0,0,0,0,0,0,0-.01.01-.02.02-.03,0,0,0,0,0,0,.03-.03.05-.06.08-.09,0,0,0,0,0,0,0-.01.02-.02.02-.03,0,0,0,0,0,0,.03-.03.05-.06.08-.09h0s0-.01.01-.02c2.06-2.29,5.58-2.48,7.88-.42,2.29,2.06,2.48,5.58.43,7.88-23.75,26.47-31.73,62.55-21.34,96.51,16.19,52.95,72.44,82.86,125.39,66.67h0c18.92-5.79,35.55-16.88,48.07-32.07,1.96-2.38,5.48-2.72,7.85-.76,2.38,1.96,2.72,5.48.76,7.85-6.5,7.89-14.12,14.93-22.71,20.85h0c-.19.13-.38.26-.57.39h0s-.07.05-.1.07c0,0,0,0,0,0-.03.02-.07.05-.1.07h0s-.07.05-.1.07h0s-.07.05-.1.07h0s-.07.05-.1.07c0,0,0,0,0,0-.03.02-.07.05-.1.07,0,0,0,0,0,0-.04.02-.07.05-.1.07h0c-.12.08-.24.16-.37.25,0,0,0,0,0,0-.03.02-.07.05-.1.07,0,0,0,0,0,0-.04.02-.07.05-.1.07h0s-.07.05-.11.07h0s-.07.05-.11.07h0s-.07.05-.11.07h0s-.07.05-.11.07h0s-.07.05-.11.07h0c-.05.03-.11.07-.16.1h0c-.07.05-.14.09-.21.14,0,0,0,0,0,0-.04.02-.07.05-.11.07h0s-.07.05-.11.07h0s-.07.05-.1.07h0s-.07.05-.11.07h0c-.07.05-.14.09-.21.14h0c-.13.08-.25.16-.37.24h0s-.07.05-.11.07h0s-.07.04-.11.07h0s-.07.04-.11.07h0s-.07.04-.11.07h0s-.07.04-.1.07h0s-.07.05-.11.07c0,0,0,0,0,0-.04.02-.07.04-.11.07h0s-.07.04-.11.07h0s-.04.02-.05.03h0s-.07.04-.11.07h0s-.07.04-.11.07h0s-.07.04-.11.07h0s-.07.04-.11.07h0s-.07.04-.11.07h0s-.07.05-.11.07h0s-.07.04-.11.07h0s-.07.04-.11.07c0,0,0,0,0,0-.04.02-.07.04-.11.06h0s-.07.04-.11.07h0s-.03.02-.05.03h0s-.07.04-.11.06h0s-.04.02-.05.03h0s-.03.02-.05.03c0,0,0,0,0,0-.04.02-.07.04-.11.06h0s-.07.04-.11.07h0s-.07.04-.11.06h0s-.07.04-.11.07h0s-.07.04-.11.07c0,0,0,0,0,0-.03.02-.07.04-.11.06,0,0,0,0,0,0-.04.02-.07.04-.11.06h0s-.03.02-.05.03h0s-.04.02-.05.03h0s-.03.02-.05.03h0s-.07.04-.11.06c0,0,0,0,0,0-.04.02-.07.04-.11.06,0,0,0,0,0,0-.03.02-.07.04-.11.06,0,0,0,0,0,0-.03.02-.07.04-.11.06h0s-.07.04-.11.06h0s-.07.04-.1.06c0,0,0,0,0,0-.03.02-.07.04-.1.06,0,0,0,0,0,0-.02,0-.03.02-.05.03h0s-.04.02-.05.03c0,0,0,0,0,0-.02,0-.03.02-.05.03h0s-.03.02-.05.03h0s-.03.02-.05.03h0s-.03.02-.05.03h0s-.03.02-.05.03c0,0,0,0,0,0-.02,0-.03.02-.05.03h0s-.03.02-.05.03c0,0,0,0,0,0-.03.02-.07.04-.11.06,0,0,0,0,0,0-.03.02-.07.04-.11.06h0s-.07.04-.11.06h0s-.07.04-.11.06h0s-.07.04-.11.06c0,0,0,0,0,0-.04.02-.07.04-.11.06,0,0,0,0,0,0-.04.02-.07.04-.11.06,0,0,0,0,0,0-.02,0-.03.02-.05.03h0s-.04.02-.05.03h0s-.04.02-.05.03h0s-.04.02-.05.03h0s-.03.02-.05.03c0,0,0,0,0,0-.02,0-.04.02-.05.03h0s-.04.02-.05.03c0,0,0,0,0,0-.04.02-.07.04-.11.06,0,0,0,0,0,0-.04.02-.07.04-.11.06h0s-.07.04-.11.06h0s-.07.04-.11.06h0s-.07.04-.11.06c0,0,0,0,0,0-.04.02-.07.04-.11.06,0,0,0,0,0,0-.04.02-.07.04-.11.06,0,0,0,0,0,0-.02,0-.04.02-.05.03h0s-.04.02-.06.03h0s-.04.02-.05.03h0s-.04.02-.05.03h0s-.03.02-.05.03c0,0,0,0,0,0-.04.02-.07.04-.11.06,0,0,0,0,0,0-.04.02-.07.04-.11.06,0,0,0,0,0,0-.04.02-.07.04-.11.06h0s-.07.04-.11.06h0s-.07.04-.11.06c0,0,0,0,0,0-.04.02-.07.04-.11.06,0,0,0,0,0,0-.02,0-.03.02-.05.03,0,0,0,0,0,0-.02,0-.04.02-.05.03,0,0,0,0,0,0-.02,0-.03.02-.05.03h0s-.04.02-.05.03c0,0,0,0,0,0-.02,0-.03.02-.05.03h0s-.04.02-.05.03h0s-.03.02-.05.03c0,0,0,0,0,0-.02,0-.04.02-.05.03h0s-.03.02-.05.03c0,0,0,0,0,0-.04.02-.07.04-.11.06,0,0,0,0,0,0-.04.02-.07.04-.11.06,0,0,0,0,0,0-.04.02-.07.04-.11.06h0s-.07.04-.11.06h0s-.07.04-.11.06c0,0,0,0,0,0-.04.02-.07.04-.11.06,0,0,0,0,0,0-.04.02-.07.04-.11.05,0,0,0,0,0,0-.02,0-.03.02-.05.02h0s-.04.02-.05.03c0,0,0,0,0,0-.02,0-.03.02-.05.02h0s-.04.02-.05.03h0s-.03.02-.05.03c0,0,0,0,0,0-.02,0-.03.02-.05.03h0s-.03.02-.05.03c0,0,0,0,0,0-.02,0-.04.02-.05.03,0,0,0,0,0,0-.02,0-.03.02-.05.02,0,0,0,0,0,0-.04.02-.07.04-.11.05,0,0,0,0,0,0-.04.02-.07.04-.11.05h0s-.07.04-.11.06c0,0,0,0,0,0-.04.02-.07.04-.11.05,0,0,0,0,0,0-.04.02-.07.04-.11.05,0,0,0,0,0,0-.02,0-.03.02-.05.02,0,0,0,0,0,0-.02,0-.04.02-.05.03,0,0,0,0,0,0-.02,0-.03.02-.05.02h0s-.04.02-.05.03h0s-.03.02-.05.03h0s-.04.02-.05.03h0s-.03.02-.05.03c0,0,0,0,0,0-.02,0-.04.02-.05.03h0s-.03.02-.05.03c0,0,0,0,0,0-.02,0-.04.02-.05.03,0,0,0,0,0,0-.02,0-.03.02-.05.03,0,0,0,0,0,0-.04.02-.07.03-.11.05,0,0,0,0,0,0-.04.02-.07.03-.11.05h0s-.07.04-.11.06c0,0,0,0-.01,0-.04.02-.07.03-.11.05,0,0,0,0,0,0-.02,0-.03.02-.05.03,0,0,0,0,0,0-.02,0-.04.02-.05.03,0,0,0,0,0,0-.02,0-.03.02-.05.02h0s-.03.02-.05.03c0,0,0,0,0,0-.01,0-.03.02-.05.02h0s-.04.02-.05.03c0,0,0,0-.01,0-.01,0-.03.01-.05.02,0,0,0,0,0,0-.02,0-.04.02-.05.03h0s-.03.02-.05.03c0,0,0,0,0,0-.02,0-.04.02-.05.03h0s-.03.02-.05.03c0,0,0,0,0,0-.02,0-.04.02-.05.03,0,0,0,0,0,0-.02,0-.03.02-.05.02,0,0,0,0,0,0-.02,0-.04.02-.05.03h0s-.03.02-.05.03c0,0,0,0-.01,0-.04.02-.07.03-.11.05,0,0,0,0-.01,0-.04.02-.07.03-.11.05,0,0,0,0-.01,0-.02,0-.03.02-.05.02,0,0,0,0,0,0-.02,0-.03.02-.05.02,0,0,0,0-.01,0-.02,0-.03.01-.05.02,0,0,0,0,0,0-.02,0-.03.02-.05.02,0,0,0,0,0,0-.02,0-.03.02-.05.02h0s-.04.02-.05.03c0,0,0,0,0,0-.01,0-.03.01-.05.02,0,0,0,0,0,0-.02,0-.04.02-.05.02,0,0,0,0,0,0-.01,0-.03.01-.05.02,0,0,0,0-.01,0-.02,0-.04.02-.05.02h0s-.03.02-.05.02c0,0,0,0-.01,0-.02,0-.03.02-.05.02,0,0,0,0,0,0-.02,0-.03.01-.05.02,0,0,0,0-.01,0-.02,0-.04.02-.05.02,0,0,0,0,0,0-.02,0-.04.02-.05.02,0,0,0,0-.01,0-.04.02-.07.03-.11.05,0,0,0,0-.01,0-.04.02-.07.03-.11.05,0,0,0,0-.01,0-.04.02-.07.03-.11.05,0,0,0,0-.01,0-.02,0-.03.02-.05.02,0,0,0,0,0,0-.02,0-.04.02-.05.02,0,0,0,0-.01,0-.02,0-.03.02-.05.02,0,0,0,0,0,0-.02,0-.04.02-.05.02,0,0,0,0,0,0-.02,0-.03.02-.05.02h0s-.04.02-.06.03c0,0,0,0,0,0-.02,0-.03.02-.05.02h0s-.04.02-.06.03h0s-.03.02-.05.02c0,0,0,0,0,0-.02,0-.04.02-.05.02h0s-.03.02-.05.02c0,0,0,0,0,0-.02,0-.04.02-.05.02,0,0,0,0,0,0-.02,0-.03.01-.05.02,0,0,0,0-.01,0-.02,0-.03.02-.05.02,0,0,0,0,0,0-.02,0-.03.01-.05.02,0,0,0,0-.01,0-.04.02-.07.03-.11.05,0,0,0,0-.01,0-.04.02-.07.03-.11.05,0,0,0,0-.01,0-.02,0-.03.02-.05.02h0s-.04.02-.05.02c0,0,0,0-.01,0-.02,0-.03.01-.05.02,0,0,0,0,0,0-.02,0-.04.02-.05.02,0,0,0,0-.01,0-.02,0-.03.01-.05.02h0s-.04.02-.05.03c0,0,0,0,0,0-.02,0-.03.01-.05.02h0s-.04.02-.05.03c0,0,0,0,0,0-.02,0-.03.01-.05.02,0,0,0,0,0,0-.02,0-.04.02-.05.02h0s-.03.02-.05.02c0,0,0,0-.01,0-.02,0-.04.02-.05.02,0,0,0,0,0,0-.02,0-.03.01-.05.02,0,0,0,0-.01,0-.02,0-.04.02-.05.02,0,0,0,0,0,0-.02,0-.03.01-.05.02,0,0,0,0-.01,0-.02,0-.04.02-.05.02h0s-.03.02-.05.02c0,0,0,0-.01,0-.04.02-.07.03-.11.05,0,0,0,0-.01,0-.04.02-.07.03-.11.05,0,0,0,0-.01,0-.02,0-.03.01-.05.02,0,0,0,0,0,0-.02,0-.04.02-.05.02,0,0,0,0-.01,0-.02,0-.04.01-.05.02,0,0,0,0,0,0-.02,0-.04.02-.06.02,0,0,0,0,0,0-.02,0-.03.01-.05.02h0s-.04.02-.05.03c0,0,0,0-.01,0-.02,0-.03.01-.05.02h0s-.04.02-.06.03h0s-.03.02-.05.02c0,0,0,0,0,0-.02,0-.04.02-.06.02h0s-.03.02-.05.02c0,0,0,0,0,0-.02,0-.04.02-.06.02,0,0,0,0,0,0-.02,0-.03.01-.05.02,0,0,0,0,0,0-.02,0-.04.02-.06.02,0,0,0,0,0,0-.02,0-.04.01-.05.02,0,0,0,0-.01,0-.02,0-.04.02-.06.02h0s-.03.02-.05.02c0,0,0,0-.01,0-.04.01-.07.03-.11.05,0,0,0,0-.01,0-.02,0-.04.02-.05.02h0s-.04.01-.05.02c0,0,0,0-.01,0-.02,0-.03.01-.05.02,0,0,0,0,0,0-.02,0-.04.01-.05.02,0,0,0,0-.01,0-.02,0-.03.01-.05.02,0,0,0,0,0,0-.02,0-.04.01-.05.02,0,0,0,0-.01,0-.02,0-.03.01-.05.02,0,0,0,0,0,0-.02,0-.04.01-.05.02,0,0,0,0-.01,0-.02,0-.03.01-.05.02,0,0,0,0,0,0-.02,0-.04.02-.05.02h0s-.03.02-.05.02c0,0,0,0-.01,0-.02,0-.04.02-.05.02h0s-.03.02-.05.02c0,0,0,0-.01,0-.02,0-.04.01-.05.02,0,0,0,0,0,0-.02,0-.03.01-.05.02,0,0,0,0-.01,0-.02,0-.04.01-.06.02,0,0,0,0,0,0-.02,0-.04.01-.05.02,0,0,0,0-.01,0-.04.01-.07.03-.11.04,0,0,0,0-.01,0-.02,0-.04.01-.05.02h0s-.04.02-.05.02c0,0,0,0-.01,0-.04.01-.07.03-.11.04,0,0,0,0-.01,0-.02,0-.03.01-.05.02,0,0,0,0,0,0-.02,0-.04.01-.05.02,0,0,0,0-.01,0-.02,0-.03.01-.05.02,0,0,0,0,0,0-.02,0-.04.01-.05.02,0,0,0,0-.01,0-.02,0-.03.01-.05.02h0s-.04.02-.05.03c0,0,0,0-.01,0-.02,0-.03.01-.05.02,0,0,0,0,0,0-.02,0-.04.01-.05.02,0,0,0,0-.01,0-.02,0-.03.01-.05.02,0,0,0,0-.01,0-.02,0-.04.01-.05.02,0,0,0,0,0,0-.02,0-.03.01-.05.02,0,0,0,0-.01,0-.02,0-.04.01-.05.02,0,0,0,0-.01,0-.02,0-.03.01-.05.02,0,0-.01,0-.01,0-.02,0-.04.01-.05.02,0,0,0,0,0,0-.02,0-.03.01-.05.02,0,0,0,0-.01,0-.02,0-.04.01-.05.02h0s-.03.01-.05.02c0,0,0,0-.01,0-.02,0-.04.01-.05.02h0s-.04.01-.05.02t-.01,0s-.03.01-.05.02c0,0,0,0,0,0-.02,0-.04.01-.05.02,0,0,0,0-.01,0-.02,0-.03.01-.05.02,0,0,0,0,0,0-.02,0-.04.01-.05.02,0,0,0,0-.01,0-.02,0-.03.01-.05.02,0,0,0,0-.01,0-.02,0-.04.01-.05.02,0,0-.01,0-.01,0-.02,0-.03.01-.04.02,0,0,0,0-.01,0-.02,0-.04.01-.05.02,0,0,0,0-.01,0-.02,0-.03.01-.04.02,0,0-.01,0-.01,0-.02,0-.03.01-.05.02,0,0,0,0-.01,0-.02,0-.03.01-.04.02,0,0-.01,0-.01,0-.02,0-.04.01-.05.02,0,0,0,0,0,0-.02,0-.03.01-.05.02,0,0,0,0-.01,0-.02,0-.04.01-.05.02,0,0,0,0,0,0-.02,0-.03.01-.05.02,0,0-.01,0-.01,0-.02,0-.04.01-.05.02,0,0,0,0,0,0-.02,0-.03.01-.05.02,0,0,0,0-.02,0-.02,0-.04.01-.05.02h0s-.04.01-.05.02c0,0,0,0-.02,0-.02,0-.03.01-.05.02h0s-.04.01-.05.02c0,0,0,0-.01,0-.02,0-.03.01-.05.02t0,0s-.04.01-.05.02c0,0-.01,0-.01,0-.02,0-.03.01-.05.02,0,0,0,0,0,0-.02,0-.04.01-.05.02,0,0-.01,0-.02,0-.02,0-.03.01-.04.02,0,0,0,0-.01,0-.02,0-.04.01-.05.02,0,0-.01,0-.01,0-.02,0-.03.01-.05.02,0,0,0,0-.01,0-.02,0-.04.01-.05.02,0,0,0,0-.01,0-.02,0-.03.01-.05.02,0,0,0,0-.01,0-.02,0-.04.01-.06.02h0s-.03.02-.05.02c0,0,0,0-.01,0-.02,0-.04.01-.06.02,0,0,0,0,0,0-.02,0-.03.01-.05.02,0,0,0,0-.01,0-.02,0-.04.01-.06.02,0,0,0,0,0,0-.02,0-.03.01-.05.02,0,0,0,0-.01,0-.02,0-.04.01-.06.02h0s-.04.01-.05.02c0,0,0,0-.01,0-.04.01-.08.03-.11.04,0,0,0,0-.01,0-.02,0-.04.01-.05.02h0s-.04.01-.06.02c0,0,0,0-.01,0-.02,0-.03.01-.05.02,0,0,0,0,0,0-.02,0-.04.01-.06.02,0,0,0,0-.01,0-.02,0-.03.01-.05.02,0,0,0,0,0,0-.02,0-.04.01-.06.02,0,0,0,0-.01,0-.02,0-.03.01-.05.02h0s-.04.02-.06.02c0,0,0,0-.01,0-.02,0-.03.01-.05.02,0,0,0,0-.01,0-.02,0-.04.01-.06.02,0,0,0,0-.01,0-.02,0-.03.01-.05.02,0,0,0,0-.01,0-.02,0-.04.01-.06.02,0,0,0,0-.01,0-.02,0-.03.01-.05.02,0,0,0,0-.01,0-.02,0-.04.01-.06.02,0,0,0,0,0,0-.02,0-.03.01-.05.02,0,0-.01,0-.01,0-.02,0-.04.01-.06.02,0,0,0,0,0,0-.02,0-.03.01-.05.02,0,0,0,0-.02,0-.02,0-.04.01-.05.02,0,0,0,0,0,0-.02,0-.03.01-.05.02,0,0,0,0-.01,0-.02,0-.04.01-.05.02h0s-.04.01-.06.02c0,0,0,0-.01,0-.02,0-.04.01-.05.02h0s-.04.01-.06.02c0,0-.01,0-.01,0-.02,0-.03.01-.05.02,0,0,0,0,0,0-.02,0-.04.01-.06.02-.02,0-.04.01-.06.02,0,0,0,0,0,0-.02,0-.04.01-.06.02-.02,0-.04.01-.06.02h0s-.04.02-.06.02c-.02,0-.04.01-.06.02,0,0,0,0-.01,0-.02,0-.04.01-.05.02-.02,0-.04.01-.06.02-.02,0-.05.02-.07.02-.02,0-.04.01-.06.02-.02,0-.05.02-.07.02-.02,0-.04.01-.06.02-.02,0-.05.02-.07.02-.02,0-.04.01-.06.02-.02,0-.05.02-.07.02h0s-.04.01-.07.02c-.02,0-.04.01-.06.02-.03,0-.04.01-.07.02-.02,0-.04.01-.06.02-.02,0-.05.02-.07.02-.02,0-.04.01-.06.02-.02,0-.05.02-.07.02-.02,0-.04.01-.06.02-.02,0-.05.02-.07.02-.02,0-.04.01-.06.02-.02,0-.05.02-.07.02-.02,0-.04.01-.06.02-.03,0-.04.01-.07.02-.02,0-.04.01-.06.02-.02,0-.04.01-.07.02-.02,0-.04.01-.06.02-.02,0-.04.01-.06.02-.02,0-.04.01-.06.02-.02,0-.04.01-.06.02-.02,0-.04.01-.07.02-.02,0-.04.01-.06.02h0s-.04.01-.07.02c-.02,0-.03.01-.05.02h0s-.05.02-.07.02c-.02,0-.04.01-.06.02-.02,0-.05.02-.07.02-.02,0-.04.01-.06.02-.02,0-.05.01-.07.02-.02,0-.04.01-.06.02-.02,0-.05.01-.07.02-.02,0-.04.01-.06.02-.02,0-.05.01-.07.02-.02,0-.04.01-.06.02-.03,0-.04.01-.07.02-.02,0-.04.01-.06.02-.02,0-.04.01-.07.02-.02,0-.04.01-.06.02-.02,0-.04.01-.06.02-.02,0-.04.01-.06.02-.02,0-.04.01-.06.02-.02,0-.04.01-.07.02-.02,0-.04.01-.06.02h0Z"/>
    </g>
  </g>
</svg>