<?xml version="1.0" encoding="UTF-8"?>
<svg xmlns="http://www.w3.org/2000/svg" xmlns:xlink="http://www.w3.org/1999/xlink" viewBox="0 0 339.51 237.34">
  <defs>
    <style>
      .cls-1 {
        fill: #dba8a7;
      }

      .cls-2 {
        fill: none;
      }

      .cls-3 {
        fill: #f37677;
      }

      .cls-4 {
        fill: #b22b2b;
      }
    </style>
  </defs>
  <g id="Layer_1" data-name="Layer 1">
    <image width="2362" height="2362" transform="translate(97.13 27.94) scale(.09)" xlink:href="D:\USB DRIVE FOR SCH\Life In RP\Portfolio Development\my pic png circle.png"/>
  </g>
  <g id="Layer_2" data-name="Layer 2">
    <circle id="Ellipse_1" data-name="Ellipse 1" class="cls-4" cx="70.04" cy="140.85" r="70.04"/>
    <g id="Path_1" data-name="Path 1">
      <path class="cls-2" d="m230.53,216.61c-55,16.82-113.22-14.14-130.04-69.14-16.82-55,14.14-113.22,69.14-130.04s113.22,14.14,130.04,69.14c16.82,55-14.14,113.22-69.14,130.04Z"/>
      <path class="cls-3" d="m291.9,163.48c-.9.27-1.89.23-2.81-.2-1.95-.92-2.79-3.25-1.87-5.2,10.22-21.69,11.99-46.27,4.98-69.22-15.53-50.8-69.49-79.49-120.29-63.96-9.03,2.76-17.56,6.79-25.34,11.98-1.79,1.2-4.22.71-5.42-1.08-1.19-1.79-.71-4.21,1.07-5.41,4.32-2.88,8.89-5.46,13.69-7.7h0s.05-.02.07-.03c0,0,0,0,0,0,.1-.05.2-.09.3-.14h0c.1-.05.2-.09.3-.14,0,0,0,0,0,0,.04-.02.07-.03.11-.05h0s.07-.03.11-.05h0s.05-.02.07-.03c0,0,0,0,0,0,.07-.03.15-.07.22-.1h0s.05-.02.07-.03c0,0,0,0,0,0,.02-.01.05-.02.07-.03,0,0,0,0,0,0,.01,0,.02-.01.04-.02,0,0,0,0,0,0,.02-.01.05-.02.07-.03,0,0,0,0,0,0,.01,0,.02,0,.03-.02,0,0,0,0,0,0,.02-.01.05-.02.07-.03,0,0,0,0,0,0,.03-.01.05-.02.07-.03,0,0,0,0,0,0,.01,0,.02,0,.03-.02,0,0,0,0,0,0,.03-.01.05-.02.07-.03,0,0,0,0,0,0,.01,0,.02,0,.03-.02,0,0,0,0,0,0,.01,0,.02-.01.04-.02,0,0,0,0,0,0,.01,0,.02,0,.03-.01,0,0,0,0,0,0,.03-.01.05-.02.07-.03,0,0,0,0,0,0,.01,0,.02,0,.03-.02,0,0,0,0,0,0,.03-.01.05-.02.07-.03,0,0,0,0,0,0,.01,0,.02-.01.04-.02,0,0,0,0,0,0,.01,0,.02-.01.04-.02h0s.02,0,.03-.02c0,0,0,0,0,0,.03-.01.05-.02.07-.03,0,0,0,0,0,0,.01,0,.02,0,.03-.01,0,0,0,0,0,0,.01,0,.02-.01.04-.02,0,0,0,0,0,0,.01,0,.02,0,.03-.01,0,0,0,0,0,0,.03-.01.05-.02.07-.03,0,0,0,0,0,0,0,0,.02,0,.03-.01,0,0,0,0,0,0,.03-.01.04-.02.07-.03,0,0,0,0,0,0,.01,0,.02,0,.03-.01,0,0,0,0,0,0,.01,0,.02-.01.04-.02,0,0,0,0,0,0,.01,0,.02,0,.03-.01,0,0,0,0,0,0,.01,0,.02,0,.03-.01,0,0,0,0,0,0,.01,0,.02-.01.04-.02,0,0,0,0,0,0,.01,0,.02,0,.03-.01,0,0,0,0,0,0,.03-.01.05-.02.07-.03,0,0,0,0,0,0,.01,0,.02,0,.03-.01,0,0,0,0,0,0,.01,0,.02,0,.04-.02,0,0,0,0,0,0,.01,0,.02,0,.03-.01,0,0,0,0,0,0,.01,0,.02,0,.03-.01h0s.02,0,.03-.02c0,0,0,0,0,0,0,0,.02,0,.03-.01,0,0,0,0,0,0,.01,0,.02,0,.03-.01h0s.02,0,.03-.01c0,0,0,0,0,0,.01,0,.02,0,.03-.01,0,0,0,0,0,0,.01,0,.02,0,.03-.01,0,0,0,0,0,0,0,0,.02,0,.03-.01,0,0,0,0,0,0,.01,0,.02,0,.03-.01,0,0,0,0,0,0,.01,0,.02,0,.03-.01,0,0,0,0,0,0,0,0,.02,0,.03-.01,0,0,0,0,0,0,.01,0,.02,0,.03-.01,0,0,0,0,0,0,.01,0,.02,0,.03-.01,0,0,0,0,0,0,.01,0,.02,0,.03-.01,0,0,0,0,0,0,.01,0,.02,0,.03-.01,0,0,0,0,0,0,0,0,.02,0,.03-.01,0,0,0,0,0,0,.01,0,.02,0,.03-.01,0,0,0,0,0,0,.01,0,.02,0,.03-.01,0,0,0,0,0,0,0,0,.02,0,.03-.01,0,0,0,0,.01,0,.01,0,.02,0,.03-.01,0,0,0,0,0,0,.01,0,.02,0,.03-.01,0,0,0,0,0,0,.01,0,.02,0,.03-.01,0,0,0,0,0,0,.01,0,.02,0,.03-.01,0,0,0,0,0,0,0,0,.02,0,.03-.01,0,0,0,0,0,0,.01,0,.02,0,.03-.01,0,0,0,0,0,0,.01,0,.02,0,.03-.01,0,0,0,0,0,0,0,0,.02,0,.03-.01,0,0,0,0,0,0,.01,0,.02,0,.03-.01,0,0,0,0,0,0,0,0,.02,0,.03-.01,0,0,0,0,0,0,.03-.01.04-.02.07-.03,0,0,0,0,0,0,.01,0,.02,0,.03-.01,0,0,0,0,0,0,.01,0,.02,0,.04-.01,0,0,0,0,0,0,.01,0,.02,0,.03-.01,0,0,0,0,0,0,0,0,.02,0,.03-.01,0,0,0,0,0,0,.01,0,.02,0,.03-.01,0,0,0,0,0,0,0,0,.02,0,.03-.01,0,0,0,0,0,0,.03-.01.04-.02.07-.03,0,0,0,0,0,0,0,0,.02,0,.03-.01,0,0,0,0,0,0,.01,0,.02,0,.04-.01,0,0,0,0,0,0,.01,0,.02,0,.03-.01,0,0,0,0,0,0,.01,0,.02,0,.03-.01,0,0,0,0,0,0,.01,0,.02,0,.04-.01,0,0,0,0,0,0,.01,0,.02,0,.03-.01,0,0,0,0,0,0,.03-.01.04-.02.07-.03,0,0,0,0,0,0,0,0,.02,0,.03-.01,0,0,0,0,0,0,.01,0,.02,0,.04-.01,0,0,0,0,0,0,0,0,.02,0,.03-.01,0,0,0,0,0,0,0,0,.02,0,.03-.01,0,0,0,0,0,0,.01,0,.02,0,.03-.01,0,0,0,0,0,0,0,0,.02,0,.03-.01,0,0,0,0,0,0,.01,0,.02,0,.03-.01,0,0,0,0,0,0,.01,0,.02,0,.03-.01,0,0,0,0,0,0,.01,0,.02,0,.03-.01,0,0,0,0,0,0,.01,0,.02,0,.03-.01,0,0,0,0,0,0,0,0,.02,0,.03-.01,0,0,0,0,.01,0,.01,0,.02,0,.03-.01,0,0,0,0,0,0,.01,0,.02,0,.03-.01,0,0,0,0,0,0,0,0,.02,0,.03-.01,0,0,0,0,0,0,.01,0,.02,0,.03-.01,0,0,0,0,0,0,0,0,.02,0,.03-.01,0,0,0,0,.01,0,0,0,.02,0,.03-.01,0,0,0,0,0,0,.01,0,.02,0,.03-.01,0,0,0,0,0,0,0,0,.02,0,.03-.01,0,0,0,0,0,0,.01,0,.02,0,.03-.01,0,0,0,0,0,0,.01,0,.02,0,.03-.01,0,0,0,0,0,0,0,0,.02,0,.03-.01,0,0,0,0,0,0,.01,0,.02,0,.04-.01,0,0,0,0,0,0,0,0,.02,0,.03-.01,0,0,0,0,.01,0,0,0,.02,0,.03-.01,0,0,0,0,0,0,.01,0,.02,0,.03-.01,0,0,0,0,.01,0,0,0,.02,0,.03-.01,0,0,0,0,.01,0,.01,0,.02,0,.03-.01,0,0,0,0,0,0,.01,0,.02,0,.03-.01,0,0,0,0,.01,0,0,0,.02,0,.03-.01,0,0,0,0,0,0,.01,0,.02,0,.04-.01,0,0,0,0,0,0,0,0,.02,0,.03-.01,0,0,0,0,.01,0,.01,0,.02,0,.03-.01,0,0,0,0,0,0,.01,0,.02,0,.03-.01,0,0,0,0,0,0,0,0,.02,0,.03-.01,0,0,0,0,0,0,.01,0,.02,0,.03-.01,0,0,0,0,0,0,0,0,.02,0,.03-.01,0,0,.03-.01.04-.01,0,0,0,0,0,0,.01,0,.02,0,.03-.01,0,0,.03-.01.04-.01,0,0,0,0,.01,0,.03-.01.04-.02.07-.03,0,0,0,0,0,0,.01,0,.02,0,.03-.01,0,0,0,0,0,0,.01,0,.02,0,.04-.01,0,0,0,0,0,0,.01,0,.02,0,.03-.01,0,0,0,0,0,0,.01,0,.02,0,.03-.01,0,0,0,0,0,0,.01,0,.02,0,.04-.01,0,0,0,0,0,0,.01,0,.02,0,.03-.01,0,0,0,0,0,0,.01,0,.02,0,.04-.01,0,0,0,0,0,0,.01,0,.02,0,.03-.01,0,0,0,0,0,0,.01,0,.02,0,.03-.01,0,0,0,0,0,0,.01,0,.02,0,.03-.01,0,0,.03-.01.04-.01,0,0,0,0,0,0,.01,0,.02,0,.03-.01,0,0,0,0,0,0,.01,0,.02,0,.04-.01,0,0,.03-.01.04-.01,0,0,0,0,0,0,.01,0,.02,0,.03-.01,0,0,0,0,0,0,.01,0,.02,0,.03-.01,0,0,.03-.01.04-.01,0,0,0,0,0,0,.01,0,.02,0,.03-.01,0,0,.03,0,.04-.01,0,0,0,0,0,0,.01,0,.02,0,.03-.01,0,0,0,0,0,0,.01,0,.02,0,.04-.01,0,0,.03,0,.04-.01,0,0,0,0,0,0,.01,0,.02,0,.03-.01,0,0,0,0,0,0,.01,0,.02,0,.03-.01,0,0,0,0,0,0,.01,0,.02,0,.03-.01,0,0,0,0,0,0,.01,0,.02,0,.03-.01.01,0,.03,0,.04-.01,0,0,0,0,.01,0,.01,0,.02,0,.03-.01,0,0,0,0,0,0,.01,0,.02,0,.03-.01,0,0,.03-.01.04-.01,0,0,0,0,0,0,.01,0,.02,0,.03-.01,0,0,0,0,0,0,0,0,.02,0,.03-.01,0,0,0,0,.01,0,.01,0,.02,0,.03-.01,0,0,0,0,0,0,.01,0,.02,0,.04-.01,0,0,0,0,0,0,0,0,.02,0,.03-.01,0,0,0,0,0,0,.01,0,.02,0,.04-.01h0s.02,0,.03-.01c0,0,0,0,0,0,0,0,.02,0,.03-.01,0,0,0,0,0,0,.01,0,.02,0,.04-.01,0,0,0,0,0,0,0,0,.02,0,.03-.01,0,0,0,0,0,0,.01,0,.02,0,.03-.01,0,0,0,0,0,0,.01,0,.02,0,.03-.01.01,0,.03,0,.04-.01,0,0,0,0,.01,0,.01,0,.02,0,.03-.01,0,0,0,0,0,0,.01,0,.02,0,.03-.01,0,0,0,0,0,0,.01,0,.02,0,.03-.01,0,0,0,0,0,0,.01,0,.02,0,.04-.01,0,0,0,0,0,0,0,0,.02,0,.03-.01,0,0,0,0,0,0,.03,0,.04-.02.07-.03,0,0,0,0,0,0,0,0,.02,0,.03-.01,0,0,0,0,0,0,.01,0,.02,0,.04-.01,0,0,0,0,0,0,0,0,.02,0,.03-.01.01,0,.03-.01.04-.01,0,0,0,0,0,0,.01,0,.02,0,.03-.01.01,0,.02,0,.04-.01.01,0,.03-.01.04-.01.01,0,.03-.01.04-.01.01,0,.03-.01.04-.01,0,0,0,0,0,0,.01,0,.02,0,.03-.01,0,0,.03,0,.04-.01.01,0,.03-.01.04-.01,0,0,0,0,0,0,.01,0,.02,0,.03-.01,0,0,.03,0,.04-.01,0,0,0,0,0,0,.01,0,.02,0,.04-.01.01,0,.02,0,.03-.01.01,0,.03-.01.04-.01,0,0,0,0,0,0,.01,0,.02,0,.04-.01.01,0,.02,0,.04-.01,0,0,0,0,0,0,.01,0,.02,0,.04-.01h0s.02,0,.04-.01c.01,0,.03,0,.04-.01,0,0,0,0,.01,0,.01,0,.02,0,.03-.01,0,0,.03,0,.03-.01.01,0,.03-.01.04-.01,0,0,0,0,0,0,.01,0,.02,0,.04-.01,0,0,0,0,0,0,.01,0,.02,0,.03-.01,0,0,0,0,0,0,.01,0,.02,0,.04-.01h0s.02,0,.04-.01c0,0,0,0,0,0,.01,0,.02,0,.03-.01,0,0,0,0,0,0,.01,0,.02,0,.04-.01,0,0,0,0,0,0,.01,0,.02,0,.03-.01,0,0,0,0,0,0,.01,0,.02,0,.03-.01,0,0,0,0,0,0,.01,0,.02,0,.04-.01,0,0,.03,0,.04-.01,0,0,0,0,0,0,.01,0,.02,0,.03-.01,0,0,0,0,0,0,.01,0,.02,0,.03-.01.01,0,.03,0,.04-.01,0,0,0,0,0,0,.01,0,.02,0,.04-.01,0,0,.03,0,.04-.01.01,0,.03,0,.04-.01,0,0,0,0,0,0,.02,0,.03,0,.04-.02.01,0,.02,0,.04-.01.01,0,.02,0,.04-.01h0s.03,0,.04-.01c.01,0,.02,0,.04-.01.02,0,.03,0,.04-.01.01,0,.03,0,.04-.01.03,0,.04-.02.07-.02.01,0,.03,0,.04-.01.02,0,.03,0,.04-.01.01,0,.02,0,.04-.01.02,0,.02,0,.04-.01.02,0,.03,0,.04-.01.01,0,.02,0,.04-.01,0,0,0,0,.01,0,.03,0,.04-.02.07-.02.02,0,.02,0,.04-.01.01,0,.03,0,.04-.01.02,0,.02,0,.04-.01.01,0,.03,0,.04-.01.02,0,.03,0,.04-.01,0,0,.03,0,.04-.01.02,0,.03,0,.05-.02.01,0,.02,0,.04-.01.01,0,.03,0,.04-.01.02,0,.03,0,.04-.01.01,0,.03,0,.04-.01.01,0,.03,0,.04-.01.02,0,.03,0,.04-.01.01,0,.03,0,.04-.01.02,0,.03,0,.05-.02,0,0,.03,0,.04-.01.01,0,.03,0,.04-.01.02,0,.03,0,.04-.01,0,0,.03,0,.04-.01.02,0,.03,0,.04-.01.01,0,.02,0,.04-.01.01,0,.03,0,.04-.01.02,0,.03,0,.05-.02.01,0,.02,0,.04-.01.01,0,.03,0,.04-.01.02,0,.03,0,.04-.01.01,0,.03,0,.04-.01,0,0,0,0,.01,0,.03,0,.05-.02.07-.02.01,0,.02,0,.04-.01.02,0,.03,0,.04-.01.02,0,.02,0,.04-.01.02,0,.03,0,.04-.01.01,0,.02,0,.04-.01.01,0,.03,0,.04-.01.02,0,.03,0,.04-.01.01,0,.02,0,.04-.01,0,0,.03,0,.04-.01.02,0,.03,0,.04-.01,0,0,.03,0,.04-.01.02,0,.03,0,.04-.01.01,0,.02,0,.04-.01.01,0,.03,0,.04-.01.02,0,.03,0,.04-.01,0,0,.03,0,.04-.01.01,0,.03,0,.04-.01.02,0,.03,0,.04-.01.01,0,.03,0,.04-.01.02,0,.03,0,.05-.01h0s.03,0,.05-.02c.01,0,.03,0,.04-.01.02,0,.03,0,.04-.01.01,0,.03,0,.04-.01,0,0,.03,0,.04-.01.02,0,.03,0,.04-.01.01,0,.03,0,.04-.01.01,0,.02,0,.04-.01h0s.03,0,.05-.01c0,0,.03,0,.04-.01.02,0,.03,0,.04-.01.01,0,.03,0,.04-.01,0,0,.03,0,.04-.01.02,0,.03,0,.05-.01.01,0,.03,0,.04-.01.01,0,.03,0,.04-.01.01,0,.03,0,.04-.01,0,0,.03,0,.04-.01.02,0,.03,0,.05-.01.01,0,.03,0,.04-.01.01,0,.03,0,.04-.01.02,0,.03,0,.04-.01,0,0,.03,0,.04-.01.02,0,.03,0,.04-.01.01,0,.03,0,.04-.01,0,0,.03,0,.04-.01.02,0,.03,0,.05-.01.01,0,.03,0,.04-.01h.04c55-16.83,113.22,14.13,130.04,69.13,0,.01,0,.03.01.04h0s0,.03,0,.04c0,0,0,.01,0,.02,0,.01,0,.01,0,.02,0,0,0,.01,0,.02,0,.01,0,.01,0,.02,0,0,0,.01,0,.02,0,0,0,.02,0,.02,0,0,0,.01,0,.02,0,0,0,.01,0,.02,0,0,0,.01,0,.02,0,0,0,.01,0,.02,0,0,0,.01,0,.02,0,0,0,.01,0,.02,0,0,0,.01,0,.02,0,0,0,.01,0,.02,0,0,0,.01,0,.02,0,0,0,.01,0,.02,0,0,0,.01,0,.02,0,0,0,.01,0,.02,0,0,0,.01,0,.02,0,.01,0,.01,0,.02,0,0,0,.01,0,.02,0,.01,0,.01,0,.02,0,0,0,.01,0,.01,0,.01,0,.02,0,.03,0,0,0,0,0,.01,0,.03.02.05.02.08,0,0,0,0,0,.02,0,.01,0,.01,0,.02,0,0,0,.01,0,.02,0,.01,0,.01,0,.02,0,0,0,.01,0,.02,0,.01,0,.01,0,.02,0,0,0,.01,0,.02,0,0,0,.02,0,.02,0,0,0,.01,0,.02,0,0,0,.01,0,.02,0,0,0,.01,0,.02,0,0,0,.01,0,.02,0,0,0,.01,0,.02,0,0,0,.01,0,.02,0,0,0,.01,0,.02,0,0,0,.01,0,.02,0,0,0,.01,0,.02,0,0,0,.01,0,.02,0,0,0,.01,0,.02,0,0,0,.01,0,.02,0,0,0,.01,0,.02,0,.01,0,.01,0,.02,0,0,0,.01,0,.02,0,.01,0,.01,0,.02,0,0,0,.01,0,.02,0,.01,0,.02,0,.03,0,0,0,0,0,.01,0,.01,0,.03.01.04,0,0,0,0,0,0,0,.01,0,.02.01.03,0,0,0,0,0,.02,0,.01,0,.01,0,.02,0,0,0,.01,0,.02,0,0,0,.01,0,.02,0,0,0,.01,0,.02,0,0,0,.01,0,.02,0,0,0,.01,0,.02,0,0,0,.01,0,.02,0,0,0,.01,0,.02,0,0,0,.01,0,.02,0,0,0,.01,0,.02,0,0,0,.01,0,.02,0,0,0,.01,0,.02,0,0,0,.01,0,.02,0,0,0,.01,0,.02,0,0,0,.01,0,.02,0,0,0,.01,0,.02,0,0,0,.01,0,.02,0,0,0,.01,0,.02,0,0,0,.01,0,.02,0,0,0,.01,0,.02,0,.01,0,.01,0,.02,0,0,0,.01,0,.02,0,.01,0,.02,0,.03,0,0,0,0,0,.01,0,.01,0,.02,0,.03,0,0,0,0,0,0,0,.03.01.05.02.08,0,0,0,0,0,.01,0,.01,0,.02,0,.03,0,0,0,.01,0,.02,0,.01,0,.01,0,.02,0,0,0,.01,0,.02,0,.01,0,.01,0,.02,0,0,0,0,0,.02,0,0,0,.02,0,.02,0,0,0,.01,0,.02,0,0,0,.01,0,.02,0,0,0,.01,0,.02,0,0,0,.02,0,.02,0,0,0,.01,0,.02,0,0,0,.02,0,.02,0,0,0,.01,0,.02,0,0,0,.02,0,.02,0,0,0,.01,0,.02,0,0,0,.02,0,.02,0,0,0,0,0,.02,0,.01,0,.01,0,.02,0,0,0,.01,0,.02,0,.01,0,.01,0,.02,0,0,0,.01,0,.02,0,.01,0,.01,0,.02,0,0,0,0,0,.02,0,.01,0,.02.01.04,0,0,0,0,0,0,0,.01,0,.03.01.04,0,0,0,0,0,0,0,.01,0,.02.01.04,0,0,0,0,0,.01,0,.01,0,.02,0,.03,0,0,0,.01,0,.02,0,.01,0,.01,0,.02,0,0,0,.01,0,.02,0,0,0,.01,0,.02,0,0,0,.01,0,.02,0,0,0,.01,0,.02,0,0,0,.01,0,.02,0,0,0,.01,0,.02,0,0,0,.01,0,.02,0,0,0,.01,0,.02,0,0,0,.01,0,.02,0,0,0,.02,0,.02,0,0,0,.01,0,.02,0,0,0,.01,0,.02,0,0,0,.01,0,.02,0,0,0,.01,0,.02,0,0,0,.01,0,.02,0,0,0,.01,0,.02,0,0,0,.01,0,.02,0,.01,0,.01,0,.02,0,0,0,.01,0,.02,0,.01,0,.01,0,.02,0,0,0,0,0,.02,0,.01,0,.02,0,.03,0,0,0,0,0,0,0,.03.01.05.02.08,0,0,0,0,0,.01,0,.01,0,.02,0,.03,0,0,0,0,0,.01,0,.01,0,.02,0,.03,0,0,0,.01,0,.02,0,0,0,.02,0,.02,0,0,0,.01,0,.02,0,0,0,.01,0,.02,0,0,0,.01,0,.02,0,0,0,.02,0,.02,0,0,0,.01,0,.02,0,0,0,.02,0,.02,0,0,0,.01,0,.02,0,0,0,.02,0,.02,0,0,0,.01,0,.02,0,0,0,.02,0,.02,0,0,0,.01,0,.02,0,0,0,.02,0,.02,0,0,0,.01,0,.02,0,.01,0,.01,0,.02,0,0,0,.01,0,.02,0,.01,0,.01,0,.02,0,0,0,0,0,.01,0,.01,0,.01,0,.02,0,0,0,.01,0,.02,0,.03.01.05.02.08,0,0,0,0,0,0,0,.01,0,.02,0,.03,0,0,0,0,0,.01,0,.01,0,.02,0,.03,0,0,0,0,0,.01,0,.01,0,.01,0,.02,0,0,0,.01,0,.01,0,0,0,.02,0,.02,0,0,0,.01,0,.02,0,0,0,.02,0,.02,0,0,0,.01,0,.02,0,0,0,.01,0,.02,0,0,0,.01,0,.02,0,0,0,.01,0,.02,0,0,0,.01,0,.02,0,0,0,.02,0,.02,0,0,0,.01,0,.02,0,0,0,.02,0,.02,0,0,0,.01,0,.02,0,0,0,.02,0,.02,0,0,0,.01,0,.02,0,.01,0,.01,0,.02,0,0,0,.01,0,.02,0,.01,0,.01,0,.02,0,0,0,.01,0,.02,0,.01,0,.02,0,.03,0,0,0,0,0,.01,0,.01,0,.03.01.04h0s0,.03.01.04c0,0,0,0,0,0,0,.01,0,.02,0,.04,0,0,0,0,0,.01,0,.01,0,.02,0,.03,0,0,0,0,0,.01,0,.01,0,.02,0,.03,0,0,0,.01,0,.02,0,.01,0,.01,0,.02,0,0,0,.01,0,.01,0,0,0,.02,0,.02,0,0,0,.01,0,.02,0,0,0,.02,0,.02,0,0,0,.01,0,.02,0,0,0,.01,0,.02,0,0,0,.01,0,.02,0,0,0,.01,0,.02,0,0,0,.01,0,.02,0,0,0,.01,0,.02,0,0,0,.01,0,.02,0,0,0,.02,0,.02,0,0,0,.01,0,.02,0,.01,0,.01,0,.02,0,0,0,.01,0,.02,0,.01,0,.02,0,.03,0,0,0,0,0,.01,0,.01,0,.02,0,.03,0,0,0,0,0,0,0,.03.01.05.02.08,0,0,0,0,0,.01,0,.01,0,.02,0,.03,0,0,0,.01,0,.02,0,.01,0,.01,0,.02,0,0,0,.01,0,.02,0,.01,0,.01,0,.02,0,0,0,.01,0,.02,0,0,0,.02,0,.02,0,0,0,.01,0,.02,0,0,0,.01,0,.02,0,0,0,.01,0,.02,0,0,0,.01,0,.02,0,0,0,.01,0,.02,0,0,0,.01,0,.02,0,0,0,.01,0,.02,0,0,0,.01,0,.02,0,0,0,.01,0,.02,0,0,0,0,0,.02,0,0,0,.01,0,.02,0,0,0,.01,0,.02,0,0,0,.02,0,.02,0,0,0,.01,0,.02,0,0,0,.01,0,.02,0,0,0,.01,0,.02,0,0,0,.01,0,.02,0,.01,0,.01,0,.02,0,0,0,.01,0,.02,0,.01,0,.03,0,.04,0,0,0,0,0,0,0,.01,0,.02,0,.04,0,0,0,0,0,0,0,.01,0,.02,0,.03,0,0,0,.01,0,.02,0,.01,0,.01,0,.02,0,0,0,.01,0,.02,0,0,0,.01,0,.02,0,0,0,.01,0,.02,0,0,0,.01,0,.02,0,0,0,.01,0,.02,0,0,0,.01,0,.02,0,0,0,.01,0,.02,0,0,0,.01,0,.02,0,0,0,.01,0,.02,0,0,0,.01,0,.02,0,0,0,.01,0,.02,0,0,0,.01,0,.02,0,0,0,.01,0,.02,0,0,0,.01,0,.02,0,0,0,.01,0,.02,0,0,0,.02,0,.02,0,0,0,.01,0,.02,0,0,0,.02,0,.02,0,0,0,.01,0,.02,0,0,0,.01,0,.02,0,0,0,.01,0,.02,0,0,0,.01,0,.02,0,0,0,.02,0,.03,0,.01,0,.02,0,.03,0,0,0,0,0,0,0,.01,0,.02,0,.03,0,0,0,0,0,.01,0,.01,0,.02,0,.03,0,0,0,.01,0,.02,0,.01,0,.01,0,.02,0,0,0,.01,0,.02,0,0,0,.01,0,.02,0,0,0,.01,0,.02,0,0,0,.02,0,.02,0,0,0,.01,0,.02,0,0,0,.01,0,.02,0,0,0,.01,0,.02,0,0,0,.01,0,.02,0,0,0,.01,0,.02,0,0,0,.01,0,.02,0,0,0,.01,0,.02,0,0,0,.01,0,.02,0,0,0,.01,0,.02,0,0,0,.01,0,.02,0,0,0,.01,0,.02,0,0,0,.01,0,.02,0,0,0,.02,0,.02,0,0,0,.01,0,.02,0,0,0,.02,0,.02,0,0,0,.01,0,.02,0,0,0,.01,0,.02,0,0,0,.01,0,.02,0,0,0,.01,0,.02,0,.01,0,.02,0,.04,0,0,0,0,0,.01,0,.01,0,.02,0,.03,0,0,0,0,0,.01,0,.01,0,.01,0,.02,0,0,0,.01,0,.02,0,.01,0,.01,0,.02,0,0,0,.01,0,.02,0,0,0,.02,0,.02,0,0,0,.01,0,.02,0,0,0,.01,0,.02,0,0,0,.01,0,.02,0,0,0,.01,0,.02,0,0,0,.01,0,.02,0,0,0,.01,0,.02,0,0,0,.01,0,.02,0,0,0,.01,0,.02,0,0,0,.01,0,.02,0,0,0,.01,0,.02,0,0,0,.01,0,.02,0,0,0,.01,0,.02,0,0,0,.01,0,.02,0,0,0,.01,0,.02,0,0,0,.01,0,.02,0,0,0,.01,0,.02,0,0,0,.01,0,.02,0,0,0,.01,0,.02,0,0,0,.01,0,.02,0,.01,0,.02,0,.03,0,0,0,0,0,0,0,.01,0,.03,0,.04,0,0,0,0,0,.01,0,.01,0,.02,0,.03,0,0,0,.01,0,.01,0,.01,0,.02,0,.03,0,0,0,.01,0,.02,0,.01,0,.01,0,.02,0,0,0,.01,0,.02,0,0,0,.01,0,.02,0,0,0,.01,0,.02,0,0,0,.01,0,.02,0,0,0,.01,0,.02,0,0,0,.01,0,.02,0,0,0,.01,0,.02,0,0,0,.01,0,.02,0,0,0,.01,0,.02,0,0,0,.01,0,.02,0,0,0,.01,0,.02,0,0,0,.01,0,.02,0,0,0,.01,0,.02,0,0,0,.01,0,.02,0,0,0,.01,0,.02,0,0,0,.01,0,.02,0,0,0,.02,0,.02,0,0,0,.01,0,.01,0,0,0,.02,0,.02,0,0,0,0,0,.01,0,.03.01.06.02.08v.02s0,.01,0,.02c0,.01,0,.01,0,.02,0,0,0,.01,0,.02,0,0,0,.01,0,.02,0,0,0,.01,0,.02,0,0,0,.02,0,.02,0,0,0,.01,0,.02,0,0,0,.01,0,.02,0,0,0,.01,0,.02,0,0,0,.01,0,.02,0,0,0,.01,0,.02,0,0,0,.01,0,.02,0,0,0,.01,0,.02,0,0,0,.01,0,.02,0,0,0,.01,0,.02,0,0,0,.01,0,.02,0,0,0,.01,0,.02,0,0,0,.01,0,.02,0,0,0,.01,0,.02,0,0,0,.01,0,.02,0,0,0,.01,0,.02,0,0,0,.02,0,.02,0,0,0,.01,0,.02,0,0,0,.01,0,.02,0,0,0,.01,0,.02,0,0,0,.02,0,.02,0,0,0,.01,0,.02,0,0,0,.01,0,.02,0,.01,0,.02,0,.04,0,0,0,.02,0,.02,0,0,0,0,0,.01,0,.01,0,.02,0,.03,0,0,0,.01,0,.02,0,.01,0,.01,0,.02,0,0,0,.01,0,.02,0,0,0,.01,0,.02,0,0,0,.01,0,.02,0,0,0,.01,0,.02,0,0,0,.01,0,.02,0,0,0,.01,0,.02,0,0,0,.01,0,.02,0,0,0,.01,0,.02,0,0,0,.01,0,.02,0,0,0,.01,0,.02,0,0,0,.01,0,.02,0,0,0,.01,0,.02,0,0,0,.01,0,.02,0,0,0,.01,0,.02,0,0,0,.01,0,.02,0,0,0,.01,0,.02,0,0,0,.01,0,.02,0,0,0,.01,0,.02,0,0,0,.01,0,.02,0,.01,0,.01,0,.02,0,0,0,.01,0,.02,0,0,0,.02,0,.02,0,0,0,.01,0,.02,0,.01,0,.02,0,.04,0,0,0,.01,0,.02,0,0,0,.01,0,.02,0,0,0,.01,0,.02,0,0,0,.01,0,.02,0,0,0,.01,0,.02,0,.01,0,.01,0,.02,0,0,0,.01,0,.02,0,0,0,.01,0,.02,0,0,0,.01,0,.02,0,0,0,.01,0,.02,0,0,0,.01,0,.02,0,0,0,.01,0,.02,0,0,0,.01,0,.02,0,0,0,.01,0,.02,0,0,0,.01,0,.02,0,0,0,.01,0,.02,0,0,0,.01,0,.02,0,0,0,.01,0,.02,0,0,0,.01,0,.02,0,0,0,.01,0,.02,0,0,0,.01,0,.02,0,0,0,.01,0,.02,0,0,0,.01,0,.02,0,.01,0,.01,0,.02,0,0,0,.01,0,.02,0,0,0,.01,0,.02,0,0,0,.01,0,.02,0,0,0,.01,0,.02,0,0,0,.01,0,.02,0,.01,0,.03,0,.04,0,0,0,0,0,.01,0,.01,0,.02,0,.03,0,0,0,0,0,.02,0,.01,0,.01,0,.02,0,0,0,.01,0,.02,0,.01,0,.01,0,.02,0,0,0,.01,0,.02,0,0,0,.02,0,.02,0,0,0,.01,0,.02,0,0,0,.01,0,.02,0,0,0,.01,0,.02,0,0,0,.01,0,.02,0,0,0,.01,0,.02,0,0,0,.01,0,.02,0,0,0,.01,0,.02,0,0,0,.01,0,.02,0,0,0,.01,0,.02,0,0,0,.01,0,.02,0,0,0,.01,0,.02,0,0,0,.01,0,.02,0,0,0,.01,0,.02,0,0,0,.01,0,.02,0,0,0,.02,0,.02,0,0,0,.01,0,.02,0,0,0,.02,0,.02,0,0,0,0,0,.01,0,0,0,.02,0,.02,0,0,0,0,0,.01,0,.03.01.06.02.09,0,0,0,0,0,.01,0,0,0,.01,0,.02,0,0,0,.01,0,.02,0,0,0,.02,0,.02,0,0,0,.01,0,.01,0,0,0,.02,0,.02,0,0,0,.01,0,.02,0,0,0,.02,0,.02,0,0,0,.01,0,.01,0,0,0,.02,0,.02,0,0,0,0,0,.02,0,0,0,.02,0,.02,0,0,0,0,0,.01,0,0,0,.01,0,.02,0,0,0,0,0,.01,0,0,0,.02,0,.02,0,0,0,0,0,.01,0,0,0,.02,0,.02,0,0,0,.01,0,.02,0,0,0,.01,0,.02,0,0,0,.01,0,.02,0,0,0,.02,0,.02,0,0,0,.01,0,.01,0,0,0,.02,0,.03,0,0,0,0,0,.01,0,0,0,.02,0,.03,0,0,0,0,0,.01,0,.03.01.06.02.09,0,0,0,0,0,.02,0,0,0,.01,0,.02,0,0,0,.01,0,.02,0,0,0,.01,0,.02,0,0,0,.01,0,.02,0,0,0,.02,0,.02,0,0,0,.01,0,.02,0,0,0,.02,0,.02,0,0,0,.01,0,.01,0,0,0,.02,0,.02,0,0,0,0,0,.02,0,0,0,.01,0,.02,0,0,0,0,0,.02,0,0,0,.02,0,.02,0,0,0,.01,0,.02,0,0,0,.01,0,.02,0,0,0,.01,0,.02,0,0,0,.01,0,.02,0,0,0,.01,0,.02,0,0,0,.02,0,.02,0,0,0,.01,0,.02,0,0,0,.02,0,.02,0,0,0,0,0,.02,0,0,0,.02,0,.02,0,0,0,0,0,.01,0,0,0,.02,0,.03,0,0,0,0,0,.02,0,.03.01.06.02.09,0,0,0,0,0,0,0,0,0,.02,0,.02,0,0,0,.01,0,.02,0,0,0,.01,0,.02,0,0,0,.01,0,.02,0,0,0,.02,0,.02,0,0,0,.01,0,.02,0,0,0,.02,0,.02,0,0,0,.01,0,.02,0,0,0,.02,0,.02,0,0,0,0,0,.02,0,0,0,.02,0,.02,0,0,0,0,0,.01,0,0,0,.02,0,.02,0,0,0,.01,0,.02,0,0,0,.01,0,.02,0,0,0,.01,0,.02,0,0,0,.01,0,.02,0,0,0,.01,0,.02,0,0,0,.01,0,.02,0,0,0,.01,0,.02,0,0,0,.02,0,.02,0,0,0,.01,0,.02,0,0,0,.01,0,.02,0,0,0,.01,0,.02,0,0,0,.01,0,.02,0,.01,0,.02,0,.03,0,0,0,.01,0,.02,0,.01,0,.02,0,.03,0,0,0,0,0,.01,0,.01,0,.02,0,.03,0,0,0,.01,0,.01,0,.01,0,.02,0,.03,0,0,0,.01,0,.02,0,.01,0,.01,0,.02,0,0,0,.01,0,.02,0,0,0,.01,0,.02,0,0,0,.01,0,.02,0,0,0,.01,0,.02,0,0,0,.01,0,.02,0,0,0,.01,0,.02,0,0,0,.01,0,.02,0,0,0,.01,0,.02,0,0,0,.01,0,.02,0,0,0,.01,0,.02,0,0,0,.01,0,.02,0,0,0,.01,0,.02,0,0,0,.01,0,.02,0,0,0,.01,0,.02,0,0,0,.01,0,.02,0,0,0,.01,0,.02,0,0,0,.01,0,.02,0,0,0,.01,0,.02,0,0,0,.01,0,.02,0,0,0,0,0,.01,0,0,0,.02,0,.02,0,0,0,0,0,.01,0,.02,0,.03,0,.05,0,0,0,0,0,.01,0,0,0,.01,0,.02,0,0,0,.01,0,.02,0,0,0,.01,0,.02,0,0,0,.01,0,.02,0,0,0,.01,0,.02,0,0,0,.02,0,.02,0,0,0,.02,0,.02,0,0,0,.01,0,.02,0,0,0,.01,0,.02,0,0,0,.01,0,.02,0,0,0,.01,0,.02,0,0,0,.01,0,.02,0,0,0,.01,0,.02,0,0,0,0,0,.02,0,0,0,.02,0,.02,0,0,0,0,0,.02,0,0,0,.02,0,.02,0,0,0,.01,0,.02,0,0,0,.01,0,.02,0,0,0,.01,0,.02,0,0,0,.02,0,.02,0,0,0,.01,0,.02,0,0,0,.02,0,.02,0,0,0,0,0,.02,0,0,0,.02,0,.02,0,0,0,0,0,.02,0,.03.01.06.02.09,0,0,0,0,0,0,0,0,0,.01,0,.02,0,0,0,.01,0,.02,0,0,0,.01,0,.02,0,0,0,.01,0,.02,0,0,0,.01,0,.02,0,0,0,.01,0,.02,0,0,0,.01,0,.02,0,0,0,.01,0,.02,0,0,0,.01,0,.02,0,0,0,.01,0,.02,0,0,0,.01,0,.02,0,0,0,.01,0,.02,0,0,0,.02,0,.02,0,0,0,.01,0,.02,0,0,0,.01,0,.02,0,0,0,0,0,.02,0,0,0,.01,0,.02,0,0,0,.01,0,.02,0,0,0,.01,0,.02,0,0,0,.01,0,.02,0,0,0,.01,0,.02,0,0,0,.01,0,.02,0,0,0,.01,0,.02,0,0,0,.01,0,.02,0,0,0,.01,0,.02,0,0,0,.01,0,.02,0,0,0,.01,0,.02,0,0,0,.02,0,.02,0,.01,0,.02,0,.04,0,0,0,.01,0,.02,0,0,0,.01,0,.02,0,0,0,.01,0,.02,0,0,0,.01,0,.02,0,.01,0,.01,0,.02,0,0,0,.01,0,.02,0,0,0,.01,0,.02,0,0,0,.01,0,.02,0,0,0,.01,0,.02,0,0,0,.01,0,.02,0,0,0,.01,0,.02,0,0,0,.01,0,.02,0,0,0,.01,0,.02,0,0,0,.01,0,.02,0,0,0,.01,0,.02,0,0,0,.01,0,.02,0,0,0,.01,0,.02,0,0,0,.01,0,.02,0,0,0,.01,0,.02,0,0,0,.01,0,.02,0,0,0,.01,0,.02,0,0,0,.01,0,.02,0,0,0,.01,0,.02,0,0,0,.01,0,.02,0,0,0,.01,0,.02,0,0,0,.01,0,.02,0,0,0,.01,0,.02,0,0,0,.01,0,.02,0,.01,0,.02,0,.04,0,0,0,.01,0,.02,0,0,0,.01,0,.02,0,0,0,.01,0,.02,0,0,0,.01,0,.02,0,0,0,.01,0,.02,0,.01,0,.01,0,.02,0,0,0,.01,0,.02,0,0,0,.01,0,.02,0,0,0,.01,0,.02,0,0,0,.01,0,.02,0,0,0,.01,0,.02,0,0,0,.01,0,.02,0,0,0,.01,0,.02,0,0,0,.01,0,.02,0,0,0,.01,0,.02,0,0,0,.01,0,.02,0,0,0,.01,0,.02,0,0,0,.01,0,.02,0,0,0,.01,0,.02,0,0,0,.01,0,.02,0,0,0,.01,0,.02,0,0,0,.02,0,.02,0,0,0,.01,0,.02,0,0,0,.01,0,.02,0,0,0,.01,0,.02,0,0,0,0,0,.02,0,0,0,.01,0,.02,0,0,0,.01,0,.02,0,0,0,.01,0,.02,0,0,0,.01,0,.02,0,.01,0,.03,0,.04,0,0,0,.01,0,.02,0,0,0,.01,0,.02,0,0,0,.01,0,.02,0,0,0,.01,0,.02,0,0,0,.01,0,.02,0,0,0,.01,0,.02,0,0,0,.01,0,.02,0,0,0,.02,0,.02,0,0,0,.01,0,.02,0,0,0,.01,0,.02,0,0,0,.01,0,.02,0,0,0,.01,0,.02,0,0,0,.01,0,.02,0,0,0,.02,0,.02,0,0,0,0,0,.01,0,0,0,.02,0,.02,0,0,0,0,0,.02,0,0,0,.01,0,.02,0,0,0,.01,0,.02,0,0,0,.01,0,.02,0,0,0,.01,0,.02,0,0,0,.01,0,.02,0,0,0,0,0,.01,0,0,0,.02,0,.03h0c0,.05.01.1.02.15,0,0,0,0,0,0,0,0,0,.02,0,.03,0,0,0,0,0,.01,0,0,0,.01,0,.02,0,0,0,.01,0,.02,0,0,0,.01,0,.02,0,0,0,.01,0,.02,0,0,0,.01,0,.02,0,0,0,.01,0,.02,0,0,0,.02,0,.02,0,0,0,.01,0,.01,0,0,0,.02,0,.02,0,0,0,0,0,.02,0,0,0,.02,0,.02,0,0,0,0,0,.02,0,0,0,.02,0,.02,0,0,0,.01,0,.01,0,0,0,.02,0,.02,0,0,0,.01,0,.01,0,0,0,.02,0,.02,0,0,0,.01,0,.02,0,0,0,.01,0,.02,0,0,0,0,0,.01,0,0,0,.02,0,.03,0,0,0,0,0,0,0,.05.01.09.02.14,0,0,0,0,0,.01,0,0,0,.02,0,.02,0,0,0,.01,0,.01,0,0,0,.02,0,.02,0,0,0,.01,0,.02,0,0,0,.02,0,.02,0,0,0,.01,0,.02,0,0,0,.02,0,.02,0,0,0,.01,0,.02,0,0,0,.02,0,.02,0,0,0,0,0,.02,0,0,0,.02,0,.02,0,0,0,0,0,.02,0,0,0,.02,0,.02,0,0,0,0,0,.01,0,0,0,.02,0,.02,0,0,0,.01,0,.01,0,0,0,.02,0,.03,0,0,0,0,0,.01,0,0,0,.02,0,.03,0,0,0,.01,0,.01,0,0,0,.01,0,.02,0,0,0,0,0,.01,0,0,0,.02,0,.03,0,0,0,0,0,0,0,.05.01.09.02.14,0,0,0,0,0,0,0,0,0,.02,0,.03,0,0,0,.01,0,.01,0,0,0,.02,0,.02,0,0,0,.01,0,.02,0,0,0,.01,0,.02,0,0,0,.01,0,.02,0,0,0,.02,0,.02,0,0,0,.01,0,.02,0,0,0,.02,0,.02,0,0,0,0,0,.02,0,0,0,.02,0,.02,0,0,0,0,0,.02,0,0,0,.02,0,.02,0,0,0,0,0,.02,0,0,0,.01,0,.02,0,0,0,.01,0,.02,0,0,0,.01,0,.02,0,0,0,.01,0,.02,0,0,0,.02,0,.02,0,0,0,.01,0,.02,0,0,0,.02,0,.02,0,0,0,0,0,.01,0,0,0,.02,0,.03,0,0,0,0,0,0,0,.04.01.09.02.14,0,0,0,0,0,0,0,0,0,.02,0,.02,0,0,0,.01,0,.01,0,0,0,.02,0,.02,0,0,0,.01,0,.02,0,0,0,.01,0,.02,0,0,0,.01,0,.02,0,0,0,.02,0,.03,0,0,0,.01,0,.01,0,0,0,.02,0,.03,0,0,0,0,0,.01,0,0,0,.02,0,.02,0,0,0,0,0,.02,0,0,0,.02,0,.02,0,0,0,.01,0,.01,0,0,0,.02,0,.03,0,0,0,.01,0,.01,0,0,0,.02,0,.03,0,0,0,.01,0,.01,0,0,0,.02,0,.02,0,0,0,.01,0,.02,0,0,0,.01,0,.02,0,0,0,0,0,.01,0,0,0,.02,0,.03h0s.01.1.02.15h0s0,.02,0,.03c0,0,0,0,0,.01,0,0,0,.02,0,.02,0,0,0,.01,0,.02,0,0,0,.02,0,.02,0,0,0,.01,0,.01,0,0,0,.02,0,.02,0,0,0,0,0,.02,0,0,0,.02,0,.02,0,0,0,0,0,.02,0,0,0,.02,0,.02,0,0,0,.01,0,.02,0,0,0,.01,0,.02,0,0,0,.01,0,.01,0,0,0,.02,0,.02,0,0,0,0,0,.01,0,0,0,.02,0,.03,0,0,0,0,0,.01,0,0,0,.02,0,.03,0,0,0,.01,0,.01,0,0,0,.02,0,.03,0,0,0,0,0,.01,0,0,0,.02,0,.03,0,0,0,0,0,0,0,.05.01.09.02.14h0s0,.03,0,.04c0,0,0,0,0,.01,0,0,0,.02,0,.02,0,0,0,.01,0,.01,0,0,0,.02,0,.02,0,0,0,.01,0,.01,0,0,0,.02,0,.02,0,0,0,.01,0,.01,0,0,0,.02,0,.02,0,0,0,0,0,.01,0,0,0,.02,0,.02,0,0,0,0,0,.02,0,0,0,.02,0,.02,0,0,0,.01,0,.01,0,0,0,.02,0,.03,0,0,0,.01,0,.01,0,0,0,.02,0,.02,0,0,0,.01,0,.01,0,0,0,.02,0,.02,0,0,0,.01,0,.01,0,0,0,.02,0,.02,0,0,0,0,0,.01,0,0,0,.02,0,.03,0,0,0,0,0,0,0,.04,0,.07.01.11,0,0,0,0,0,0,0,0,0,.02,0,.03,0,0,0,0,0,.01,0,0,0,.02,0,.03,0,0,0,.01,0,.01,0,0,0,.02,0,.02,0,0,0,.01,0,.02,0,0,0,.02,0,.02,0,0,0,.01,0,.01,0,0,0,.02,0,.02,0,0,0,0,0,.02,0,0,0,.01,0,.02,0,0,0,.01,0,.02,0,0,0,.02,0,.02,0,0,0,.01,0,.02,0,0,0,.01,0,.02,0,0,0,.01,0,.01,0,0,0,.02,0,.02,0,0,0,.01,0,.01,0,0,0,.02,0,.02,0,0,0,.01,0,.01,0,0,0,.02,0,.03,0,0,0,0,0,.01,0,0,0,.02,0,.03h0c0,.06.01.12.02.18h0s0,.03,0,.03c0,0,0,0,0,0,0,0,0,.02,0,.03,0,0,0,.01,0,.01,0,0,0,.02,0,.03,0,0,0,0,0,.01,0,0,0,.02,0,.03,0,0,0,0,0,.01,0,0,0,.02,0,.03,0,0,0,0,0,.01,0,0,0,.02,0,.03,0,0,0,0,0,.01,0,0,0,.02,0,.03,0,0,0,0,0,.01,0,0,0,.02,0,.03,0,0,0,.01,0,.01,0,0,0,.02,0,.03,0,0,0,.01,0,.01,0,0,0,.02,0,.02,0,0,0,.01,0,.01,0,0,0,.02,0,.03,0,0,0,0,0,0,0,.05,0,.1.01.14,0,0,0,0,0,0,0,.01,0,.02,0,.03h0s0,.03,0,.04c0,0,0,0,0,0,0,0,0,.02,0,.03,0,0,0,0,0,.01,0,0,0,.02,0,.03,0,0,0,0,0,0,0,0,0,.02,0,.03,0,0,0,0,0,0,0,0,0,.02,0,.03h0s0,.03,0,.04c0,0,0,0,0,.01,0,0,0,.02,0,.03,0,0,0,0,0,0,0,0,0,.02,0,.03,0,0,0,0,0,.01,0,.01,0,.02,0,.03,0,0,0,0,0,0,0,.01,0,.02,0,.03h0c0,.08.01.15.02.22h0s0,.03,0,.04c0,0,0,0,0,0,0,0,0,.02,0,.03,0,0,0,.01,0,.01,0,0,0,.02,0,.03,0,0,0,0,0,.01,0,0,0,.02,0,.03,0,0,0,0,0,.01,0,0,0,.02,0,.03,0,0,0,0,0,.01,0,0,0,.02,0,.03,0,0,0,0,0,.01,0,0,0,.02,0,.03,0,0,0,0,0,.01,0,0,0,.02,0,.03,0,0,0,0,0,.01,0,0,0,.02,0,.03,0,0,0,0,0,.01,0,0,0,.02,0,.03h0c0,.07.01.13.02.19,0,0,0,0,0,0,0,0,0,.02,0,.03,0,0,0,0,0,.01,0,0,0,.02,0,.03,0,0,0,.01,0,.01,0,0,0,.02,0,.02,0,0,0,.01,0,.02,0,0,0,.02,0,.02,0,0,0,.01,0,.01,0,0,0,.02,0,.02,0,0,0,0,0,.01,0,0,0,.02,0,.02,0,0,0,0,0,.01,0,0,0,.02,0,.02,0,0,0,0,0,.01,0,0,0,.02,0,.03,0,0,0,0,0,.01,0,0,0,.02,0,.03,0,0,0,0,0,.01,0,0,0,.02,0,.03,0,0,0,0,0,.01,0,0,0,.02,0,.03,0,0,0,0,0,.01,0,.07.01.14.02.21,0,0,0,0,0,0,0,0,0,.02,0,.03,0,0,0,0,0,.01,0,0,0,.02,0,.02,0,0,0,.01,0,.02,0,0,0,.02,0,.02,0,0,0,0,0,.01,0,0,0,.02,0,.03,0,0,0,0,0,.01,0,0,0,.02,0,.03,0,0,0,0,0,.01,0,0,0,.02,0,.03,0,0,0,0,0,.01,0,0,0,.02,0,.03,0,0,0,0,0,0,0,.01,0,.02,0,.03,0,0,0,0,0,0,0,.01,0,.02,0,.03h0s0,.03,0,.04h0c0,.06,0,.1.01.15,0,0,0,0,0,0,0,.01,0,.02,0,.03h0s0,.03,0,.04c0,0,0,0,0,0,0,0,0,.02,0,.03,0,0,0,0,0,.01,0,0,0,.02,0,.03,0,0,0,.01,0,.01,0,0,0,.02,0,.03,0,0,0,0,0,.01,0,0,0,.02,0,.03,0,0,0,0,0,.01,0,0,0,.02,0,.03,0,0,0,0,0,0,0,0,0,.02,0,.03,0,0,0,0,0,.01,0,0,0,.02,0,.03,0,0,0,0,0,0,0,.01,0,.02,0,.03,0,0,0,0,0,0,0,.01,0,.02,0,.03h0s0,.02,0,.04c0,0,0,0,0,0,0,.05,0,.09,0,.14,0,0,0,0,0,0,0,.01,0,.02,0,.03h0s0,.02,0,.03c0,0,0,0,0,0,0,0,0,.02,0,.03,0,0,0,0,0,.01,0,0,0,.02,0,.03,0,0,0,.01,0,.02,0,0,0,.02,0,.02,0,0,0,0,0,.01,0,0,0,.02,0,.03,0,0,0,0,0,.01,0,0,0,.02,0,.03,0,0,0,0,0,.01,0,0,0,.02,0,.03,0,0,0,.01,0,.01,0,0,0,.02,0,.02,0,0,0,0,0,.01,0,0,0,.02,0,.03,0,0,0,0,0,.01,0,0,0,.02,0,.03h0s0,.03,0,.04c0,0,0,0,0,0,0,0,0,.02,0,.03h0s0,.07,0,.1c0,0,0,0,0,.01,0,0,0,.02,0,.03,0,0,0,0,0,.01,0,0,0,.01,0,.02,0,0,0,.01,0,.02,0,0,0,.02,0,.02,0,0,0,.01,0,.02,0,0,0,.01,0,.02,0,0,0,.01,0,.02,0,0,0,.02,0,.02,0,0,0,0,0,.02,0,0,0,.01,0,.02,0,0,0,0,0,.02,0,0,0,.02,0,.02,0,0,0,0,0,.01,0,0,0,.02,0,.02,0,0,0,.01,0,.01,0,0,0,.02,0,.03,0,0,0,0,0,.01,0,0,0,.02,0,.03,0,0,0,0,0,.01,0,0,0,.02,0,.03h0s0,.03,0,.04c0,0,0,0,0,0,0,.05,0,.1,0,.15,0,0,0,0,0,0,0,.01,0,.02,0,.03h0s0,.02,0,.03c0,0,0,0,0,.01,0,0,0,.02,0,.03,0,0,0,.01,0,.01,0,0,0,.02,0,.02,0,0,0,.01,0,.01,0,0,0,.02,0,.03,0,0,0,0,0,.01,0,0,0,.02,0,.03,0,0,0,0,0,.01,0,0,0,.02,0,.03,0,0,0,0,0,.01,0,0,0,.02,0,.03,0,0,0,0,0,.01,0,0,0,.02,0,.03,0,0,0,0,0,0,0,.01,0,.02,0,.03h0s0,.03,0,.04h0c0,.07,0,.13,0,.19h0s0,.02,0,.03h0s0,.03,0,.04c0,0,0,0,0,.01,0,0,0,.02,0,.03,0,0,0,0,0,.01,0,0,0,.02,0,.02,0,0,0,0,0,.02,0,0,0,.02,0,.02,0,0,0,0,0,.01,0,0,0,.02,0,.02,0,0,0,0,0,.01,0,0,0,.02,0,.03,0,0,0,0,0,.01,0,0,0,.02,0,.03,0,0,0,0,0,.01,0,0,0,.02,0,.03,0,0,0,0,0,0,0,.01,0,.02,0,.03h0c0,.09,0,.18.01.26h0s0,.02,0,.04c0,0,0,0,0,0,0,.01,0,.02,0,.03,0,0,0,0,0,0,0,0,0,.02,0,.03,0,0,0,0,0,.01,0,0,0,.02,0,.03,0,0,0,0,0,.01,0,0,0,.02,0,.03,0,0,0,0,0,.01,0,0,0,.02,0,.03,0,0,0,0,0,0,0,0,0,.02,0,.03,0,0,0,0,0,0,0,.01,0,.02,0,.03,0,0,0,0,0,0,0,.01,0,.02,0,.03h0s0,.03,0,.04h0c0,.06,0,.12,0,.19h0s0,.02,0,.04h0s0,.03,0,.03c0,0,0,0,0,.01,0,0,0,.02,0,.03,0,0,0,.01,0,.01,0,0,0,.01,0,.02,0,0,0,0,0,.02,0,0,0,.02,0,.02,0,0,0,0,0,.01,0,0,0,.01,0,.02,0,0,0,0,0,.01,0,0,0,.02,0,.03,0,0,0,0,0,.01,0,0,0,.02,0,.03,0,0,0,0,0,.01,0,0,0,.02,0,.03,0,0,0,0,0,0,0,.01,0,.02,0,.03,0,0,0,0,0,0,0,.01,0,.02,0,.03h0c0,.06,0,.12,0,.19h0s0,.03,0,.04h0s0,.02,0,.03c0,0,0,0,0,0,0,0,0,.02,0,.03,0,0,0,0,0,0,0,0,0,.02,0,.03,0,0,0,0,0,.01,0,0,0,.02,0,.03,0,0,0,0,0,.01,0,0,0,.02,0,.03,0,0,0,0,0,.01,0,0,0,.02,0,.03,0,0,0,0,0,.01,0,0,0,.02,0,.03,0,0,0,0,0,.01,0,0,0,.02,0,.03,0,0,0,0,0,0,0,.01,0,.02,0,.03h0s0,.03,0,.04h0s0,.03,0,.04h0s0,.1,0,.14h0s0,.03,0,.04c0,0,0,0,0,.01,0,0,0,.02,0,.03,0,0,0,0,0,.01,0,0,0,.02,0,.03,0,0,0,0,0,.01,0,0,0,.02,0,.02,0,0,0,0,0,.02,0,0,0,.02,0,.02,0,0,0,0,0,.01,0,0,0,.02,0,.02,0,0,0,0,0,.01,0,0,0,.02,0,.02,0,0,0,.01,0,.01,0,0,0,.02,0,.02,0,0,0,.01,0,.01,0,0,0,.02,0,.03,0,0,0,0,0,.01,0,0,0,.02,0,.03h0c0,.08,0,.15,0,.22h0s0,.03,0,.04c0,0,0,0,0,0,0,0,0,.02,0,.03,0,0,0,0,0,.01,0,0,0,.02,0,.03,0,0,0,0,0,0,0,0,0,.02,0,.03,0,0,0,0,0,.01,0,0,0,.02,0,.03,0,0,0,0,0,.01,0,0,0,.02,0,.03,0,0,0,0,0,.01,0,0,0,.02,0,.03,0,0,0,0,0,.01,0,0,0,.02,0,.03,0,0,0,0,0,.01,0,0,0,.02,0,.03,0,0,0,0,0,.01,0,0,0,.02,0,.03,0,0,0,0,0,0,0,0,0,.02,0,.03,0,0,0,0,0,0,0,.05,0,.1,0,.15,0,0,0,0,0,0,0,0,0,.02,0,.03,0,0,0,0,0,0,0,0,0,.02,0,.03,0,0,0,0,0,.01,0,0,0,.02,0,.03,0,0,0,0,0,.01,0,0,0,.02,0,.02,0,0,0,.01,0,.01,0,0,0,.01,0,.02,0,0,0,0,0,.02,0,0,0,.02,0,.02,0,0,0,0,0,.01,0,0,0,.02,0,.02,0,0,0,0,0,.01,0,0,0,.02,0,.02,0,0,0,.01,0,.01,0,0,0,.02,0,.02,0,0,0,.01,0,.02,0,0,0,.02,0,.02,0,0,0,.01,0,.01,0,0,0,.02,0,.02,0,0,0,0,0,.01,0,0,0,.02,0,.03,0,0,0,0,0,0,0,.01,0,.02,0,.03h0s0,.07,0,.11c0,0,0,0,0,0,0,0,0,.02,0,.03,0,0,0,.01,0,.01,0,0,0,.02,0,.03,0,0,0,0,0,.01,0,0,0,.02,0,.02,0,0,0,.01,0,.01,0,0,0,.02,0,.02,0,0,0,.01,0,.02,0,0,0,.02,0,.02,0,0,0,0,0,.02,0,0,0,.02,0,.02,0,0,0,0,0,.01,0,0,0,.02,0,.03,0,0,0,0,0,.01,0,0,0,.02,0,.03,0,0,0,0,0,.01,0,0,0,.02,0,.03,0,0,0,0,0,.01,0,0,0,.02,0,.03,0,0,0,0,0,0,0,.01,0,.02,0,.03h0s0,.03,0,.04c0,0,0,0,0,0,0,.05,0,.09,0,.14h0s0,.02,0,.03c0,0,0,0,0,.01,0,0,0,.02,0,.03,0,0,0,0,0,.01,0,0,0,.02,0,.02,0,0,0,.01,0,.01,0,0,0,.02,0,.02,0,0,0,.01,0,.01,0,0,0,.02,0,.02,0,0,0,0,0,.02,0,0,0,.01,0,.02,0,0,0,0,0,.01,0,0,0,.02,0,.03,0,0,0,0,0,.01,0,0,0,.02,0,.03,0,0,0,0,0,0,0,0,0,.02,0,.03,0,0,0,0,0,0,0,.01,0,.02,0,.03h0s0,.03,0,.04h0c0,.08,0,.15,0,.22h0s0,.03,0,.04c0,0,0,0,0,0,0,.01,0,.02,0,.03,0,0,0,0,0,0,0,0,0,.02,0,.03,0,0,0,0,0,.01,0,0,0,.02,0,.03,0,0,0,0,0,.01,0,0,0,.02,0,.03,0,0,0,0,0,.01,0,0,0,.02,0,.03,0,0,0,0,0,0,0,.01,0,.02,0,.03,0,0,0,0,0,0,0,.01,0,.02,0,.03,0,0,0,0,0,0,0,.01,0,.02,0,.03h0s0,.03,0,.04h0c0,.06,0,.12,0,.19h0s0,.02,0,.03c0,0,0,0,0,0,0,0,0,.02,0,.03,0,0,0,0,0,0,0,0,0,.02,0,.03,0,0,0,.01,0,.01,0,0,0,.02,0,.02,0,0,0,0,0,.02,0,0,0,.01,0,.02,0,0,0,.01,0,.02,0,0,0,.02,0,.02,0,0,0,0,0,.01,0,0,0,.02,0,.03,0,0,0,0,0,.01,0,0,0,.02,0,.03,0,0,0,0,0,.01,0,0,0,.02,0,.03,0,0,0,0,0,.01,0,0,0,.02,0,.03h0s0,.03,0,.04h0c0,.06,0,.12,0,.18h0s0,.02,0,.03c0,0,0,0,0,.01,0,0,0,.02,0,.03,0,0,0,0,0,0,0,0,0,.02,0,.03,0,0,0,0,0,.01,0,0,0,.02,0,.03,0,0,0,0,0,.01,0,0,0,.02,0,.02,0,0,0,0,0,.01,0,0,0,.02,0,.02,0,0,0,0,0,.01,0,0,0,.02,0,.03,0,0,0,0,0,.01,0,0,0,.02,0,.03,0,0,0,0,0,0,0,.01,0,.02,0,.03,0,0,0,0,0,0,0,.01,0,.02,0,.03h0c0,.08,0,.15,0,.22h0s0,.02,0,.03c0,0,0,0,0,.01,0,0,0,.02,0,.02,0,0,0,.01,0,.01,0,0,0,.02,0,.02,0,0,0,0,0,.01,0,0,0,.02,0,.03,0,0,0,0,0,.01,0,0,0,.01,0,.02,0,0,0,.01,0,.02,0,0,0,.01,0,.02,0,0,0,0,0,.02,0,0,0,.01,0,.02,0,0,0,.01,0,.02,0,0,0,.02,0,.02,0,0,0,.01,0,.01,0,0,0,.02,0,.02,0,0,0,.01,0,.01,0,0,0,.02,0,.03h0s0,.03,0,.04c0,0,0,0,0,0,0,.05,0,.09,0,.14,0,0,0,0,0,0,0,.01,0,.02,0,.03h0s0,.02,0,.03c0,0,0,0,0,.01,0,0,0,.02,0,.02,0,0,0,0,0,.01,0,0,0,.02,0,.02,0,0,0,.01,0,.01,0,0,0,.02,0,.02,0,0,0,0,0,.01,0,0,0,.02,0,.02,0,0,0,0,0,.02,0,0,0,.02,0,.02,0,0,0,0,0,.02,0,0,0,.02,0,.02,0,0,0,0,0,.02,0,0,0,.01,0,.02,0,0,0,.01,0,.01,0,0,0,.02,0,.02,0,0,0,.01,0,.01,0,0,0,.02,0,.02,0,0,0,0,0,.01,0,0,0,.02,0,.03,0,0,0,0,0,0,0,.04,0,.09,0,.13,0,0,0,0,0,.01,0,0,0,.02,0,.02,0,0,0,.01,0,.01v.02s0,.01,0,.02c0,0,0,.01,0,.02,0,0,0,.01,0,.02,0,0,0,.01,0,.02,0,0,0,.01,0,.02,0,0,0,.01,0,.02,0,0,0,.01,0,.02,0,0,0,.01,0,.02,0,0,0,.01,0,.02,0,0,0,.01,0,.02,0,0,0,0,0,.02,0,0,0,.01,0,.02,0,0,0,.01,0,.02,0,0,0,.01,0,.02,0,0,0,.01,0,.02,0,0,0,.01,0,.02,0,0,0,.01,0,.02,0,0,0,.01,0,.02,0,0,0,.01,0,.01,0,0,0,.02,0,.02,0,0,0,0,0,.01,0,.04,0,.09,0,.13h0s0,.02,0,.04h0s0,.03,0,.03c0,0,0,0,0,.01,0,0,0,.02,0,.03,0,0,0,0,0,.01,0,0,0,.02,0,.02,0,0,0,0,0,.02,0,0,0,.01,0,.02,0,0,0,0,0,.02,0,0,0,.02,0,.02,0,0,0,.01,0,.02,0,0,0,.01,0,.02,0,0,0,0,0,.01,0,0,0,.02,0,.03,0,0,0,.01,0,.01,0,0,0,.02,0,.03,0,0,0,0,0,.01,0,0,0,.02,0,.03,0,0,0,0,0,.01,0,0,0,.02,0,.03h0c0,.07,0,.13,0,.19h0s0,.02,0,.03h0s0,.03,0,.03c0,0,0,0,0,.01,0,0,0,.02,0,.03,0,0,0,0,0,.01,0,0,0,.02,0,.02,0,0,0,.01,0,.01,0,0,0,.02,0,.02,0,0,0,0,0,.01,0,0,0,.01,0,.02,0,0,0,.01,0,.02,0,0,0,.01,0,.02,0,0,0,0,0,.02,0,0,0,.02,0,.02,0,0,0,.01,0,.01,0,0,0,.02,0,.03,0,0,0,0,0,.01,0,0,0,.02,0,.02,0,0,0,.01,0,.01,0,0,0,.02,0,.03h0s0,.03,0,.04c0,0,0,0,0,0,0,.05,0,.09,0,.14h0s0,.03,0,.04c0,0,0,0,0,0,0,0,0,.02,0,.03,0,0,0,0,0,.01,0,0,0,.02,0,.03,0,0,0,0,0,.01,0,0,0,.02,0,.02,0,0,0,.01,0,.01,0,0,0,.02,0,.02,0,0,0,0,0,.01,0,0,0,.02,0,.02,0,0,0,0,0,.02,0,0,0,.02,0,.02,0,0,0,.01,0,.01,0,0,0,.02,0,.02,0,0,0,.01,0,.01,0,0,0,.02,0,.02,0,0,0,.01,0,.01,0,0,0,.02,0,.03,0,0,0,0,0,.01,0,0,0,.02,0,.03h0s0,.1,0,.14c0,0,0,0,0,0,0,0,0,.02,0,.03,0,0,0,0,0,.01,0,0,0,.02,0,.03,0,0,0,0,0,.01,0,0,0,.02,0,.02,0,0,0,0,0,.01,0,0,0,.02,0,.03,0,0,0,0,0,.01,0,0,0,.02,0,.02,0,0,0,0,0,.02,0,0,0,.02,0,.02,0,0,0,0,0,.02,0,0,0,.01,0,.02,0,0,0,.01,0,.02,0,0,0,.01,0,.02,0,0,0,.01,0,.02,0,0,0,.01,0,.02,0,0,0,.01,0,.02,0,0,0,.02,0,.02,0,0,0,.01,0,.01,0,0,0,.02,0,.02,0,0,0,0,0,.01,0,0,0,.02,0,.03h0s0,.03,0,.04c0,0,0,0,0,0,0,.02,0,.03,0,.04,0,0,0,.02,0,.03,0,0,0,.01,0,.02,0,0,0,.01,0,.02,0,0,0,.02,0,.02,0,0,0,.01,0,.01,0,0,0,.01,0,.02,0,0,0,.01,0,.01,0,0,0,.01,0,.02,0,0,0,.01,0,.02,0,0,0,.01,0,.02,0,0,0,0,0,.02,0,0,0,.02,0,.02,0,0,0,0,0,.02,0,0,0,.01,0,.02,0,0,0,.01,0,.02,0,0,0,.01,0,.02,0,0,0,.01,0,.02,0,0,0,.01,0,.02,0,0,0,.01,0,.02,0,0,0,.01,0,.02,0,0,0,.01,0,.02,0,0,0,.01,0,.02,0,0,0,.01,0,.01,0,0,0,.02,0,.02,0,0,0,.01,0,.02,0,0,0,.01,0,.02,0,0,0,0,0,.01,0,.03,0,.06,0,.09,0,0,0,0,0,.01,0,0,0,.02,0,.02,0,0,0,0,0,.02,0,0,0,.02,0,.02,0,0,0,.01,0,.01,0,0,0,.01,0,.02,0,0,0,.01,0,.01,0,0,0,.01,0,.02,0,0,0,.01,0,.02,0,0,0,.01,0,.02,0,0,0,0,0,.02,0,0,0,.01,0,.02,0,0,0,0,0,.02,0,0,0,.02,0,.02,0,0,0,0,0,.02,0,0,0,.01,0,.02,0,0,0,.01,0,.02,0,0,0,.01,0,.02,0,0,0,.01,0,.02,0,0,0,.01,0,.02,0,0,0,.01,0,.02,0,0,0,.02,0,.02,0,0,0,.01,0,.02,0,0,0,.01,0,.02,0,0,0,.01,0,.02,0,0,0,.01,0,.02,0,0,0,.01,0,.02,0,0,0,0,0,.02,0,0,0,.02,0,.02,0,0,0,.02,0,.03,0,0,0,.01,0,.02,0,0,0,0,0,.01,0,0,0,.01,0,.02,0,0,0,.01,0,.02,0,0,0,.01,0,.02,0,0,0,.01,0,.02,0,0,0,.02,0,.02,0,0,0,.01,0,.02,0,0,0,.01,0,.02,0,0,0,.01,0,.02,0,0,0,.01,0,.02,0,0,0,.01,0,.02,0,0,0,.01,0,.02,0,0,0,.01,0,.02,0,0,0,.01,0,.02,0,0,0,.01,0,.02,0,0,0,.01,0,.02,0,0,0,.01,0,.02,0,0,0,.01,0,.02,0,0,0,.01,0,.02,0,0,0,.01,0,.02,0,0,0,.01,0,.02,0,0,0,.01,0,.02,0,0,0,.01,0,.02,0,0,0,.01,0,.02,0,0,0,.01,0,.02,0,0,0,.01,0,.02,0,0,0,.01,0,.02,0,.01,0,.02,0,.04,0,0,0,0,0,.01,0,0,0,.02,0,.03,0,0,0,.01,0,.02,0,0,0,.01,0,.02,0,0,0,.01,0,.02,0,0,0,.01,0,.02,0,0,0,.01,0,.02,0,0,0,.01,0,.02,0,0,0,.01,0,.02,0,0,0,.01,0,.02,0,0,0,.01,0,.02,0,0,0,.01,0,.02,0,0,0,.01,0,.02,0,0,0,.01,0,.02,0,0,0,.01,0,.02,0,0,0,.01,0,.02,0,0,0,.01,0,.02,0,0,0,.01,0,.02,0,0,0,.01,0,.02,0,0,0,.01,0,.02,0,0,0,.01,0,.02,0,0,0,.02,0,.02,0,0,0,.01,0,.02,0,0,0,.02,0,.02,0,0,0,.01,0,.02,0,0,0,.01,0,.02,0,0,0,.01,0,.02,0,0,0,.01,0,.02,0,0,0,.01,0,.02,0,.01,0,.02,0,.03,0,0,0,.01,0,.02,0,0,0,.01,0,.02,0,0,0,.01,0,.02,0,0,0,.01,0,.02,0,0,0,.01,0,.02,0,0,0,.01,0,.02,0,0,0,.01,0,.02,0,0,0,.02,0,.02,0,0,0,.01,0,.02,0,0,0,.01,0,.02,0,0,0,.01,0,.02,0,0,0,.01,0,.02,0,0,0,.01,0,.02,0,0,0,.01,0,.02,0,0,0,.01,0,.02,0,0,0,.01,0,.02,0,0,0,.01,0,.02,0,0,0,.01,0,.02,0,0,0,.01,0,.02,0,0,0,.01,0,.02,0,0,0,.01,0,.02,0,0,0,.01,0,.02,0,0,0,.01,0,.02,0,0,0,.01,0,.02,0,0,0,.01,0,.02,0,0,0,.01,0,.02,0,0,0,.01,0,.02,0,0,0,0,0,.01,0,.03,0,.06,0,.08,0,0,0,.01,0,.02,0,0,0,.01,0,.02,0,0,0,0,0,.02,0,0,0,.01,0,.02,0,0,0,.01,0,.02,0,0,0,.02,0,.02,0,0,0,.01,0,.02,0,0,0,.01,0,.02,0,0,0,.01,0,.02,0,0,0,.01,0,.02,0,0,0,.01,0,.02,0,0,0,.01,0,.02,0,0,0,.01,0,.02,0,0,0,.01,0,.02,0,0,0,.01,0,.02,0,0,0,.01,0,.02,0,0,0,.01,0,.02,0,0,0,.01,0,.02,0,0,0,.01,0,.02,0,0,0,.01,0,.02,0,0,0,.01,0,.02,0,0,0,.02,0,.02,0,0,0,.01,0,.02,0,0,0,.01,0,.02,0,0,0,.01,0,.02,0,0,0,.01,0,.02,0,0,0,.02,0,.03,0,0,0,0,0,0,0,.01,0,.02,0,.04,0,0,0,.01,0,.02,0,0,0,.01,0,.02,0,0,0,0,0,.01,0,0,0,.01,0,.02,0,0,0,.01,0,.02,0,0,0,.02,0,.02,0,0,0,.01,0,.02,0,0,0,.01,0,.02,0,0,0,.01,0,.02,0,0,0,.01,0,.02,0,0,0,.01,0,.02,0,0,0,.01,0,.02,0,0,0,.01,0,.02,0,0,0,.01,0,.02,0,0,0,.01,0,.02,0,0,0,.01,0,.02,0,0,0,.01,0,.02,0,0,0,.01,0,.02,0,0,0,.01,0,.02,0,0,0,.01,0,.02,0,0,0,.01,0,.02,0,0,0,.01,0,.02,0,0,0,.02,0,.02,0,0,0,.01,0,.01,0,0,0,.02,0,.02,0,0,0,0,0,.01,0,0,0,.02,0,.03h0s0,.04,0,.06c0,0,0,0,0,.01,0,0,0,.01,0,.02,0,0,0,.01,0,.02,0,0,0,.01,0,.02,0,0,0,.01,0,.02,0,0,0,.01,0,.02,0,0,0,.01,0,.02,0,0,0,.01,0,.02,0,0,0,.01,0,.02,0,0,0,.01,0,.02,0,0,0,.01,0,.02,0,0,0,.01,0,.02,0,0,0,.01,0,.02,0,0,0,.01,0,.02,0,0,0,.01,0,.02,0,0,0,.01,0,.02,0,0,0,.01,0,.02,0,0,0,.01,0,.02,0,0,0,.01,0,.02,0,0,0,.01,0,.02,0,0,0,.01,0,.02,0,0,0,.01,0,.02,0,0,0,.01,0,.02,0,0,0,.01,0,.02,0,0,0,0,0,.02,0,0,0,.01,0,.02,0,0,0,0,0,.01,0,.03,0,.06,0,.09,0,0,0,0,0,0,0,0,0,.01,0,.02,0,0,0,.01,0,.02,0,0,0,.01,0,.02,0,0,0,.01,0,.02,0,0,0,.02,0,.02,0,0,0,.01,0,.02,0,0,0,.01,0,.02,0,0,0,.01,0,.02,0,0,0,.01,0,.02,0,0,0,.01,0,.02,0,0,0,.01,0,.02,0,0,0,.01,0,.02,0,0,0,.01,0,.02,0,0,0,.01,0,.02,0,0,0,.01,0,.02,0,0,0,.01,0,.02,0,0,0,.01,0,.02,0,0,0,.01,0,.02,0,0,0,.01,0,.02,0,0,0,.01,0,.02,0,0,0,.01,0,.02,0,0,0,.01,0,.02,0,0,0,.01,0,.02,0,0,0,.01,0,.02,0,0,0,.01,0,.02,0,0,0,.01,0,.02,0,.03,0,.06,0,.09,0,0,0,0,0,0,0,0,0,.01,0,.02,0,0,0,.01,0,.02,0,0,0,.01,0,.02,0,0,0,.01,0,.02,0,0,0,.01,0,.02,0,0,0,.01,0,.02,0,0,0,.01,0,.02,0,0,0,.01,0,.02,0,0,0,.01,0,.02,0,0,0,.01,0,.02,0,0,0,.01,0,.02,0,0,0,.01,0,.02,0,0,0,.01,0,.02,0,0,0,.01,0,.02,0,0,0,.01,0,.02,0,0,0,.01,0,.02,0,0,0,.01,0,.02,0,0,0,.01,0,.02,0,0,0,.01,0,.02,0,0,0,.01,0,.02,0,0,0,.01,0,.02,0,0,0,.01,0,.02,0,0,0,.01,0,.02,0,0,0,.01,0,.02,0,0,0,.01,0,.02,0,0,0,.01,0,.02,0,.03,0,.06-.01.09h0s0,.02,0,.02c0,0,0,.01,0,.02,0,0,0,.01,0,.02,0,0,0,.01,0,.02,0,0,0,.01,0,.02,0,0,0,.01,0,.02,0,0,0,.01,0,.02,0,0,0,.01,0,.02,0,0,0,.01,0,.02,0,0,0,.01,0,.02,0,0,0,.01,0,.02,0,0,0,.01,0,.02,0,0,0,.01,0,.02,0,0,0,.01,0,.02,0,0,0,.01,0,.02,0,0,0,.01,0,.02,0,0,0,.01,0,.02,0,0,0,.02,0,.02,0,0,0,0,0,.02,0,0,0,.02,0,.02,0,0,0,.01,0,.02,0,0,0,.01,0,.02,0,0,0,.01,0,.02,0,0,0,.01,0,.02,0,0,0,0,0,.01,0,0,0,.02,0,.03,0,0,0,0,0,.01,0,.01,0,.02,0,.04,0,0,0,.01,0,.01,0,0,0,.01,0,.02,0,0,0,0,0,.01,0,0,0,.01,0,.02,0,0,0,.01,0,.02,0,0,0,.01,0,.02,0,0,0,.01,0,.02,0,0,0,.02,0,.02,0,0,0,.01,0,.02,0,0,0,.01,0,.02,0,0,0,.01,0,.02,0,0,0,.02,0,.02,0,0,0,.01,0,.02,0,0,0,.02,0,.02,0,0,0,0,0,.02,0,0,0,.02,0,.02,0,0,0,.01,0,.02,0,0,0,.02,0,.02,0,0,0,0,0,.01,0,0,0,.02,0,.03,0,0,0,.01,0,.01,0,0,0,.02,0,.02,0,0,0,0,0,.01,0,0,0,.02,0,.03,0,0,0,0,0,.01,0,0,0,.02,0,.03,0,0,0,0,0,0,0,.01,0,.02,0,.03,0,0,0,0,0,0,0,.01,0,.03,0,.04,0,0,0,0,0,0,0,.01,0,.02,0,.04,0,0,0,0,0,.01,0,0,0,.01,0,.02,0,0,0,.01,0,.02,0,0,0,.01,0,.02,0,0,0,.01,0,.02v.02s0,.01,0,.02c0,0,0,.01,0,.02,0,0,0,.01,0,.02,0,0,0,.01,0,.02,0,0,0,.01,0,.02,0,0,0,.01,0,.02,0,0,0,.01,0,.02,0,0,0,.01,0,.02,0,0,0,.01,0,.02,0,0,0,.02,0,.02,0,0,0,.01,0,.02,0,0,0,.02,0,.02,0,0,0,0,0,.02,0,0,0,.01,0,.02,0,0,0,.01,0,.02,0,0,0,.01,0,.02,0,0,0,.01,0,.02,0,0,0,.02,0,.03,0,0,0,0,0,.01,0,.01,0,.02,0,.04h0s0,.03,0,.04c0,0,0,.01,0,.02,0,0,0,.01,0,.02,0,0,0,0,0,.01,0,0,0,.02,0,.03,0,0,0,.01,0,.01,0,0,0,.01,0,.02,0,0,0,.01,0,.02,0,0,0,.01,0,.02,0,0,0,.01,0,.02,0,0,0,.01,0,.02,0,0,0,.01,0,.02,0,0,0,.01,0,.02,0,0,0,.01,0,.02,0,0,0,.01,0,.02,0,0,0,.01,0,.02,0,0,0,.01,0,.02,0,0,0,.01,0,.02,0,0,0,.02,0,.02,0,0,0,0,0,.01,0,0,0,.02,0,.03,0,0,0,0,0,.01,0,0,0,.02,0,.03,0,0,0,0,0,.01,0,0,0,.02,0,.02,0,0,0,0,0,.01,0,0,0,.02,0,.03,0,0,0,0,0,0,0,.03,0,.05-.01.08,0,0,0,0,0,0,0,.01,0,.02,0,.04,0,0,0,0,0,.01,0,0,0,.02,0,.03,0,0,0,0,0,.01,0,0,0,.02,0,.02,0,0,0,.01,0,.02,0,0,0,.02,0,.02,0,0,0,.01,0,.02,0,0,0,.01,0,.02,0,0,0,.01,0,.02,0,0,0,.01,0,.02,0,0,0,0,0,.02,0,0,0,.02,0,.02,0,0,0,0,0,.02,0,0,0,.02,0,.02,0,0,0,0,0,.01,0,0,0,.02,0,.02,0,0,0,0,0,.01,0,0,0,.02,0,.03,0,0,0,0,0,.01,0,0,0,.02,0,.03,0,0,0,0,0,.01,0,0,0,.02,0,.03,0,0,0,0,0,0,0,0,0,.02,0,.03,0,0,0,0,0,0,0,.03,0,.05-.01.08,0,0,0,0,0,0,0,0,0,.02,0,.03,0,0,0,0,0,.01,0,0,0,.02,0,.03,0,0,0,0,0,.01,0,0,0,.02,0,.02,0,0,0,0,0,.01,0,0,0,.02,0,.02,0,0,0,.01,0,.02,0,0,0,.01,0,.02,0,0,0,.01,0,.02,0,0,0,.02,0,.02,0,0,0,.01,0,.02,0,0,0,.02,0,.02,0,0,0,0,0,.01,0,0,0,.02,0,.02,0,0,0,0,0,.01,0,0,0,.02,0,.03,0,0,0,0,0,.01,0,0,0,.02,0,.03,0,0,0,0,0,.01,0,0,0,.02,0,.03,0,0,0,0,0,.01,0,0,0,.02,0,.03,0,0,0,0,0,.01,0,.03,0,.05-.01.07,0,0,0,0,0,.01,0,0,0,.02,0,.03,0,0,0,0,0,0,0,0,0,.02,0,.03,0,0,0,.01,0,.01,0,0,0,.02,0,.03,0,0,0,0,0,.01,0,0,0,.02,0,.02,0,0,0,.01,0,.02,0,0,0,.02,0,.02,0,0,0,.01,0,.02,0,0,0,.02,0,.02,0,0,0,.01,0,.02,0,0,0,.02,0,.02,0,0,0,.01,0,.02,0,0,0,.01,0,.02,0,0,0,.01,0,.02,0,0,0,.01,0,.02,0,0,0,.01,0,.02,0,0,0,.02,0,.02,0,0,0,0,0,.01,0,0,0,.02,0,.03,0,0,0,0,0,.01,0,0,0,.01,0,.02,0,0,0,0,0,.01,0,0,0,.02,0,.03,0,0,0,0,0,.01,0,.01,0,.02,0,.04h0s0,.05-.01.08c0,0,0,0,0,.01,0,0,0,.02,0,.03,0,0,0,0,0,.01,0,0,0,.02,0,.03,0,0,0,0,0,0,0,0,0,.02,0,.03,0,0,0,0,0,.01,0,0,0,.02,0,.03,0,0,0,0,0,.01,0,0,0,.02,0,.02,0,0,0,0,0,.01,0,0,0,.02,0,.03,0,0,0,.01,0,.01,0,0,0,.02,0,.02,0,0,0,0,0,.01,0,0,0,.02,0,.02,0,0,0,0,0,.01,0,0,0,.02,0,.03,0,0,0,0,0,0,0,0,0,.02,0,.03,0,0,0,0,0,0,0,0,0,.02,0,.03,0,0,0,0,0,0,0,.01,0,.02,0,.03h0s-.01.08-.02.12h0s0,.02,0,.04c0,0,0,0,0,0,0,0,0,.02,0,.03,0,0,0,0,0,0,0,0,0,.02,0,.03,0,0,0,0,0,.01,0,0,0,.02,0,.03,0,0,0,0,0,.01,0,0,0,.02,0,.02,0,0,0,0,0,.01,0,0,0,.02,0,.03,0,0,0,0,0,.01,0,0,0,.02,0,.03,0,0,0,0,0,.01,0,0,0,.02,0,.03,0,0,0,0,0,.01,0,0,0,.02,0,.03,0,0,0,0,0,.01,0,0,0,.02,0,.03,0,0,0,0,0,0,0,.01,0,.02,0,.03,0,0,0,0,0,0,0,.05-.02.1-.03.15h0s0,.03,0,.04c0,0,0,0,0,0,0,.01,0,.02,0,.03,0,0,0,0,0,0,0,0,0,.02,0,.03,0,0,0,0,0,0,0,.01,0,.02,0,.03,0,0,0,0,0,0,0,0,0,.02,0,.03,0,0,0,0,0,0,0,.01,0,.02,0,.03,0,0,0,0,0,0,0,0,0,.02,0,.03,0,0,0,0,0,0,0,.01,0,.02,0,.03,0,0,0,0,0,0,0,.01,0,.02,0,.03,0,0,0,0,0,0,0,.01,0,.02,0,.03,0,0,0,0,0,0-.01.08-.03.15-.04.23,0,0,0,0,0,0,0,.01,0,.02,0,.04,0,0,0,0,0,0,0,.01,0,.02,0,.03,0,0,0,0,0,0,0,0,0,.02,0,.03,0,0,0,0,0,0,0,0,0,.02,0,.03,0,0,0,0,0,0,0,0,0,.02,0,.03,0,0,0,0,0,0,0,0,0,.02,0,.03,0,0,0,0,0,.01,0,0,0,.02,0,.03,0,0,0,0,0,0,0,.01,0,.02,0,.03,0,0,0,0,0,0,0,.01,0,.02,0,.04,0,0,0,0,0,0,0,.01,0,.02,0,.03,0,0,0,0,0,0,0,.05-.02.1-.03.15h0s0,.03,0,.04c0,0,0,0,0,0,0,.01,0,.02,0,.04,0,0,0,0,0,0,0,.01,0,.02,0,.03,0,0,0,0,0,0,0,.01,0,.02,0,.03,0,0,0,0,0,0,0,0,0,.02,0,.03,0,0,0,0,0,0,0,.01,0,.02,0,.03,0,0,0,0,0,0,0,.01,0,.02,0,.03,0,0,0,0,0,0,0,.01,0,.02,0,.03,0,0,0,0,0,0,0,.01,0,.02,0,.04h0c-.02.09-.03.18-.05.27,0,0,0,0,0,0,0,.01,0,.02,0,.04,0,0,0,0,0,0,0,.01,0,.02,0,.03,0,0,0,0,0,0,0,0,0,.02,0,.03,0,0,0,0,0,.01,0,0,0,.02,0,.03,0,0,0,0,0,.01,0,0,0,.02,0,.03,0,0,0,0,0,0,0,0,0,.02,0,.03,0,0,0,0,0,0,0,.01,0,.02,0,.03,0,0,0,0,0,0,0,.01,0,.02,0,.03,0,0,0,0,0,0,0,.01,0,.02,0,.04,0,0,0,0,0,0-.01.06-.02.13-.04.19,0,0,0,0,0,0,0,.01,0,.02,0,.03h0s0,.02,0,.04c0,0,0,0,0,0,0,.01,0,.02,0,.03,0,0,0,0,0,0,0,0,0,.02,0,.03,0,0,0,0,0,0,0,0,0,.02,0,.03,0,0,0,0,0,0,0,0,0,.02,0,.03,0,0,0,0,0,0,0,.01,0,.02,0,.03,0,0,0,0,0,0,0,.01,0,.02,0,.03,0,0,0,0,0,0,0,.01,0,.02,0,.04h0c-.01.06-.03.13-.04.19h0s0,.03,0,.04c0,0,0,0,0,0,0,.01,0,.02,0,.03,0,0,0,0,0,0,0,.01,0,.02,0,.03,0,0,0,0,0,0,0,.01,0,.02,0,.03,0,0,0,0,0,0,0,.01,0,.02,0,.03,0,0,0,0,0,0,0,.01,0,.02,0,.03,0,0,0,0,0,0,0,.01,0,.02,0,.03,0,0,0,0,0,0,0,0,0,.02,0,.03,0,0,0,0,0,0,0,.01,0,.02,0,.03,0,0,0,0,0,0,0,.01,0,.02,0,.03h0s0,.03,0,.04c0,0,0,0,0,0-.01.05-.02.1-.03.15,0,0,0,0,0,0,0,.01,0,.02,0,.03,0,0,0,0,0,0,0,0,0,.02,0,.03,0,0,0,0,0,0,0,0,0,.02,0,.03,0,0,0,0,0,0,0,0,0,.02,0,.03,0,0,0,0,0,0,0,.01,0,.02,0,.03,0,0,0,0,0,0,0,0,0,.02,0,.03,0,0,0,0,0,0,0,.01,0,.02,0,.03,0,0,0,0,0,0,0,.01,0,.02,0,.03,0,0,0,0,0,0,0,0,0,.02,0,.03,0,0,0,0,0,0-.02.1-.04.2-.06.3,0,0,0,0,0,0,0,.01,0,.02,0,.03,0,0,0,0,0,0,0,.01,0,.02,0,.03,0,0,0,0,0,0,0,.01,0,.02,0,.03,0,0,0,0,0,0,0,.01,0,.02,0,.03,0,0,0,0,0,0,0,.01,0,.02,0,.03,0,0,0,0,0,0,0,.01,0,.02,0,.03h0s0,.03,0,.04c0,0,0,0,0,0-.02.09-.04.18-.06.27,0,0,0,0,0,0,0,.01,0,.02,0,.04h0s0,.02,0,.04c0,0,0,0,0,0,0,.01,0,.02,0,.03,0,0,0,0,0,0,0,.01,0,.02,0,.03,0,0,0,0,0,0,0,.01,0,.02,0,.03h0s0,.03,0,.04c0,0,0,0,0,0,0,.01,0,.02,0,.04h0c-.03.14-.06.28-.09.42,0,0,0,0,0,0,0,.01,0,.02,0,.03,0,0,0,0,0,0,0,.01,0,.02,0,.03,0,0,0,0,0,0,0,.01,0,.02,0,.04h0s0,.03,0,.04c0,0,0,0,0,0-.03.13-.06.25-.09.38h0s0,.02,0,.04c0,0,0,0,0,0,0,.01,0,.02,0,.04,0,0,0,0,0,0,0,.01,0,.02,0,.04,0,0,0,0,0,0,0,.01,0,.02,0,.04h0c-.04.18-.08.36-.12.54,0,0,0,0,0,0-.04.18-.08.36-.13.53h0s-.01.05-.02.08h0c-.04.15-.07.31-.11.46,0,0,0,0,0,0-.01.05-.02.1-.04.15h0c-.04.15-.08.3-.11.46h0c-1.65,6.54-3.93,12.87-6.79,18.94-.49,1.04-1.37,1.76-2.39,2.07Zm-61.37,53.14c-55,16.82-113.22-14.14-130.04-69.14,0-.02-.01-.03-.01-.05h0s0-.04-.01-.05c0,0,0-.01,0-.01,0-.02,0-.03-.01-.05h0s0-.04-.01-.05c0,0,0-.01,0-.01,0-.01,0-.02-.01-.04,0,0,0,0,0-.02,0-.01,0-.03-.01-.04,0,0,0,0,0,0,0-.02,0-.03-.01-.05,0,0,0,0,0-.01,0-.01,0-.02-.01-.03,0,0,0-.01,0-.02,0-.01,0-.02-.01-.04,0,0,0,0,0-.01,0-.02,0-.03-.01-.05,0,0,0,0,0-.01,0-.01,0-.02-.01-.04,0,0,0,0,0-.01,0-.01,0-.02-.01-.04,0,0,0,0,0-.01,0-.02,0-.03-.01-.05,0,0,0,0,0,0,0-.01,0-.02-.01-.04,0,0,0,0,0-.02,0-.01,0-.02-.01-.03,0,0,0-.01,0-.01,0-.02,0-.03-.01-.05,0,0,0,0,0-.01,0-.01,0-.02-.01-.04,0,0,0-.01,0-.02,0-.01,0-.02-.01-.04,0,0,0-.01,0-.01,0-.02,0-.03-.01-.05h0s0-.03-.01-.05c0,0,0-.01,0-.02,0-.01,0-.02-.01-.03,0,0,0-.01,0-.01,0-.01,0-.03-.01-.04,0,0,0,0,0,0,0-.02,0-.03-.01-.05,0,0,0,0,0-.01,0-.01,0-.02-.01-.04,0,0,0-.01,0-.02,0-.01,0-.03-.01-.04,0,0,0,0,0,0,0-.02,0-.03-.01-.05h0s0-.04-.01-.05c0,0,0,0,0-.01,0-.01,0-.02-.01-.04,0,0,0,0,0-.01,0-.02,0-.03-.01-.05,0,0,0,0,0-.01,0-.01,0-.02-.01-.04,0,0,0,0,0-.02,0-.01,0-.02-.01-.04,0,0,0,0,0-.01,0-.02,0-.03-.01-.05,0,0,0,0,0-.01,0-.01,0-.02,0-.03,0,0,0,0,0-.02,0-.01,0-.02,0-.03,0,0,0-.01,0-.01,0-.02,0-.03-.01-.05,0,0,0,0,0,0,0-.01,0-.02-.01-.04,0,0,0,0,0-.02,0-.01,0-.02,0-.03,0,0,0-.01,0-.02,0-.02,0-.03-.01-.05,0,0,0,0,0,0,0-.01,0-.03-.01-.04,0,0,0-.01,0-.02,0-.01,0-.02,0-.03,0,0,0-.01,0-.02,0-.02,0-.03-.01-.05h0s0-.03-.01-.05c0,0,0-.01,0-.01,0-.01,0-.02-.01-.04,0,0,0,0,0-.01,0-.01,0-.03-.01-.04,0,0,0,0,0,0,0-.02,0-.03-.01-.05,0,0,0,0,0-.01,0-.01,0-.02-.01-.04,0,0,0,0,0-.02,0-.01,0-.03-.01-.04,0,0,0,0,0,0,0-.02,0-.03-.01-.05,0,0,0,0,0-.01,0-.01,0-.02-.01-.04,0,0,0,0,0-.01,0-.01,0-.02-.01-.04,0,0,0,0,0-.01,0-.02,0-.03-.01-.05,0,0,0,0,0-.01,0-.01,0-.03-.01-.04,0,0,0,0,0-.02,0-.01,0-.02-.01-.04,0,0,0,0,0-.01,0-.02,0-.03-.01-.05,0,0,0,0,0,0,0-.01,0-.03-.01-.04,0,0,0-.01,0-.01,0-.01,0-.02,0-.03,0,0,0-.01,0-.02,0-.02,0-.03-.01-.05,0,0,0,0,0,0,0-.01,0-.03-.01-.04,0,0,0-.01,0-.02,0-.01,0-.02,0-.03,0,0,0-.01,0-.01,0-.01,0-.03-.01-.04h0s0-.04-.01-.05c0,0,0-.01,0-.01,0-.01,0-.02,0-.03,0,0,0-.01,0-.02,0-.01,0-.03-.01-.04,0,0,0,0,0,0,0-.02,0-.03-.01-.05,0,0,0-.01,0-.02,0-.01,0-.02,0-.03,0,0,0-.01,0-.02,0-.01,0-.02,0-.04,0,0,0,0,0-.01,0-.02,0-.03-.01-.05,0,0,0,0,0-.01,0-.01,0-.02,0-.04,0,0,0,0,0-.02,0-.01,0-.02,0-.04,0,0,0,0,0-.01,0-.02,0-.03-.01-.05,0,0,0,0,0-.01,0-.01,0-.02,0-.04,0,0,0,0,0-.02,0-.01,0-.02,0-.04,0,0,0,0,0-.01,0-.02,0-.03-.01-.05,0,0,0,0,0,0,0-.01,0-.03-.01-.04,0,0,0,0,0-.02,0-.01,0-.02,0-.04,0,0,0-.01,0-.01,0-.02,0-.03-.01-.05,0,0,0,0,0,0,0-.01,0-.03-.01-.04,0,0,0-.01,0-.02,0-.01,0-.02,0-.03,0,0,0-.01,0-.02,0-.02,0-.03-.01-.05h0s0-.03-.01-.05c0,0,0-.01,0-.02,0,0,0-.02,0-.03,0,0,0-.01,0-.02,0-.01,0-.03-.01-.04,0,0,0,0,0,0,0-.02,0-.03-.01-.05,0,0,0-.01,0-.02,0-.01,0-.02,0-.03,0,0,0,0,0-.02,0-.01,0-.03-.01-.04,0,0,0,0,0,0,0-.02,0-.03-.01-.05,0,0,0,0,0-.01,0-.01,0-.02,0-.04,0,0,0,0,0-.02,0-.01,0-.02,0-.04,0,0,0,0,0-.01,0-.02,0-.03-.01-.05,0,0,0,0,0-.01,0-.01,0-.02,0-.04,0,0,0,0,0-.02,0-.01,0-.02,0-.04,0,0,0,0,0-.01,0-.02,0-.03-.01-.05,0,0,0,0,0-.01,0-.01,0-.02,0-.04,0,0,0,0,0-.02,0-.01,0-.02,0-.03,0,0,0-.01,0-.01,0-.02,0-.03-.01-.05,0,0,0,0,0,0,0-.01,0-.03,0-.04,0,0,0-.01,0-.02,0-.01,0-.02,0-.04,0,0,0,0,0-.01,0-.03-.02-.07-.02-.1,0,0,0,0,0-.01,0-.01,0-.02,0-.04,0,0,0-.01,0-.01,0-.02,0-.03-.01-.05h0s0-.03-.01-.05c0,0,0-.01,0-.02,0-.01,0-.02,0-.03,0,0,0-.01,0-.01,0-.01,0-.03-.01-.04,0,0,0,0,0,0,0-.02,0-.03-.01-.05,0,0,0,0,0-.01,0-.01,0-.02,0-.04,0,0,0,0,0-.02,0-.01,0-.03,0-.04,0,0,0,0,0,0,0-.02,0-.03-.01-.05,0,0,0,0,0-.01,0-.01,0-.02,0-.04,0,0,0,0,0-.01,0-.01,0-.02,0-.04,0,0,0,0,0-.01,0-.02,0-.03-.01-.05,0,0,0,0,0-.01,0-.01,0-.02,0-.04,0,0,0-.01,0-.02,0-.01,0-.02,0-.03,0,0,0,0,0-.01,0-.02,0-.03-.01-.05,0,0,0,0,0,0,0-.01,0-.03,0-.04,0,0,0-.01,0-.02,0-.01,0-.02,0-.03,0,0,0-.01,0-.01,0-.02,0-.03-.01-.05,0,0,0,0,0,0,0-.01,0-.03-.01-.04,0,0,0-.01,0-.02,0-.01,0-.02,0-.04,0,0,0-.01,0-.01,0-.02,0-.03-.01-.05h0s0-.04-.01-.05c0,0,0,0,0-.01,0-.01,0-.02,0-.04,0,0,0-.01,0-.01,0-.01,0-.03-.01-.04,0,0,0,0,0,0,0-.02,0-.03-.01-.05,0,0,0-.01,0-.01,0-.01,0-.02,0-.03,0,0,0,0,0-.02,0-.01,0-.02,0-.04,0,0,0,0,0-.01,0-.02,0-.03-.01-.05,0,0,0,0,0-.01,0-.01,0-.02,0-.04,0,0,0-.01,0-.02,0-.01,0-.02,0-.04,0,0,0,0,0-.01,0-.02,0-.03-.01-.05,0,0,0,0,0-.01,0-.01,0-.02,0-.04,0,0,0,0,0-.02,0-.01,0-.02,0-.03,0,0,0,0,0-.01,0-.02,0-.03-.01-.05,0,0,0,0,0,0,0-.01,0-.03,0-.04,0,0,0,0,0-.02,0-.01,0-.02,0-.04,0,0,0-.01,0-.01,0-.02,0-.03-.01-.05,0,0,0,0,0,0,0-.01,0-.03,0-.04,0,0,0-.01,0-.01,0-.01,0-.02,0-.04,0,0,0-.01,0-.01,0-.02,0-.03-.01-.05h0s0-.03-.01-.05c0,0,0-.01,0-.01,0-.01,0-.02,0-.04,0,0,0-.01,0-.01,0-.02,0-.03-.01-.04h0s0-.04-.01-.05c0,0,0,0,0-.01,0-.01,0-.02,0-.04,0,0,0-.01,0-.01,0-.01,0-.03,0-.04,0,0,0,0,0,0,0-.02,0-.03-.01-.05,0,0,0,0,0,0,0-.01,0-.03,0-.04,0,0,0,0,0-.01,0-.01,0-.03,0-.04,0,0,0,0,0,0,0-.02,0-.03-.01-.05h0s0-.03,0-.05c0,0,0,0,0-.01,0-.01,0-.03,0-.04h0s0-.04-.01-.06c0,0,0,0,0,0,0-.01,0-.03,0-.04,0,0,0,0,0-.01,0-.01,0-.03,0-.04,0,0,0,0,0-.01,0-.02,0-.03-.01-.05,0,0,0,0,0,0,0-.01,0-.03,0-.04,0,0,0-.01,0-.02,0-.01,0-.02,0-.04,0,0,0,0,0-.01,0-.02,0-.03-.01-.05h0s0-.03-.01-.05c0,0,0-.01,0-.01,0-.01,0-.02,0-.04,0,0,0-.01,0-.02,0-.02,0-.03-.01-.05h0s0-.03-.01-.05c0,0,0,0,0-.01,0-.01,0-.02,0-.04,0,0,0-.01,0-.01,0-.01,0-.03,0-.04,0,0,0,0,0,0,0-.02,0-.03-.01-.05,0,0,0,0,0,0,0-.01,0-.03,0-.04,0,0,0,0,0-.01,0-.01,0-.03,0-.04,0,0,0,0,0,0,0-.02,0-.03-.01-.05,0,0,0,0,0-.01,0-.01,0-.03,0-.04,0,0,0,0,0-.01,0-.01,0-.03,0-.04h0s0-.04-.01-.06c0,0,0,0,0,0,0-.01,0-.03,0-.04,0,0,0,0,0-.01,0-.01,0-.03,0-.04,0,0,0,0,0,0,0-.02,0-.03-.01-.05,0,0,0,0,0,0,0-.01,0-.03,0-.04,0,0,0-.01,0-.01,0-.01,0-.02,0-.04,0,0,0,0,0-.01,0-.02,0-.03-.01-.05h0s0-.03,0-.05c0,0,0,0,0-.01,0-.01,0-.02,0-.04,0,0,0,0,0-.01,0-.03-.01-.07-.02-.1,0,0,0,0,0-.01,0-.01,0-.03,0-.04,0,0,0,0,0-.01,0-.02,0-.03,0-.05h0s0-.03-.01-.05c0,0,0,0,0-.01,0-.01,0-.02,0-.04,0,0,0,0,0-.01,0-.01,0-.03,0-.04,0,0,0,0,0,0,0-.02,0-.03,0-.05,0,0,0,0,0,0,0-.01,0-.03,0-.04,0,0,0,0,0-.01,0-.01,0-.03,0-.04,0,0,0,0,0,0,0-.02,0-.03-.01-.05,0,0,0,0,0,0,0-.01,0-.03,0-.04,0,0,0,0,0-.01,0-.01,0-.02,0-.04,0,0,0,0,0-.01,0-.02,0-.03,0-.05,0,0,0,0,0,0,0-.01,0-.03,0-.04,0,0,0,0,0-.01,0-.01,0-.03,0-.04,0,0,0,0,0,0,0-.03-.01-.07-.02-.1,0,0,0,0,0,0,0-.01,0-.03,0-.04,0,0,0,0,0,0,0-.03-.01-.07-.02-.1,0,0,0,0,0-.01,0-.01,0-.03,0-.04,0,0,0,0,0,0,0-.03-.01-.07-.02-.1,0,0,0,0,0,0,0-.01,0-.03,0-.04,0,0,0,0,0-.01,0-.02,0-.03,0-.04,0,0,0,0,0,0,0-.02,0-.03,0-.05,0,0,0,0,0-.01,0-.01,0-.03,0-.04,0,0,0,0,0-.01,0-.01,0-.03,0-.04,0,0,0,0,0,0,0-.02,0-.03,0-.05,0,0,0,0,0,0,0-.01,0-.03,0-.04,0,0,0,0,0-.01,0-.01,0-.03,0-.04h0s0-.04,0-.06c0,0,0,0,0,0,0-.01,0-.03,0-.04,0,0,0,0,0-.01,0-.01,0-.03,0-.04,0,0,0,0,0,0,0-.02,0-.03,0-.05h0s0-.03,0-.05c0,0,0,0,0-.01,0-.01,0-.03,0-.04,0,0,0,0,0-.01,0-.03-.01-.07-.02-.1,0,0,0,0,0,0,0-.01,0-.03,0-.04,0,0,0,0,0-.01,0-.03-.01-.07-.02-.1,0,0,0,0,0-.01,0-.01,0-.02,0-.04,0,0,0,0,0-.01,0-.01,0-.03,0-.04,0,0,0,0,0,0,0-.02,0-.03,0-.05,0,0,0,0,0-.01,0-.01,0-.02,0-.04,0,0,0,0,0-.01,0-.01,0-.03,0-.04,0,0,0,0,0,0,0-.02,0-.03,0-.05,0,0,0,0,0-.01,0-.01,0-.03,0-.04,0,0,0,0,0-.01,0-.01,0-.03,0-.04,0,0,0,0,0,0,0-.02,0-.03,0-.05,0,0,0,0,0,0,0-.01,0-.03,0-.04,0,0,0,0,0-.01,0-.01,0-.02,0-.04,0,0,0,0,0-.01,0-.02,0-.03,0-.05,0,0,0,0,0,0,0-.02,0-.03,0-.05,0,0,0,0,0-.01,0-.01,0-.02,0-.04,0,0,0,0,0-.01,0-.03-.01-.07-.02-.1,0,0,0-.01,0-.01,0-.01,0-.02,0-.04,0,0,0,0,0-.01,0-.03-.01-.07-.02-.1,0,0,0,0,0-.01,0-.01,0-.02,0-.04,0,0,0,0,0-.01,0-.03-.01-.06-.02-.1,0,0,0,0,0-.01,0-.01,0-.03,0-.04,0,0,0,0,0-.01,0-.01,0-.03,0-.04,0,0,0,0,0,0,0-.02,0-.03,0-.05,0,0,0,0,0-.01,0-.01,0-.03,0-.04,0,0,0,0,0-.01,0-.01,0-.03,0-.04,0,0,0,0,0,0,0-.02,0-.03,0-.05,0,0,0,0,0,0,0-.01,0-.03,0-.04,0,0,0,0,0-.01,0-.01,0-.02,0-.04,0,0,0,0,0-.01,0-.02,0-.03,0-.05,0,0,0,0,0,0,0-.01,0-.03,0-.04,0,0,0-.01,0-.01,0-.01,0-.02,0-.04,0,0,0,0,0-.01,0-.02,0-.03,0-.05,0,0,0,0,0,0,0-.01,0-.03,0-.04,0,0,0-.01,0-.02,0-.01,0-.02,0-.03,0,0,0-.01,0-.01,0-.02,0-.03,0-.05h0s0-.03,0-.05c0,0,0-.01,0-.01,0-.01,0-.02,0-.04,0,0,0-.01,0-.01,0-.02,0-.03,0-.05h0s0-.04,0-.05c0,0,0,0,0-.01,0-.01,0-.02,0-.04,0,0,0-.01,0-.01,0-.01,0-.03,0-.04,0,0,0,0,0,0,0-.02,0-.03,0-.05,0,0,0,0,0-.01,0-.01,0-.03,0-.04,0,0,0,0,0-.01,0-.01,0-.03,0-.04,0,0,0,0,0,0,0-.02,0-.03,0-.05h0s0-.04,0-.05c0,0,0,0,0-.01,0-.01,0-.03,0-.04,0,0,0,0,0-.01,0-.02,0-.03,0-.05,0,0,0,0,0,0,0-.01,0-.03,0-.04,0,0,0,0,0-.01,0-.01,0-.02,0-.04,0,0,0,0,0-.01,0-.02,0-.03,0-.05h0s0-.03,0-.05c0,0,0-.01,0-.01,0-.01,0-.02,0-.04,0,0,0,0,0-.01,0-.03-.01-.07-.02-.1,0,0,0,0,0-.01,0-.01,0-.03,0-.04,0,0,0,0,0-.01,0-.03-.01-.07-.01-.1,0,0,0,0,0-.01,0-.01,0-.03,0-.04,0,0,0,0,0-.01,0-.01,0-.03,0-.04,0,0,0,0,0,0,0-.02,0-.03,0-.05,0,0,0,0,0,0,0-.01,0-.03,0-.04,0,0,0,0,0-.01,0-.01,0-.03,0-.04,0,0,0,0,0,0,0-.02,0-.03,0-.05h0s0-.04,0-.05c0,0,0,0,0-.01,0-.01,0-.03,0-.04h0s0-.04,0-.06c0,0,0,0,0,0,0-.02,0-.03,0-.05,0,0,0,0,0,0,0-.01,0-.03,0-.04h0s0-.04,0-.06c0,0,0,0,0,0,0-.02,0-.03,0-.05,0,0,0,0,0-.01,0-.01,0-.03,0-.04,0,0,0,0,0-.01,0-.03,0-.07-.01-.1,0,0,0,0,0,0,0-.01,0-.03,0-.04,0,0,0,0,0,0,0-.04,0-.06-.01-.1,0,0,0,0,0,0,0-.01,0-.03,0-.04,0,0,0,0,0-.01,0-.03,0-.07-.01-.1,0,0,0,0,0,0,0-.01,0-.03,0-.04,0,0,0,0,0-.01,0-.02,0-.03,0-.05,0,0,0,0,0,0,0-.02,0-.03,0-.05h0s0-.04,0-.05c0,0,0,0,0-.01,0-.01,0-.03,0-.04h0s0-.04,0-.06h0s0-.03,0-.05c0,0,0,0,0,0,0-.01,0-.03,0-.04h0s0-.07-.01-.11c0,0,0,0,0,0,0-.01,0-.03,0-.04,0,0,0,0,0,0,0-.03,0-.07-.01-.1,0,0,0,0,0,0,0-.01,0-.03,0-.04,0,0,0,0,0,0,0-.03,0-.07-.01-.1,0,0,0,0,0-.01,0-.01,0-.03,0-.04,0,0,0,0,0-.01,0-.03,0-.07-.01-.1,0,0,0,0,0,0,0-.01,0-.03,0-.04,0,0,0,0,0-.01,0-.02,0-.03,0-.05,0,0,0,0,0,0,0-.02,0-.03,0-.05h0s0-.04,0-.05c0,0,0,0,0-.01,0-.01,0-.03,0-.04h0s0-.04,0-.06h0s0-.04,0-.05c0,0,0,0,0-.01,0-.01,0-.03,0-.04h0s0-.04,0-.06c0,0,0,0,0,0,0-.02,0-.03,0-.05,0,0,0,0,0,0,0-.01,0-.03,0-.04h0s0-.07-.01-.11c0,0,0,0,0-.01,0-.01,0-.03,0-.04,0,0,0,0,0,0,0-.04,0-.07-.01-.1,0,0,0,0,0,0,0-.01,0-.03,0-.04,0,0,0,0,0,0,0-.04,0-.07-.01-.1,0,0,0,0,0,0,0-.01,0-.03,0-.04,0,0,0,0,0,0,0-.02,0-.03,0-.05,0,0,0,0,0,0,0-.02,0-.03,0-.05h0s0-.04,0-.05c0,0,0,0,0,0,0-.02,0-.03,0-.05h0s0-.03,0-.05h0s0-.04,0-.05c0,0,0,0,0,0,0-.01,0-.03,0-.04h0s0-.04,0-.06c0,0,0,0,0,0,0-.02,0-.03,0-.05,0,0,0,0,0-.01,0-.01,0-.03,0-.04h0s0-.07-.01-.11c0,0,0,0,0,0,0-.01,0-.03,0-.04,0,0,0,0,0,0,0-.03,0-.07-.01-.1,0,0,0,0,0,0,0-.01,0-.03,0-.04,0,0,0,0,0,0,0-.04,0-.06-.01-.1,0,0,0,0,0,0,0-.01,0-.03,0-.04,0,0,0,0,0,0,0-.03,0-.07-.01-.1h0s0-.04,0-.05c0,0,0,0,0,0,0-.04,0-.07-.01-.1h0s0-.03,0-.05c0,0,0,0,0-.01,0-.02,0-.03,0-.05h0s0-.04,0-.06h0s0-.03,0-.05h0s0-.04,0-.05h0s0-.07-.01-.11c0,0,0,0,0,0,0-.01,0-.03,0-.04,0,0,0,0,0,0,0-.04,0-.07-.01-.1,0,0,0,0,0,0,0-.01,0-.03,0-.04,0,0,0,0,0,0,0-.03,0-.07,0-.1,0,0,0,0,0,0,0-.01,0-.03,0-.04,0,0,0,0,0-.01,0-.03,0-.07,0-.1h0s0-.04,0-.05c0,0,0,0,0-.01,0-.02,0-.03,0-.05h0s0-.03,0-.05h0s0-.03,0-.05h0s0-.04,0-.06h0s0-.07,0-.1h0s0-.04,0-.05h0s0-.07,0-.11c0,0,0,0,0,0,0-.01,0-.03,0-.05h0s0-.07,0-.11c0,0,0,0,0,0,0-.01,0-.03,0-.04,0,0,0,0,0,0,0-.04,0-.07,0-.1,0,0,0,0,0,0,0-.01,0-.03,0-.04,0,0,0,0,0,0,0-.03,0-.07,0-.1h0s0-.03,0-.05c0,0,0,0,0,0,0-.03,0-.07,0-.1h0s0-.04,0-.05c0,0,0,0,0,0,0-.02,0-.03,0-.05h0s0-.03,0-.05h0s0-.04,0-.05c0,0,0,0,0,0,0-.02,0-.03,0-.05h0s0-.07,0-.1c0,0,0,0,0,0,0-.02,0-.03,0-.05h0s0-.07,0-.11c0,0,0,0,0,0,0-.01,0-.03,0-.04,0,0,0,0,0,0,0-.04,0-.06,0-.1,0,0,0,0,0,0,0-.01,0-.03,0-.04,0,0,0,0,0,0,0-.04,0-.06,0-.1,0,0,0,0,0,0,0-.01,0-.03,0-.04,0,0,0,0,0,0,0-.03,0-.07,0-.1h0s0-.04,0-.05c0,0,0,0,0,0,0-.03,0-.07,0-.1h0s0-.03,0-.05h0s0-.04,0-.06h0s0-.04,0-.06h0s0-.03,0-.05c0,0,0,0,0,0,0-.01,0-.03,0-.04h0s0-.07,0-.11c0,0,0,0,0,0,0-.02,0-.03,0-.05h0s0-.07,0-.11c0,0,0,0,0,0,0-.02,0-.03,0-.05,0,0,0,0,0,0,0-.04,0-.07,0-.1,0,0,0,0,0,0,0-.01,0-.03,0-.04,0,0,0,0,0,0,0-.03,0-.07,0-.1h0s0-.04,0-.05c0,0,0,0,0,0,0-.03,0-.07,0-.1h0s0-.04,0-.05c0,0,0,0,0,0,0-.01,0-.03,0-.04h0s0-.04,0-.06h0s0-.03,0-.05c0,0,0,0,0,0,0-.01,0-.03,0-.04h0s0-.04,0-.06c0,0,0,0,0,0,0-.02,0-.03,0-.05,0,0,0,0,0,0,0-.01,0-.03,0-.04,0,0,0,0,0,0,0-.03,0-.07,0-.1,0,0,0,0,0,0,0-.01,0-.03,0-.04,0,0,0,0,0,0,0-.04,0-.07,0-.1,0,0,0,0,0,0,0-.01,0-.03,0-.04,0,0,0,0,0,0,0-.04,0-.07,0-.1,0,0,0,0,0,0,0-.01,0-.03,0-.04,0,0,0,0,0,0,0-.02,0-.03,0-.05h0s0-.03,0-.05h0s0-.04,0-.05c0,0,0,0,0-.01,0-.02,0-.03,0-.05h0s0-.04,0-.05h0s0-.03,0-.05h0s0-.04,0-.05h0s0-.07,0-.1c0,0,0,0,0,0,0-.02,0-.03,0-.04h0s0-.07,0-.11c0,0,0,0,0,0,0-.01,0-.03,0-.04,0,0,0,0,0,0,0-.03,0-.07,0-.1,0,0,0,0,0,0,0-.01,0-.03,0-.04,0,0,0,0,0,0,0-.03,0-.07,0-.1,0,0,0,0,0,0,0-.01,0-.03,0-.04,0,0,0,0,0,0,0-.03,0-.07,0-.1h0s0-.04,0-.05h0c0-.06,0-.11,0-.16h0s0-.04,0-.06h0s0-.07,0-.1c0,0,0,0,0,0,0-.02,0-.03,0-.05h0s0-.07,0-.11c0,0,0,0,0,0,0-.01,0-.03,0-.04,0,0,0,0,0,0,0-.04,0-.07,0-.1,0,0,0,0,0,0,0-.01,0-.03,0-.04h0s0-.07,0-.11c0,0,0,0,0,0,0-.01,0-.03,0-.04,0,0,0,0,0,0,0-.04,0-.07,0-.1h0s0-.03,0-.05c0,0,0,0,0,0,0-.03,0-.07,0-.1h0s0-.03,0-.05h0s0-.04,0-.05h0s0-.04,0-.06h0s0-.03,0-.05c0,0,0,0,0,0,0-.02,0-.03,0-.05h0s0-.04,0-.06c0,0,0,0,0,0,0-.02,0-.03,0-.05,0,0,0,0,0,0,0-.01,0-.03,0-.04h0s0-.07,0-.11c0,0,0,0,0,0,0-.01,0-.03,0-.04,0,0,0,0,0,0,0-.04,0-.07,0-.1,0,0,0,0,0,0,0-.01,0-.03,0-.04,0,0,0,0,0,0,0-.03,0-.07,0-.1h0s0-.04,0-.05c0,0,0,0,0,0,0-.03,0-.07,0-.1h0s0-.04,0-.05c0,0,0,0,0,0,0-.02,0-.03,0-.05h0s0-.04,0-.05h0s0-.03,0-.05h0s0-.04,0-.05h0s0-.07,0-.11c0,0,0,0,0,0,0-.02,0-.03,0-.05h0s0-.07,0-.11c0,0,0,0,0,0,0-.02,0-.03,0-.05,0,0,0,0,0,0,0-.04,0-.07,0-.1,0,0,0,0,0,0,0-.01,0-.03,0-.05,0,0,0,0,0,0,0-.04,0-.07,0-.1h0s0-.03,0-.05t0,0s0-.07,0-.1h0s0-.04,0-.05c0,0,0,0,0,0,0-.05,0-.1,0-.15h0s0-.04,0-.06h0s0-.07,0-.1c0,0,0,0,0,0,0-.01,0-.03,0-.04h0s0-.07,0-.11c0,0,0,0,0,0,0-.02,0-.03,0-.04h0s0-.07,0-.11c0,0,0,0,0,0,0-.01,0-.03,0-.05,0,0,0,0,0,0,0-.04,0-.07,0-.1,0,0,0,0,0,0,0-.01,0-.03,0-.05,0,0,0,0,0,0,0-.04,0-.07,0-.1h0s0-.04,0-.05c0,0,0,0,0,0,0-.03,0-.07,0-.1h0s0-.03,0-.05h0s0-.04,0-.06h0s0-.07,0-.1h0c0-.06,0-.11,0-.16,0,0,0,0,0,0,0-.02,0-.03,0-.05h0s0-.07,0-.1c0,0,0,0,0,0,0-.02,0-.03,0-.05h0s0-.07,0-.11h0s0-.03,0-.05c0,0,0,0,0,0,0-.04,0-.07,0-.1h0s0-.03,0-.05h0c0-.05,0-.1,0-.16h0c0-.06,0-.11,0-.16h0c0-.05,0-.11,0-.16,0,0,0,0,0,0,0-.02,0-.03,0-.05h0s0-.07,0-.1c0,0,0,0,0,0,0-.02,0-.03,0-.05h0s0-.07,0-.11c0,0,0,0,0,0,0-.02,0-.03,0-.05,0,0,0,0,0,0,0-.04,0-.07,0-.1h0s0-.03,0-.05c0,0,0,0,0,0,0-.04,0-.07,0-.1h0s0-.03,0-.05h0c0-.06,0-.1,0-.16h0c0-.06,0-.11,0-.16h0s0-.04,0-.05h0s0-.07,0-.11c0,0,0,0,0,0,0-.02,0-.03,0-.05h0s0-.07,0-.1c0,0,0,0,0,0,0-.02,0-.03,0-.05,0,0,0,0,0,0,0-.04,0-.07,0-.1h0s0-.03,0-.05c0,0,0,0,0,0,0-.04,0-.07,0-.1h0s0-.03,0-.05c0,0,0,0,0,0,0-.05,0-.1,0-.15h0c0-.06,0-.11,0-.16h0c0-.06,0-.1,0-.16,0,0,0,0,0,0,0-.02,0-.03,0-.05h0s0-.07,0-.1c0,0,0,0,0,0,0-.02,0-.03,0-.05,0,0,0,0,0,0,0-.03,0-.07,0-.1,0,0,0,0,0,0,0-.01,0-.03,0-.04,0,0,0,0,0,0,0-.04,0-.07,0-.1h0s0-.03,0-.05c0,0,0,0,0,0,0-.05,0-.1,0-.15h0s0-.07,0-.11h0s0-.03,0-.05h0c0-.06,0-.11,0-.16h0s0-.04,0-.05h0s0-.07,0-.1c0,0,0,0,0,0,0-.02,0-.03,0-.05h0s0-.07,0-.11h0s0-.03,0-.05c0,0,0,0,0,0,0-.05,0-.1,0-.16h0s0-.07,0-.11h0s0-.03,0-.05h0c0-.06,0-.11,0-.16h0c0-.06,0-.1,0-.16h0s0-.04,0-.05h0s0-.07,0-.1c0,0,0,0,0,0,0-.07,0-.14.01-.21h0c0-.11.01-.21.02-.31h0c0-.06,0-.11,0-.16h0c0-.05,0-.1,0-.16h0c0-.06,0-.11,0-.16h0s0-.03,0-.05h0s0-.07,0-.1c0,0,0,0,0,0,0-.02,0-.03,0-.05h0c0-.05,0-.1,0-.16,0,0,0,0,0,0,0-.05,0-.1.01-.15h0c0-.05,0-.1.01-.16h0c0-.06,0-.1.01-.16h0c0-.06,0-.1.01-.16,0,0,0,0,0,0,0-.05,0-.1.01-.15,0,0,0,0,0,0,0-.02,0-.03,0-.05h0s0-.07,0-.1h0s0-.03,0-.05h0s0-.07,0-.1h0s0-.03,0-.05h0c0-.05,0-.1.01-.16h0c0-.05,0-.1.01-.16h0c0-.06,0-.11.01-.16h0c0-.05,0-.1.01-.16,0,0,0,0,0,0,0-.05,0-.1.01-.15h0s0-.04,0-.05h0s0-.07,0-.1h0s0-.03,0-.05h0c0-.05,0-.1.01-.15h0c0-.06,0-.1.01-.16h0c0-.05,0-.1.01-.16h0c0-.06,0-.1.01-.16h0c0-.05,0-.1.01-.16,0,0,0,0,0,0,0-.02,0-.03,0-.05h0s0-.07,0-.11h0s0-.03,0-.05c0,0,0,0,0,0,0-.03,0-.07,0-.1h0s0-.03,0-.05h0c0-.06,0-.1.01-.16h0c0-.06,0-.1.01-.16h0c0-.06.01-.11.02-.16h0c0-.05.01-.1.02-.16,0,0,0,0,0,0,0-.02,0-.03,0-.05h0c.01-.1.02-.21.03-.31h0c0-.05.01-.1.02-.16h0c0-.05.01-.1.02-.16h0c0-.05.01-.1.02-.16h0c0-.05.01-.1.02-.16,0,0,0,0,0,0,0-.05.01-.1.02-.15h0s0-.03,0-.05h0s0-.07.01-.1h0s0-.03,0-.05h0c0-.05.01-.1.02-.15h0c0-.05.01-.1.02-.16h0c0-.05.01-.1.02-.16h0c0-.05.01-.1.02-.16h0c0-.05.01-.1.02-.15,0,0,0,0,0,0,0-.02,0-.03,0-.05h0c0-.05.01-.1.02-.15,0,0,0,0,0,0,0-.05.01-.1.02-.15h0c.01-.11.03-.21.04-.31h0c0-.05.01-.1.02-.15,0,0,0,0,0,0,0-.02,0-.03,0-.05h0s0-.07.01-.1c0,0,0,0,0,0,0-.02,0-.03,0-.05h0s0-.07.01-.1h0s0-.03,0-.05h0c0-.05.01-.1.02-.15h0c0-.06.01-.1.02-.16h0c0-.05.01-.1.02-.15h0c0-.06.01-.1.02-.16h0c0-.05.01-.1.02-.15,0,0,0,0,0,0,0-.05.01-.1.02-.15h0s0-.03,0-.05h0s0-.07.01-.1h0s0-.03,0-.05h0c0-.05.01-.1.02-.15h0c0-.06.01-.1.02-.16h0c0-.05.01-.1.02-.15h0c0-.05.02-.1.02-.16h0c0-.05.02-.1.02-.15h0c0-.05.02-.1.02-.15h0s0-.03,0-.05c0,0,0,0,0,0,0-.05.02-.1.02-.15h0c0-.05.02-.1.02-.15h0c0-.05.02-.1.02-.15h0s0-.04,0-.05h0s.01-.07.02-.1c0,0,0,0,0,0,0-.01,0-.03,0-.05h0s.01-.07.02-.1c0,0,0,0,0,0,0-.01,0-.03,0-.04,0,0,0,0,0,0,0-.03.01-.07.02-.1h0s0-.03,0-.05c0,0,0,0,0,0,0-.05.02-.1.03-.15h0c0-.05.02-.1.03-.15h0c0-.05.02-.1.03-.15h0c0-.06.02-.1.03-.15h0s0-.03,0-.05h0s.01-.07.02-.1c0,0,0,0,0,0,0-.02,0-.03,0-.05h0s.01-.07.02-.1h0s0-.03,0-.05h0s.01-.07.02-.1h0s0-.03,0-.05h0c0-.05.02-.1.03-.15h0c0-.05.02-.1.03-.15h0s0-.03,0-.05h0s.01-.07.02-.1h0s0-.04,0-.05h0s.01-.07.02-.1c0,0,0,0,0,0,0-.02,0-.03,0-.05h0s.01-.07.02-.1c0,0,0,0,0,0,0-.02,0-.03,0-.05,0,0,0,0,0,0,0-.03.01-.07.02-.1h0s0-.03,0-.05c0,0,0,0,0,0,0-.05.02-.1.03-.15h0c0-.06.02-.1.03-.15h0c0-.05.02-.1.03-.15h0c0-.05.02-.1.03-.15,0,0,0,0,0,0,0-.02,0-.03,0-.05h0s.01-.07.02-.1c0,0,0,0,0,0,0-.02,0-.03,0-.05,0,0,0,0,0,0,0-.03.01-.07.02-.1h0s0-.03,0-.05c0,0,0,0,0,0,0-.03.01-.07.02-.1h0s0-.03,0-.05c0,0,0,0,0,0,0-.03.01-.06.02-.1h0s0-.03,0-.05h0c.01-.06.02-.1.03-.15h0c.01-.06.02-.1.03-.15h0c.01-.05.02-.1.03-.15,0,0,0,0,0,0,0-.02,0-.03,0-.05h0s.01-.07.02-.1c0,0,0,0,0,0,0-.02,0-.03,0-.05,0,0,0,0,0,0,0-.03.01-.06.02-.1h0s0-.03,0-.05c0,0,0,0,0,0,0-.03.01-.07.02-.1h0s0-.03,0-.05h0s.01-.07.02-.1h0s0-.03,0-.05h0s0-.04,0-.05h0s.01-.07.02-.1c0,0,0,0,0,0,0-.01,0-.03,0-.04h0s.01-.07.02-.1c0,0,0,0,0,0,0-.01,0-.03,0-.04h0s.01-.07.02-.1c0,0,0,0,0,0,0-.02,0-.03.01-.05,0,0,0,0,0,0,0-.03.01-.06.02-.1h0s0-.03,0-.05c0,0,0,0,0,0,0-.03.01-.07.02-.1h0s0-.03,0-.05c0,0,0,0,0,0,0-.03.01-.06.02-.1h0s0-.03.01-.05h0s0-.04.01-.05h0s0-.03.01-.05h0s0-.03.01-.05h0s0-.04,0-.05h0s.01-.07.02-.1c0,0,0,0,0,0,0-.01,0-.03,0-.04h0s.01-.07.02-.1c0,0,0,0,0,0,0-.01,0-.03,0-.04,0,0,0,0,0,0,0-.03.01-.06.02-.1,0,0,0,0,0,0,0-.01,0-.03,0-.04,0,0,0,0,0,0,0-.03.01-.06.02-.1h0s0-.03,0-.05c0,0,0,0,0,0,0-.01,0-.03.01-.04,0,0,0,0,0,0,0-.02,0-.03.01-.05h0s0-.03,0-.05c0,0,0,0,0,0,0-.01,0-.03.01-.05h0s.02-.07.02-.1c0,0,0,0,0,0,0-.01,0-.03.01-.04h0s.02-.07.02-.1c0,0,0,0,0,0,0-.01,0-.03,0-.04,0,0,0,0,0,0,0-.03.01-.06.02-.1,0,0,0,0,0,0,0-.01,0-.03.01-.04,0,0,0,0,0,0,0-.03.01-.06.02-.1,0,0,0,0,0,0,0-.01,0-.03,0-.04,0,0,0,0,0,0,0-.03.01-.06.02-.09,0,0,0,0,0,0,0-.01,0-.03,0-.04,0,0,0,0,0,0,0-.03.02-.06.02-.1h0s0-.03.01-.05c0,0,0,0,0,0,0-.03.02-.06.02-.1h0s0-.03.01-.05h0s0-.04.01-.05h0s.02-.07.02-.1c0,0,0,0,0,0,0-.01,0-.03.01-.04h0s.02-.07.02-.1c0,0,0,0,0,0,0-.01,0-.03.01-.04,0,0,0,0,0,0,0-.03.02-.06.02-.1,0,0,0,0,0,0,0-.01,0-.03.01-.04,0,0,0,0,0,0,0-.03.02-.06.02-.1,0,0,0,0,0,0,0-.01,0-.03.01-.04,0,0,0,0,0,0,0-.03.02-.06.02-.1h0s0-.04.01-.05c0,0,0,0,0,0,0-.02,0-.03.01-.05,0,0,0,0,0,0,0-.02,0-.03.01-.05h0s0-.03.01-.05h0c.01-.06.02-.1.04-.15h0s0-.03.01-.05h0s.02-.07.02-.1c0,0,0,0,0,0,0-.01,0-.03.01-.04,0,0,0,0,0,0,0-.03.02-.06.02-.1,0,0,0,0,0,0,0-.01,0-.03.01-.04,0,0,0,0,0,0,0-.03.02-.06.02-.09,0,0,0,0,0,0,0-.01,0-.03.01-.04,0,0,0,0,0,0,0-.03.02-.06.02-.1h0s0-.03.01-.05c0,0,0,0,0,0,0-.03.02-.06.03-.1h0s0-.04.01-.05h0s0-.04.01-.05h0s0-.04.01-.05h0s0-.03.01-.05c0,0,0,0,0,0,0-.01,0-.03.01-.04h0s.02-.07.03-.1c0,0,0,0,0,0,0-.01,0-.03.01-.04h0s.02-.07.03-.1c0,0,0,0,0,0,0-.01,0-.03.01-.04,0,0,0,0,0,0,0-.03.02-.06.03-.09,0,0,0,0,0,0,0-.01,0-.03.01-.04,0,0,0,0,0,0,0-.03.02-.06.03-.09h0s0-.03.01-.05c0,0,0,0,0,0,0-.01,0-.03.01-.05h0s0-.03.01-.05h0s0-.03.01-.05c0,0,0,0,0-.01,0-.01,0-.03.01-.04h0s.02-.07.03-.1h0s0-.04.01-.05h0s.02-.07.03-.1c0,0,0,0,0,0,0-.01,0-.03.01-.04h0s.02-.07.03-.1c0,0,0,0,0,0,0-.01,0-.03.01-.04,0,0,0,0,0,0,0-.03.02-.06.03-.1,0,0,0,0,0,0,0-.01,0-.03.01-.04,0,0,0,0,0,0,0-.03.02-.06.03-.1,0,0,0,0,0,0,0-.01,0-.03.01-.04,0,0,0,0,0,0,0-.03.02-.06.03-.09h0s0-.03.01-.05c0,0,0,0,0,0,0-.01,0-.03.01-.04,0,0,0,0,0,0,0-.02,0-.03.01-.05h0s0-.03.01-.05c0,0,0,0,0,0,0-.01,0-.03.01-.04h0s0-.03.01-.05c0,0,0,0,0,0,0-.01,0-.03.01-.04,0,0,0,0,0,0,0-.01,0-.03.01-.04h0s.02-.07.03-.1c0,0,0,0,0-.01,0-.01,0-.03.01-.04,0,0,0,0,0,0,0-.03.02-.06.03-.09,0,0,0,0,0,0,0-.01,0-.03.01-.04,0,0,0,0,0,0,0-.03.02-.06.03-.09,0,0,0,0,0,0,0-.01,0-.03.01-.04,0,0,0,0,0,0,0-.03.02-.06.03-.09h0s0-.03.01-.05c0,0,0,0,0,0,0-.03.02-.06.03-.09h0s0-.03.01-.05c0,0,0,0,0,0,0-.01,0-.03.01-.04h0s0-.04.01-.05h0s0-.03.01-.05c0,0,0,0,0-.01,0-.01,0-.03.01-.04h0s0-.04.01-.05c0,0,0,0,0,0,0-.01,0-.03.01-.04,0,0,0,0,0-.01,0-.01,0-.02.01-.04,0,0,0,0,0-.01,0-.03.02-.06.03-.09,0,0,0,0,0,0v-.04s.01,0,.01,0c0-.03.02-.06.03-.09,0,0,0,0,0,0,0-.01,0-.03.01-.04,0,0,0,0,0,0,0-.03.02-.06.03-.09,0,0,0,0,0,0,0-.01,0-.03.01-.04,0,0,0,0,0,0,0-.03.02-.06.03-.09h0s0-.03.01-.05c0,0,0,0,0,0,0-.01,0-.03.01-.05h0s0-.03.01-.05h0s0-.03.01-.05h0s0-.04.01-.05h0s0-.04.01-.05c0,0,0,0,0,0,0-.01,0-.03.01-.05,0,0,0,0,0,0,0-.01,0-.03.01-.04h0s.02-.07.03-.1c0,0,0,0,0,0,0-.01,0-.03.01-.04,0,0,0,0,0,0,0-.03.02-.06.03-.09,0,0,0,0,0,0,0-.01,0-.03.01-.04,0,0,0,0,0,0,0-.03.02-.06.03-.09,0,0,0,0,0,0,0-.01,0-.03.01-.04,0,0,0,0,0-.01,0-.01,0-.03.01-.04h0s0-.03.01-.05c0,0,0,0,0,0,0-.01,0-.02.01-.04,0,0,0,0,0-.01,0-.01,0-.02.01-.04,0,0,0,0,0,0,0-.02,0-.03.01-.05h0s0-.03.01-.05c0,0,0,0,0-.01,0-.01,0-.03.01-.04h0s0-.04.01-.05c0,0,0,0,0,0,0-.01,0-.03.01-.04,0,0,0,0,0,0,0-.01,0-.03.01-.04h0s.02-.07.03-.1c0,0,0,0,0-.01,0-.01,0-.03.01-.04,0,0,0,0,0,0,0-.03.02-.06.03-.09,0,0,0,0,0-.01,0-.01,0-.02.01-.04,0,0,0,0,0-.01,0-.03.02-.06.03-.09,0,0,0,0,0-.01,0-.01,0-.02.01-.04,0,0,0,0,0-.01,0-.01,0-.03.01-.04,0,0,0,0,0,0,0-.01,0-.03.01-.04,0,0,0,0,0-.01,0-.01,0-.02.01-.03,0,0,0,0,0-.01,0-.01,0-.03.01-.04,0,0,0,0,0,0,0-.02,0-.03.02-.05h0s0-.03.01-.05c0,0,0,0,0-.01,0-.01,0-.03.01-.04h0s0-.04.02-.05c0,0,0,0,0,0,0-.01,0-.02.01-.04,0,0,0,0,0-.01,0-.01,0-.02.01-.04,0,0,0,0,0,0,0-.02,0-.03.02-.05,0,0,0,0,0,0,0-.01,0-.03.01-.04,0,0,0,0,0-.01,0-.01,0-.02.01-.03,0,0,0,0,0-.01,0-.01.01-.03.01-.04,0,0,0,0,0,0,0-.01,0-.03.01-.04,0,0,0,0,0-.01,0-.01,0-.02.01-.04,0,0,0,0,0,0,0-.01.01-.03.01-.04h0s.01-.03.01-.04c0,0,0,0,0-.01,0-.01,0-.02.01-.03,0,0,0-.01,0-.01,0-.01,0-.03.01-.04,0,0,0,0,0,0,0-.01.01-.03.01-.04,0,0,0,0,0-.01,0-.01,0-.02.01-.03,0,0,0,0,0-.01,0-.01,0-.03.01-.04,0,0,0,0,0,0,0-.01.01-.03.01-.04,0,0,0,0,0-.01,0-.01,0-.02.01-.03,0,0,0,0,0-.01,0-.01,0-.02.01-.04,0,0,0,0,0,0,0-.02,0-.03.02-.04,0,0,0,0,0,0,0-.01,0-.03.01-.04,0,0,0,0,0-.01,0-.01,0-.02.01-.04,0,0,0,0,0,0,0-.02,0-.03.02-.04,0,0,0,0,0,0,0-.01,0-.03.01-.04,0,0,0,0,0-.01,0-.01,0-.02.01-.03,0,0,0,0,0-.01,0-.01,0-.03.01-.04,0,0,0,0,0-.01,0-.01,0-.02.01-.03,0,0,0,0,0-.01,0-.01,0-.02.01-.03,0,0,0,0,0-.01,0-.03.02-.06.03-.09,0,0,0,0,0-.01,0-.01,0-.02.01-.03,0,0,0,0,0-.01,0-.01,0-.03.01-.04h0s.01-.03.02-.05c0,0,0,0,0,0,0-.01,0-.02.01-.04,0,0,0,0,0-.01,0-.01,0-.03.01-.04,0,0,0,0,0,0,0-.01.01-.03.02-.05,0,0,0,0,0,0,0-.01,0-.02.01-.04,0,0,0,0,0-.01,0-.01,0-.03.01-.04,0,0,0,0,0,0,0-.02,0-.03.02-.04,0,0,0,0,0,0,0-.01,0-.02.01-.04,0,0,0,0,0-.01,0-.01,0-.02.01-.03,0,0,0,0,0-.01,0-.01,0-.03.01-.04,0,0,0,0,0-.01,0-.01,0-.02.01-.03,0,0,0,0,0-.01,0-.01,0-.02.01-.03,0,0,0-.01,0-.01,0-.01.01-.03.02-.04,0,0,0,0,0,0,0-.01,0-.03.01-.04,0,0,0-.01,0-.01,0-.01,0-.02.01-.03,0,0,0,0,0-.01,0-.01.01-.03.02-.04h0s0-.03.01-.04c0,0,0-.01,0-.01,0-.01,0-.02.01-.03,0,0,0-.01,0-.02,0-.01,0-.03.01-.04h0s.01-.03.02-.05c0,0,0,0,0-.01,0-.01,0-.02.01-.03,0,0,0-.01,0-.01,0-.01,0-.02.01-.04,0,0,0,0,0,0,0-.01.01-.03.02-.04,0,0,0,0,0-.01,0-.01,0-.02.01-.03,0,0,0,0,0-.01,0-.01,0-.02.01-.04,0,0,0,0,0,0,0-.02,0-.03.02-.04,0,0,0,0,0-.01,0-.01,0-.02.01-.03,0,0,0,0,0-.01,0-.01,0-.02.01-.03,0,0,0,0,0-.01,0-.01.01-.03.02-.04,0,0,0,0,0,0,0-.01,0-.02.01-.03,0,0,0-.01,0-.02,0-.01,0-.02.01-.03,0,0,0,0,0-.01,0-.01.01-.03.02-.04,0,0,0,0,0,0,0-.01,0-.02.01-.03,0,0,0,0,0-.02,0-.01,0-.02.01-.03,0,0,0-.01,0-.02,0-.01.01-.03.02-.04,0,0,0,0,0,0,0-.01,0-.02.01-.03,0,0,0-.01,0-.02,0,0,0-.02.01-.03,0,0,0-.01,0-.02,0-.01,0-.02.01-.04,0,0,0,0,0-.01,0-.01,0-.03.01-.04,0,0,0-.01,0-.02,0,0,0-.02.01-.03,0,0,0-.01,0-.02,0-.01,0-.02.01-.03,0,0,0,0,0-.01,0-.01,0-.03.01-.04,0,0,0-.01,0-.02,0,0,0-.02,0-.02,0,0,0-.01,0-.02,0-.01,0-.02.01-.03,0,0,0,0,0-.01,0-.01,0-.03.02-.04,0,0,0-.01,0-.02,0,0,0-.02,0-.03,0,0,0-.01,0-.02,0,0,0-.02,0-.03,0,0,0-.01,0-.02,0-.01.01-.03.02-.04,0,0,0-.01,0-.02,0-.01,0-.02.01-.03,0,0,0-.01,0-.02,0,0,0-.02.01-.03,0,0,0,0,0-.02,0-.01.01-.03.02-.04,0,0,0,0,0-.01,0-.01,0-.02.01-.03,0,0,0-.01,0-.02,0,0,0-.02.01-.03,0,0,0-.01,0-.02,0-.01,0-.03.01-.04,0,0,0-.01,0-.02,0-.01,0-.02.01-.03,0,0,0-.01,0-.02,0,0,0-.02.01-.03,0,0,0-.01,0-.02,0-.01,0-.02.01-.04,0,0,0,0,0-.01,0-.01,0-.02.01-.03,0,0,0-.01,0-.02,0,0,0-.02,0-.03,0,0,0-.01,0-.02,0-.01,0-.02.01-.03,0,0,0-.01,0-.02,0-.01,0-.02.01-.03,0,0,0-.01,0-.02,0,0,0-.02.01-.03,0,0,0-.01,0-.02,0-.01,0-.02.01-.03,0,0,0,0,0-.01,0-.01.01-.03.02-.04,0,0,0,0,0-.02,0,0,0-.02.01-.03,0,0,0-.01,0-.02,0-.01,0-.02.01-.03,0,0,0-.01,0-.02,0-.01.01-.03.02-.04,0,0,0,0,0-.01,0-.01,0-.02.01-.03,0,0,0-.01,0-.02,0-.01,0-.02.01-.03,0,0,0,0,0-.02,0-.01.01-.03.02-.04,0,0,0,0,0-.02,0-.01,0-.02.01-.03,0,0,0-.01,0-.02,0-.01,0-.02.01-.03,0,0,0,0,0-.02,0-.01.01-.03.02-.04,0,0,0,0,0-.01,0-.01,0-.02.01-.03,0,0,0-.01,0-.02,0,0,0-.02.01-.03,0,0,0-.01,0-.02,0-.01,0-.03.01-.04,0,0,0-.01,0-.01,0-.01,0-.02.01-.03,0,0,0-.01,0-.02,0,0,0-.02.01-.03,0,0,0-.01,0-.02,0,0,0-.02.01-.03,0,0,0-.01,0-.01,0-.01.01-.03.01-.04,0,0,0-.01,0-.02,0,0,0-.02.01-.03,0,0,0-.01,0-.02,0,0,0-.02.01-.03,0,0,0,0,0-.02,0-.01.01-.03.02-.04,0,0,0-.01,0-.02,0,0,0-.02,0-.03,0,0,0-.01,0-.02,0,0,0-.02.01-.03,0,0,0-.01,0-.02,0-.01.01-.03.02-.04,0,0,0,0,0-.02,0,0,0-.02.01-.03,0,0,0-.01,0-.02,0,0,0-.02.01-.03,0,0,0-.01,0-.02,0-.01.01-.03.02-.04,0,0,0-.01,0-.02,0,0,0-.02.01-.03,0,0,0-.01,0-.02,0,0,0-.02,0-.02,0,0,0-.01,0-.02,0-.01.01-.03.01-.04,0,0,0-.01,0-.02,0,0,0-.02.01-.03,0,0,0-.01,0-.02,0,0,0-.02,0-.02,0,0,0-.01,0-.02,0-.01,0-.02.01-.03,0,0,0-.01,0-.02,0,0,0-.02.01-.03,0,0,0-.01,0-.02,0,0,0-.02,0-.02,0,0,0-.01,0-.02,0,0,0-.02.01-.03,0,0,0-.01,0-.02,0,0,0-.02.01-.03,0,0,0-.01,0-.02,0,0,0-.02.01-.03,0,0,0-.01,0-.02,0,0,0-.02.01-.03,0,0,0,0,0-.01,0-.01.01-.03.02-.04,0,0,0-.01,0-.02,0,0,0-.02.01-.02,0,0,0-.01,0-.02,0,0,0-.02.01-.03,0,0,0-.01,0-.02,0-.01.01-.03.02-.04,0,0,0-.01,0-.02,0,0,0-.01,0-.02,0,0,0-.02,0-.02,0,0,0-.02,0-.02,0,0,0-.01,0-.02,0-.01.01-.03.02-.04,0,0,0-.01,0-.02,0,0,0-.02,0-.02,0,0,0-.01,0-.02,0,0,0-.02.01-.02,0,0,0-.01,0-.02,0-.01.01-.03.02-.04,0,0,0,0,0-.01,0,0,0-.02.01-.03,0,0,0-.01,0-.02,0,0,0-.02,0-.02,0,0,0-.01,0-.02,0,0,0-.02.01-.03,0,0,0-.01,0-.02,0,0,0-.02.01-.03,0,0,0-.01,0-.02,0,0,0-.02,0-.02,0,0,0-.01,0-.02,0-.01,0-.02.01-.03,0,0,0,0,0-.01,0-.01,0-.02.01-.03,0,0,0-.01,0-.02,0,0,0-.02.01-.02,0,0,0-.01,0-.02,0,0,0-.02.01-.03,0,0,0-.01,0-.02,0-.01,0-.02.01-.04,0,0,0-.01,0-.02,0,0,0-.02,0-.02,0,0,0-.01,0-.02,0,0,0-.02.01-.03,0,0,0,0,0-.01,0-.01.01-.03.02-.04,0,0,0-.01,0-.02,0,0,0-.02.01-.03,0,0,0-.01,0-.02,0,0,0-.02.01-.03,0,0,0,0,0-.01,0-.01.01-.03.02-.04,0,0,0,0,0-.01,0,0,0-.02.01-.03,0,0,0-.01,0-.02,0,0,0-.02.01-.03,0,0,0,0,0-.01,0-.01.01-.03.02-.04,0,0,0-.01,0-.02,0,0,0-.01.01-.02,0,0,0-.01,0-.02,0,0,0-.01,0-.02,0,0,0-.01,0-.02,0-.01.01-.02.02-.04,0,0,0-.01,0-.02,0,0,0-.02.01-.03,0,0,0-.01,0-.02,0,0,0-.02.01-.02,0,0,0-.01,0-.02,0,0,0-.02.01-.03,0,0,0-.02.01-.03,0,0,0-.02.01-.02,0,0,0-.01,0-.02,0,0,0-.01,0-.02,0,0,0-.01,0-.02,0,0,0-.01,0-.02,0-.01,0-.02.01-.03,0,0,0-.02,0-.02,0,0,0-.01,0-.02,0,0,0-.01,0-.02,0,0,0-.02,0-.02,0,0,0-.01,0-.02,0,0,0-.02.01-.03,0,0,0-.02.01-.03,0,0,0-.01,0-.02,0,0,0-.01,0-.02,0,0,0-.02,0-.02,0,0,0-.02,0-.02,0,0,0-.01,0-.02,0-.01.01-.03.02-.04,0,0,0-.01,0-.02,0,0,0-.02,0-.02,0,0,0-.01,0-.02,0,0,0-.02,0-.02,0,0,0-.01,0-.02,0-.01.01-.03.02-.04,0,0,0-.01,0-.02,0,0,0-.02,0-.02,0,0,0-.02,0-.02,0,0,0-.01,0-.02,0,0,0-.01,0-.02,0,0,0-.02,0-.02,0-.01.01-.02.02-.04,0,0,0-.01,0-.02,0,0,0-.02,0-.02,0,0,0-.01,0-.02,0,0,0-.02.01-.02,0,0,0,0,0-.01,0-.02.01-.03.02-.05,0,0,0-.01,0-.02,0,0,0-.02.01-.02,0,0,0-.01,0-.02,0,0,0-.01.01-.02,0,0,0-.01,0-.02,0-.01.01-.03.02-.04,0,0,0-.01,0-.02,0,0,0-.01,0-.02,0,0,0-.01,0-.02,0,0,0-.01,0-.02,0,0,0-.01,0-.02,0-.01.01-.03.02-.05,0,0,0,0,0-.01,0,0,0-.02.01-.03,0,0,0-.01,0-.02,0,0,0-.02.01-.02,0,0,0-.01,0-.02,0-.02.01-.03.02-.05,0,0,0,0,0,0,0,0,0-.02.01-.02,0,0,0-.01,0-.02,0,0,0-.02.01-.03,0,0,0,0,0-.01.01-.03.03-.06.04-.09,0,0,0,0,0-.01,0,0,0-.02.01-.03,0,0,0,0,0-.01.01-.03.02-.06.04-.09,0,0,0-.01,0-.02,0,0,0-.02.01-.02,0,0,0-.01,0-.02,0,0,0-.02.01-.02,0,0,0,0,0-.01,0-.02.01-.03.02-.05,0,0,0-.01,0-.01,0,0,0-.02.01-.03,0,0,0-.01,0-.02,0,0,0-.02.01-.03,0,0,0,0,0-.01,0-.02.01-.03.02-.05,0,0,0,0,0-.01,0,0,0-.02.01-.03,0,0,0,0,0-.01,0,0,0-.02.01-.03,0,0,0,0,0-.01,0-.02.02-.03.02-.05,0,0,0,0,0-.01,0,0,0-.02.01-.03,0,0,0-.01,0-.01,0,0,0-.02.01-.03,0,0,0,0,0-.01,0-.02.02-.04.02-.05,0,0,0,0,0,0,0,0,0-.02.01-.03,0,0,0,0,0-.01,0,0,0-.02.01-.03,0,0,0,0,0-.01.01-.03.03-.06.04-.09,0,0,0,0,0-.01,0,0,0-.02.01-.03,0,0,0,0,0-.01,0,0,0-.02.01-.03h0s.02-.04.03-.06c0,0,0,0,0-.01,0,0,0-.02.01-.03,0,0,0,0,0-.01,0,0,0-.02.01-.03,0,0,0,0,0,0,0-.02.02-.04.03-.06,0,0,0,0,0,0,0,0,0-.02.01-.03,0,0,0,0,0-.01,0,0,0-.02.01-.03,0,0,0,0,0-.01,0-.01.01-.03.02-.04,0,0,0-.01,0-.02,0,0,0-.02.01-.02,0,0,0-.01,0-.02,0,0,0-.02.01-.03,0,0,0,0,0-.01,0-.02.02-.04.03-.05,0,0,0,0,0,0,0,0,0-.02.01-.03,0,0,0,0,0-.01,0,0,0-.02.01-.03,0,0,0,0,0,0,.01-.03.03-.06.04-.09,0,0,0,0,0-.01,0,0,0-.02.01-.03,0,0,0,0,0,0,.01-.03.03-.06.04-.09,0,0,0,0,0-.01,0,0,0-.02.01-.03,0,0,0,0,0-.01.01-.03.03-.06.04-.09,0,0,0,0,0-.01,0-.01,0-.02.01-.03,0,0,0,0,0-.01,0,0,0-.02.01-.03,0,0,0,0,0,0,0-.02.02-.04.03-.05,0,0,0,0,0-.01,0,0,0-.02.01-.03,0,0,0,0,0-.01,0,0,0-.02.01-.03,0,0,0,0,0,0,0-.02.02-.04.03-.05,0,0,0,0,0-.01,0,0,0-.02.01-.03,0,0,0,0,0-.01,0,0,0-.02.01-.03,0,0,0,0,0,0,0-.02.02-.04.03-.06,0,0,0,0,0,0,0,0,0-.02.01-.03,0,0,0,0,0-.01,0,0,0-.02.01-.03,0,0,0-.01,0-.01,0-.02.02-.04.03-.06,0,0,0,0,0,0,0,0,0-.02.01-.03,0,0,0,0,0-.01,0,0,0-.02.01-.03,0,0,0,0,0-.01.01-.03.03-.06.04-.09,0,0,0,0,0,0,0-.01,0-.02.01-.03,0,0,0,0,0-.01.01-.03.03-.06.04-.09,0,0,0,0,0,0,0-.01,0-.02.01-.03,0,0,0,0,0-.01.02-.03.03-.06.05-.1,0,0,0,0,0,0,0-.01,0-.02.01-.03,0,0,0,0,0-.01.02-.03.03-.07.05-.1h0s0-.02.01-.03c0,0,0,0,0,0,.02-.04.04-.09.06-.13,0,0,0,0,0-.01,0,0,0-.02.01-.03,0,0,0,0,0,0,.01-.03.03-.07.05-.1,0,0,0,0,0,0,0-.01,0-.02.01-.03,0,0,0,0,0,0,.02-.03.03-.06.05-.1,0,0,0,0,0-.01,0-.01,0-.02.01-.03,0,0,0,0,0,0,.02-.03.03-.06.05-.1,0,0,0,0,0,0,0-.01,0-.02.02-.03,0,0,0,0,0,0,.02-.04.03-.06.05-.1,0,0,0,0,0,0,0-.01,0-.02.01-.03,0,0,0,0,0,0,.02-.03.03-.07.05-.1,0,0,0,0,0,0,0-.01,0-.02.02-.03,0,0,0,0,0,0,0-.01,0-.02.02-.03h0s.02-.04.03-.07c0,0,0,0,0,0,0-.01,0-.02.02-.03,0,0,0,0,0,0,.02-.05.04-.09.07-.13,0,0,0,0,0,0,0-.01,0-.02.02-.03,0,0,0,0,0,0,.02-.03.03-.07.05-.1,0,0,0,0,0,0,0-.01.01-.02.02-.03h0s.03-.07.05-.1h0s.01-.02.02-.03c0,0,0,0,0,0,.02-.03.03-.06.05-.1,0,0,0,0,0,0,0-.01,0-.02.02-.03,0,0,0,0,0,0,.02-.03.03-.06.05-.1,0,0,0,0,0,0,0-.01,0-.02.02-.03,0,0,0,0,0,0,.02-.05.04-.09.07-.13,0,0,0,0,0,0,.02-.05.04-.09.07-.13,0,0,0,0,0,0,.02-.05.05-.09.07-.14,0,0,0,0,0,0,.02-.05.05-.09.07-.14h0s.01-.02.02-.04h0s.03-.07.05-.1h0s.01-.02.02-.04c0,0,0,0,0,0,.02-.05.05-.09.07-.14,0,0,0,0,0,0,.02-.05.05-.09.07-.13h0c.07-.14.14-.28.22-.42h0s.01-.02.02-.03h0s.04-.07.05-.1h0s.01-.02.02-.03c0,0,0,0,0,0,.02-.05.05-.09.07-.13,0,0,0,0,0,0,.02-.05.05-.09.07-.13h0s.05-.09.07-.14c0,0,0,0,0,0,.02-.05.05-.09.07-.13,0,0,0,0,0,0,.02-.05.05-.09.07-.13,0,0,0,0,0,0,.02-.05.05-.09.07-.14h0c.13-.24.26-.48.39-.72h0c3.85-7.03,8.5-13.62,13.89-19.61,1.44-1.6,3.91-1.73,5.51-.29,1.61,1.44,1.74,3.91.3,5.51-22.78,25.39-30.43,60-20.47,92.58,15.53,50.8,69.49,79.49,120.29,63.96h0c18.15-5.55,34.1-16.19,46.12-30.77,1.37-1.66,3.83-1.9,5.5-.53,1.66,1.37,1.9,3.82.54,5.49-7.24,8.78-15.96,16.44-25.94,22.54,0,0,0,0,0,0-.39.24-.78.47-1.17.71h0s-.05.03-.07.04h0c-.14.08-.28.16-.42.25h0c-.09.05-.19.11-.28.16,0,0,0,0,0,0-.09.05-.19.11-.28.16h0s-.02.01-.03.02h0c-.06.03-.12.07-.17.1h0c-.27.15-.54.31-.81.46,0,0,0,0,0,0-.02.01-.05.03-.07.04,0,0,0,0,0,0-.01,0-.02.01-.03.02,0,0,0,0,0,0-.06.03-.12.06-.17.1,0,0,0,0,0,0-.04.02-.07.04-.1.06,0,0,0,0,0,0-.04.02-.07.04-.1.06,0,0,0,0,0,0-.04.02-.07.04-.1.06h0s-.05.03-.07.04c0,0,0,0,0,0-.01,0-.02.01-.03.02,0,0,0,0,0,0-.02.01-.05.03-.07.04h0s-.07.04-.11.06h0s-.05.03-.07.04c0,0,0,0,0,0-.01,0-.02.01-.03.02,0,0,0,0,0,0-.02.01-.05.03-.07.04h0s-.02.01-.03.02c0,0,0,0,0,0-.02.01-.04.02-.07.04,0,0,0,0,0,0-.01,0-.02,0-.03.02,0,0,0,0,0,0-.02.01-.04.02-.07.04,0,0,0,0,0,0-.01,0-.02,0-.03.02,0,0,0,0,0,0-.02.01-.04.02-.07.04,0,0,0,0,0,0-.04.02-.07.04-.1.06,0,0,0,0,0,0-.01,0-.02.01-.03.02h0s-.02.01-.04.02h0s-.02.01-.03.02c0,0,0,0,0,0-.02.01-.05.02-.07.04,0,0,0,0,0,0-.01,0-.02.01-.03.02h0s-.05.03-.07.04h0s-.02.01-.03.02c0,0,0,0,0,0-.02.01-.05.02-.07.04,0,0,0,0,0,0-.01,0-.02.01-.03.02h0s-.02.01-.04.02h0s-.02.01-.03.02c0,0,0,0,0,0-.02.01-.04.02-.07.04,0,0,0,0,0,0-.01,0-.02,0-.03.02,0,0,0,0,0,0-.02.01-.04.02-.07.04,0,0,0,0,0,0-.01,0-.02.01-.03.02h0s-.05.03-.07.04c0,0,0,0,0,0-.01,0-.02.01-.03.02,0,0,0,0,0,0-.02.01-.04.02-.07.04,0,0,0,0,0,0-.01,0-.02,0-.03.02h0s-.05.03-.07.04c0,0,0,0,0,0-.01,0-.02.01-.03.02h0s-.05.02-.07.04c0,0,0,0,0,0-.04.02-.07.04-.11.06h0s-.07.04-.11.06c0,0,0,0,0,0-.02.01-.05.02-.07.04,0,0,0,0,0,0-.01,0-.02.01-.03.02,0,0,0,0,0,0-.01,0-.02.01-.04.02h0s-.02.01-.03.02c0,0,0,0,0,0-.01,0-.02.01-.03.02,0,0,0,0,0,0-.02.01-.05.02-.07.04,0,0,0,0,0,0-.02.01-.05.02-.07.04h0s-.02.01-.03.02c0,0,0,0,0,0-.02.01-.04.02-.07.04,0,0,0,0,0,0-.01,0-.02.01-.03.02,0,0,0,0,0,0-.02.01-.05.02-.07.04,0,0,0,0,0,0-.01,0-.02.01-.03.02,0,0,0,0,0,0-.02.01-.05.02-.07.04,0,0,0,0,0,0-.01,0-.02.01-.03.02,0,0,0,0,0,0-.01,0-.02.01-.03.02h0s-.02.01-.03.02c0,0,0,0,0,0-.01,0-.02.01-.03.02,0,0,0,0,0,0-.01,0-.02.01-.03.02,0,0,0,0,0,0-.01,0-.02.01-.03.02,0,0,0,0,0,0-.02.01-.05.02-.07.04,0,0,0,0,0,0-.01,0-.02,0-.03.02,0,0,0,0,0,0-.02.01-.04.02-.07.03,0,0,0,0,0,0-.01,0-.02,0-.03.02,0,0,0,0,0,0-.02.01-.05.02-.07.04,0,0,0,0,0,0-.01,0-.02,0-.03.02,0,0,0,0,0,0-.02.01-.04.02-.07.03,0,0,0,0,0,0-.02.01-.05.02-.07.03h0s-.02.01-.03.02c0,0,0,0,0,0-.02.01-.05.02-.07.04h0s-.02.01-.04.02c0,0,0,0,0,0-.02.01-.05.02-.07.04,0,0,0,0,0,0-.01,0-.02.01-.03.02,0,0,0,0,0,0-.02.01-.04.02-.07.03,0,0,0,0,0,0-.01,0-.02,0-.03.01,0,0,0,0,0,0-.02.01-.04.02-.07.03,0,0,0,0,0,0-.01,0-.02,0-.03.01,0,0,0,0,0,0-.01,0-.02.01-.03.02,0,0,0,0,0,0-.01,0-.02,0-.03.02,0,0,0,0,0,0-.01,0-.02,0-.03.02,0,0,0,0,0,0-.02.01-.05.02-.07.03,0,0,0,0,0,0-.02.01-.05.02-.07.03,0,0,0,0,0,0-.01,0-.02,0-.03.02,0,0,0,0,0,0-.02.01-.05.02-.07.03,0,0,0,0,0,0-.01,0-.02.01-.03.02,0,0,0,0,0,0-.02.01-.05.02-.07.03,0,0,0,0,0,0-.01,0-.02,0-.03.02,0,0,0,0,0,0-.02.01-.05.02-.07.03,0,0,0,0,0,0-.01,0-.02.01-.03.02,0,0,0,0,0,0-.01,0-.02.01-.04.02,0,0,0,0,0,0-.01,0-.02,0-.03.02,0,0,0,0,0,0-.02.01-.04.02-.07.03,0,0,0,0,0,0-.01,0-.02,0-.03.02,0,0,0,0,0,0-.02.01-.05.02-.07.03,0,0,0,0,0,0-.01,0-.02,0-.03.02,0,0,0,0,0,0-.02.01-.05.02-.07.03,0,0,0,0,0,0-.01,0-.02.01-.03.02h0s-.05.02-.07.04c0,0,0,0,0,0-.01,0-.02.01-.03.02,0,0,0,0,0,0-.01,0-.02.01-.04.02,0,0,0,0,0,0-.01,0-.02,0-.03.02,0,0,0,0,0,0-.02.01-.05.02-.07.03h0s-.02.01-.03.02c0,0,0,0,0,0-.02.01-.05.02-.07.03,0,0,0,0,0,0-.01,0-.02.01-.04.02h0s-.05.02-.07.03c0,0,0,0,0,0-.01,0-.02.01-.03.02h0s-.05.02-.07.03c0,0,0,0,0,0-.04.02-.07.03-.11.05,0,0,0,0,0,0-.02.01-.05.02-.07.03,0,0,0,0,0,0-.01,0-.02.01-.03.02,0,0,0,0,0,0-.04.02-.07.03-.11.05h0s-.05.02-.07.04c0,0,0,0,0,0-.01,0-.02.01-.03.02,0,0,0,0,0,0-.02.01-.05.02-.07.03,0,0,0,0,0,0-.01,0-.02,0-.03.02h0s-.05.02-.07.03c0,0,0,0,0,0-.04.02-.07.03-.11.05,0,0,0,0,0,0-.01,0-.02.01-.03.02h0s-.02.01-.04.02h0s-.02.01-.03.02c0,0,0,0,0,0-.02.01-.05.02-.07.03,0,0,0,0,0,0-.01,0-.02.01-.03.02,0,0,0,0,0,0-.02.01-.05.02-.07.03,0,0,0,0,0,0-.01,0-.02,0-.03.02,0,0,0,0,0,0-.02.01-.05.02-.07.03,0,0,0,0,0,0-.02.01-.05.02-.07.03,0,0,0,0,0,0-.01,0-.02.01-.03.02,0,0,0,0,0,0-.01,0-.02.01-.03.02h0s-.02.01-.04.02h0s-.02.01-.03.02c0,0,0,0,0,0-.02.01-.04.02-.07.03,0,0,0,0,0,0-.01,0-.02,0-.03.01,0,0,0,0,0,0-.02.01-.05.02-.07.03h0s-.02.01-.03.02c0,0,0,0,0,0-.02.01-.05.02-.07.03,0,0,0,0,0,0-.01,0-.02,0-.03.01h0s-.02.01-.04.02h0s-.02.01-.04.02c0,0,0,0,0,0-.01,0-.02,0-.03.02,0,0,0,0,0,0-.01,0-.02.01-.04.02h0s-.02,0-.03.02c0,0,0,0,0,0-.01,0-.02,0-.03.02h0s-.02.01-.03.02c0,0,0,0,0,0,0,0-.02,0-.03.01,0,0,0,0,0,0-.02.01-.05.02-.07.03,0,0,0,0,0,0-.01,0-.02,0-.03.01,0,0,0,0,0,0-.02.01-.04.02-.07.03,0,0,0,0,0,0-.01,0-.02,0-.03.01,0,0,0,0,0,0-.01,0-.02.01-.04.02,0,0,0,0,0,0-.01,0-.02,0-.03.01,0,0,0,0,0,0-.01,0-.02,0-.03.01,0,0,0,0,0,0-.01,0-.02.01-.04.02,0,0,0,0,0,0-.01,0-.02,0-.03.01,0,0,0,0,0,0-.03.01-.05.02-.07.03h0s-.02.01-.03.02c0,0,0,0,0,0-.03.01-.05.02-.07.03,0,0,0,0,0,0-.01,0-.02,0-.03.01,0,0,0,0,0,0-.03.01-.05.02-.07.03,0,0,0,0,0,0-.01,0-.02,0-.03.01,0,0,0,0,0,0-.03.01-.05.02-.07.03,0,0,0,0,0,0-.01,0-.02,0-.03.01,0,0,0,0,0,0-.03.01-.05.02-.07.03,0,0,0,0,0,0-.01,0-.02,0-.03.02h0s-.02.01-.04.02c0,0,0,0,0,0-.01,0-.02,0-.03.01,0,0,0,0,0,0-.03.01-.05.02-.07.03,0,0,0,0,0,0,0,0-.02,0-.03.01,0,0,0,0,0,0-.03.01-.04.02-.07.03,0,0,0,0,0,0-.01,0-.02,0-.03.01,0,0,0,0,0,0-.03.01-.05.02-.07.03,0,0,0,0,0,0-.01,0-.02,0-.03.01,0,0,0,0,0,0-.01,0-.02.01-.04.02h0s-.02,0-.03.01c0,0,0,0,0,0-.01,0-.02,0-.03.01,0,0,0,0,0,0-.01,0-.02.01-.04.02,0,0,0,0,0,0-.01,0-.02,0-.03.01,0,0,0,0,0,0-.01,0-.02,0-.03.01h0s-.02.01-.04.02c0,0,0,0,0,0,0,0-.02,0-.03.01,0,0,0,0,0,0-.03.01-.04.02-.07.03,0,0,0,0,0,0,0,0-.02,0-.03.01,0,0,0,0,0,0-.01,0-.02,0-.04.01,0,0,0,0,0,0-.01,0-.02,0-.03.01,0,0,0,0,0,0,0,0-.02,0-.03.01,0,0,0,0,0,0-.01,0-.02,0-.03.01,0,0,0,0,0,0,0,0-.02,0-.03.01,0,0,0,0-.01,0,0,0-.02,0-.03.01,0,0,0,0,0,0-.01,0-.02,0-.03.01,0,0,0,0-.01,0,0,0-.02,0-.02.01,0,0,0,0-.01,0,0,0-.02,0-.03.01,0,0,0,0,0,0-.01,0-.02,0-.03.01,0,0,0,0,0,0,0,0-.02,0-.03.01,0,0,0,0,0,0-.01,0-.02,0-.03.01,0,0,0,0,0,0-.01,0-.02,0-.03.01,0,0,0,0,0,0,0,0-.02,0-.03.01,0,0,0,0,0,0-.01,0-.02,0-.03.01,0,0,0,0,0,0-.01,0-.02,0-.03.01,0,0,0,0,0,0,0,0-.02,0-.03.01,0,0,0,0,0,0-.01,0-.02,0-.04.01,0,0,0,0,0,0-.01,0-.02,0-.03.01,0,0,0,0,0,0,0,0-.02,0-.03.01,0,0,0,0,0,0-.01,0-.02,0-.03.01,0,0,0,0,0,0,0,0-.02,0-.03.01,0,0,0,0-.01,0,0,0-.02,0-.03.01,0,0,0,0,0,0-.01,0-.02,0-.03.01,0,0,0,0,0,0,0,0-.02,0-.03.01,0,0,0,0,0,0-.01,0-.02,0-.03.01h0s-.02,0-.03.01c0,0,0,0,0,0,0,0-.02,0-.03.01,0,0,0,0,0,0-.03.01-.04.02-.07.03,0,0,0,0,0,0,0,0-.02,0-.03.01,0,0,0,0,0,0-.03.01-.04.02-.07.03,0,0,0,0,0,0-.01,0-.02,0-.03.01,0,0,0,0,0,0-.01,0-.02,0-.04.02h0s-.02,0-.03.01c0,0,0,0,0,0-.01,0-.02,0-.03.01,0,0,0,0,0,0-.01,0-.02,0-.04.01,0,0,0,0,0,0-.01,0-.02,0-.03.01,0,0,0,0,0,0-.01,0-.02,0-.03.01h0s-.02.01-.04.02c0,0,0,0,0,0-.01,0-.02,0-.03.01,0,0,0,0,0,0-.03.01-.05.02-.07.03,0,0,0,0,0,0-.01,0-.02,0-.03.01,0,0,0,0,0,0-.03.01-.05.02-.07.03,0,0,0,0,0,0-.01,0-.02,0-.03.01,0,0,0,0,0,0-.01,0-.02,0-.04.01,0,0,0,0,0,0-.01,0-.02,0-.03.01,0,0,0,0,0,0,0,0-.02,0-.03.01,0,0,0,0,0,0-.01,0-.02,0-.04.01,0,0,0,0,0,0-.01,0-.02,0-.03.01,0,0,0,0,0,0-.01,0-.02,0-.03.01,0,0,0,0,0,0-.01,0-.02,0-.04.01,0,0,0,0,0,0-.01,0-.02,0-.03.01,0,0,0,0,0,0-.03.01-.05.02-.07.03,0,0,0,0,0,0-.01,0-.02,0-.03.01,0,0,0,0,0,0-.03.01-.05.02-.07.03,0,0,0,0,0,0-.01,0-.02,0-.03.01,0,0,0,0,0,0-.01,0-.02,0-.04.01h0s-.02,0-.04.01c0,0,0,0,0,0-.01,0-.02,0-.03.01,0,0,0,0,0,0-.01,0-.02,0-.04.01h0s-.02,0-.03.01c0,0,0,0,0,0-.01,0-.02,0-.03.01,0,0,0,0,0,0-.01,0-.02,0-.04.01,0,0,0,0,0,0-.01,0-.02,0-.03.01,0,0,0,0,0,0-.01,0-.02,0-.03.01h0s-.02,0-.04.01c0,0,0,0,0,0-.01,0-.02,0-.03.01,0,0,0,0,0,0-.03.01-.05.02-.07.03,0,0,0,0,0,0-.01,0-.02,0-.03.01,0,0,0,0,0,0-.03.01-.05.02-.07.03,0,0,0,0,0,0-.01,0-.02,0-.03.01,0,0,0,0,0,0-.01,0-.02,0-.04.01,0,0,0,0,0,0-.01,0-.02,0-.03.01,0,0,0,0,0,0-.01,0-.02,0-.03.01,0,0,0,0,0,0-.01,0-.02,0-.04.01,0,0,0,0,0,0-.01,0-.02,0-.03.01,0,0,0,0,0,0-.03.01-.05.02-.07.03,0,0,0,0,0,0-.01,0-.02,0-.03.01,0,0,0,0,0,0-.03,0-.05.02-.07.03,0,0,0,0,0,0-.01,0-.02,0-.03.01,0,0,0,0,0,0-.03,0-.05.02-.07.03,0,0,0,0,0,0-.01,0-.02,0-.03.01,0,0,0,0,0,0-.03,0-.05.02-.07.03,0,0,0,0,0,0-.01,0-.02,0-.03.01,0,0,0,0,0,0-.01,0-.02,0-.04.01,0,0,0,0,0,0-.01,0-.02,0-.03.01,0,0,0,0,0,0-.01,0-.02,0-.03.01,0,0,0,0,0,0-.01,0-.02,0-.04.01,0,0,0,0,0,0-.01,0-.02,0-.03.01,0,0,0,0,0,0-.03,0-.05.02-.07.03,0,0,0,0,0,0,0,0-.02,0-.03.01,0,0,0,0,0,0-.03,0-.05.02-.07.03,0,0,0,0,0,0,0,0-.02,0-.03.01,0,0,0,0,0,0-.03,0-.05.02-.07.03,0,0,0,0,0,0,0,0-.02,0-.03.01,0,0,0,0,0,0-.01,0-.02,0-.03.01,0,0,0,0,0,0,0,0-.02,0-.03.01,0,0,0,0,0,0-.01,0-.02,0-.03.01,0,0,0,0,0,0-.01,0-.02,0-.04.01,0,0-.03.01-.04.01,0,0,0,0,0,0-.01,0-.02,0-.03.01,0,0,0,0,0,0-.01,0-.02,0-.04.01,0,0,0,0,0,0-.01,0-.02,0-.03.01,0,0,0,0,0,0-.01,0-.02,0-.03.01,0,0,0,0,0,0-.01,0-.02,0-.04.01,0,0-.03.01-.04.01,0,0,0,0,0,0-.03,0-.04.02-.07.03,0,0,0,0,0,0,0,0-.02,0-.03.01,0,0,0,0,0,0-.01,0-.02,0-.04.01,0,0,0,0,0,0-.01,0-.02,0-.03.01,0,0,0,0,0,0-.01,0-.02,0-.03.01,0,0,0,0,0,0-.01,0-.02,0-.04.01,0,0,0,0,0,0-.01,0-.02,0-.03.01,0,0,0,0,0,0-.01,0-.02,0-.03.01h0s-.02,0-.04.01c0,0,0,0,0,0-.01,0-.02,0-.03.01,0,0,0,0,0,0-.01,0-.02,0-.03.01,0,0,0,0,0,0-.01,0-.02,0-.04.01,0,0,0,0,0,0,0,0-.02,0-.03.01,0,0,0,0,0,0-.03,0-.05.02-.07.03,0,0,0,0,0,0-.01,0-.02,0-.03.01,0,0,0,0,0,0-.01,0-.02,0-.04.01,0,0,0,0,0,0-.01,0-.02,0-.03.01-.01,0-.03.01-.04.01,0,0,0,0,0,0-.01,0-.02,0-.04.01,0,0-.03,0-.03.01,0,0,0,0-.01,0,0,0-.02,0-.03.01,0,0,0,0,0,0-.01,0-.02,0-.04.01-.01,0-.02,0-.04.01,0,0,0,0,0,0-.01,0-.02,0-.03.01,0,0,0,0,0,0-.01,0-.02,0-.04.01-.01,0-.02,0-.04.01,0,0,0,0,0,0-.03,0-.04.02-.07.03,0,0-.03.01-.04.01,0,0,0,0,0,0-.03,0-.05.02-.07.03-.01,0-.02,0-.04.01,0,0,0,0,0,0-.01,0-.02,0-.04.01,0,0-.03,0-.04.01-.01,0-.03.01-.04.01,0,0,0,0,0,0-.01,0-.02,0-.03.01,0,0-.03,0-.04.01,0,0,0,0,0,0-.01,0-.02,0-.03.01,0,0,0,0,0,0-.01,0-.02,0-.04.01-.01,0-.02,0-.04.01,0,0,0,0,0,0-.03,0-.05.02-.07.03,0,0,0,0,0,0-.01,0-.02,0-.03.01,0,0,0,0,0,0-.01,0-.02,0-.04.01,0,0,0,0,0,0-.01,0-.02,0-.04.01-.01,0-.03,0-.04.01,0,0,0,0,0,0-.01,0-.02,0-.04.01h0s-.02,0-.03.01c0,0,0,0,0,0-.01,0-.02,0-.03.01,0,0,0,0,0,0-.01,0-.02,0-.04.01,0,0,0,0,0,0-.01,0-.02,0-.03.01-.01,0-.03,0-.04.01,0,0,0,0,0,0-.01,0-.02,0-.04.01,0,0,0,0,0,0-.02,0-.02,0-.04.01-.03,0-.05.02-.07.03-.01,0-.03,0-.04.01,0,0,0,0,0,0-.03,0-.05.02-.07.03,0,0-.03,0-.04.01-.02,0-.03,0-.05.02-.02,0-.02,0-.04.01-.01,0-.03,0-.04.01-.02,0-.03,0-.04.01-.01,0-.02,0-.04.01-.01,0-.03,0-.04.01-.02,0-.03,0-.04.01,0,0-.03,0-.04.01-.02,0-.02,0-.04.01-.02,0-.03,0-.04.01-.01,0-.02,0-.04.01-.02,0-.03,0-.04.01-.01,0-.02,0-.04.01-.01,0-.03,0-.04.01-.02,0-.03,0-.04.01-.01,0-.02,0-.04.01-.01,0-.03,0-.04.01-.02,0-.03,0-.04.01-.01,0-.03,0-.04.01-.01,0-.03,0-.04.01-.02,0-.03,0-.04.01-.01,0-.03,0-.04.01-.01,0-.03,0-.04.01-.01,0-.02,0-.04.01-.01,0-.02,0-.04.01-.01,0-.03,0-.04.01-.02,0-.03,0-.04.01-.01,0-.02,0-.04.01,0,0,0,0-.01,0-.03,0-.04.01-.07.02-.01,0-.03,0-.04.01-.02,0-.03,0-.05.01-.01,0-.03,0-.04.01-.01,0-.03,0-.04.01-.02,0-.03,0-.04.01,0,0-.03,0-.04.01-.01,0-.03,0-.04.01-.02,0-.03,0-.04.01-.01,0-.02,0-.04.01-.02,0-.02,0-.04.01-.01,0-.03,0-.04.01,0,0-.03,0-.04.01-.02,0-.03,0-.04.01-.01,0-.02,0-.04.01-.01,0-.03,0-.04.01-.02,0-.03,0-.04.01-.02,0-.02,0-.04.01-.01,0-.03,0-.04.01-.02,0-.03,0-.05.01-.01,0-.03,0-.04.01-.01,0-.03,0-.04.01-.02,0-.03,0-.04.01-.01,0-.03,0-.04.01-.01,0-.03,0-.04.01-.02,0-.03,0-.04.01-.01,0-.03,0-.04.01-.01,0-.03,0-.04.01-.01,0-.03,0-.04.01-.01,0-.03,0-.04.01-.02,0-.03,0-.05.01,0,0-.03,0-.04.01-.01,0-.03,0-.04.01-.02,0-.03,0-.05.01-.01,0-.02,0-.04.01-.01,0-.03,0-.04.01-.02,0-.03,0-.04.01,0,0-.03,0-.04.01-.02,0-.02,0-.04.01-.02,0-.03,0-.04.01,0,0-.03,0-.04.01-.02,0-.02,0-.04.01-.02,0-.02,0-.04.01-.01,0-.03,0-.04.01-.02,0-.03,0-.04.01-.01,0-.03,0-.04.01-.01,0-.03,0-.04.01-.02,0-.03,0-.05.01-.01,0-.02,0-.04.01-.01,0-.03,0-.04.01-.02,0-.03,0-.04.01,0,0-.03,0-.04.01,0,0-.03,0-.04.01-.01,0-.03,0-.04.01-.01,0-.03,0-.04.01-.01,0-.03,0-.04.01-.02,0-.02,0-.04.01-.01,0-.03,0-.04.01-.02,0-.03,0-.05.01Z"/>
    </g>
    <circle id="Ellipse_2" data-name="Ellipse 2" class="cls-1" cx="297.59" cy="41.92" r="41.92"/>
  </g>
</svg>